%TF.GenerationSoftware,KiCad,Pcbnew,(6.0.9)*%
%TF.CreationDate,2022-12-10T14:47:00+01:00*%
%TF.ProjectId,Hygrometer_SMD_doubleSided,48796772-6f6d-4657-9465-725f534d445f,rev?*%
%TF.SameCoordinates,Original*%
%TF.FileFunction,Soldermask,Top*%
%TF.FilePolarity,Negative*%
%FSLAX46Y46*%
G04 Gerber Fmt 4.6, Leading zero omitted, Abs format (unit mm)*
G04 Created by KiCad (PCBNEW (6.0.9)) date 2022-12-10 14:47:00*
%MOMM*%
%LPD*%
G01*
G04 APERTURE LIST*
G04 Aperture macros list*
%AMRoundRect*
0 Rectangle with rounded corners*
0 $1 Rounding radius*
0 $2 $3 $4 $5 $6 $7 $8 $9 X,Y pos of 4 corners*
0 Add a 4 corners polygon primitive as box body*
4,1,4,$2,$3,$4,$5,$6,$7,$8,$9,$2,$3,0*
0 Add four circle primitives for the rounded corners*
1,1,$1+$1,$2,$3*
1,1,$1+$1,$4,$5*
1,1,$1+$1,$6,$7*
1,1,$1+$1,$8,$9*
0 Add four rect primitives between the rounded corners*
20,1,$1+$1,$2,$3,$4,$5,0*
20,1,$1+$1,$4,$5,$6,$7,0*
20,1,$1+$1,$6,$7,$8,$9,0*
20,1,$1+$1,$8,$9,$2,$3,0*%
G04 Aperture macros list end*
%ADD10R,1.000000X0.700000*%
%ADD11R,0.700000X1.000000*%
%ADD12RoundRect,0.250000X-0.625000X0.400000X-0.625000X-0.400000X0.625000X-0.400000X0.625000X0.400000X0*%
%ADD13RoundRect,0.250000X0.625000X-0.400000X0.625000X0.400000X-0.625000X0.400000X-0.625000X-0.400000X0*%
%ADD14RoundRect,0.250000X-0.400000X-0.625000X0.400000X-0.625000X0.400000X0.625000X-0.400000X0.625000X0*%
%ADD15RoundRect,0.150000X-0.825000X-0.150000X0.825000X-0.150000X0.825000X0.150000X-0.825000X0.150000X0*%
%ADD16R,1.700000X1.700000*%
%ADD17O,1.700000X1.700000*%
%ADD18RoundRect,0.250000X0.400000X0.625000X-0.400000X0.625000X-0.400000X-0.625000X0.400000X-0.625000X0*%
%ADD19RoundRect,0.250000X-0.425000X0.537500X-0.425000X-0.537500X0.425000X-0.537500X0.425000X0.537500X0*%
%ADD20RoundRect,0.250000X0.537500X0.425000X-0.537500X0.425000X-0.537500X-0.425000X0.537500X-0.425000X0*%
%ADD21RoundRect,0.250000X-0.537500X-0.425000X0.537500X-0.425000X0.537500X0.425000X-0.537500X0.425000X0*%
%ADD22O,2.999999X1.200000*%
%ADD23R,1.500000X1.500000*%
%ADD24C,1.500000*%
G04 APERTURE END LIST*
D10*
%TO.C,Q2*%
X65951000Y-38619000D03*
X65951000Y-36719000D03*
X63551000Y-37669000D03*
%TD*%
D11*
%TO.C,Q1*%
X65452000Y-63818000D03*
X67352000Y-63818000D03*
X66402000Y-61418000D03*
%TD*%
D12*
%TO.C,R2*%
X71990000Y-35992000D03*
X71990000Y-39092000D03*
%TD*%
%TO.C,R3*%
X69450000Y-35992000D03*
X69450000Y-39092000D03*
%TD*%
D13*
%TO.C,R5*%
X74530000Y-46966000D03*
X74530000Y-43866000D03*
%TD*%
%TO.C,R6*%
X77070000Y-46966000D03*
X77070000Y-43866000D03*
%TD*%
D12*
%TO.C,R7*%
X77070000Y-35992000D03*
X77070000Y-39092000D03*
%TD*%
%TO.C,R8*%
X74530000Y-35992000D03*
X74530000Y-39092000D03*
%TD*%
D14*
%TO.C,R9*%
X65614000Y-69546000D03*
X68714000Y-69546000D03*
%TD*%
D12*
%TO.C,R10*%
X71990000Y-61138000D03*
X71990000Y-64238000D03*
%TD*%
%TO.C,R11*%
X69450000Y-61138000D03*
X69450000Y-64238000D03*
%TD*%
D13*
%TO.C,R12*%
X71990000Y-72112000D03*
X71990000Y-69012000D03*
%TD*%
%TO.C,R13*%
X74530000Y-72112000D03*
X74530000Y-69012000D03*
%TD*%
%TO.C,R14*%
X77070000Y-72112000D03*
X77070000Y-69012000D03*
%TD*%
D12*
%TO.C,R15*%
X77070000Y-61138000D03*
X77070000Y-64238000D03*
%TD*%
%TO.C,R16*%
X74530000Y-61138000D03*
X74530000Y-64238000D03*
%TD*%
D14*
%TO.C,R17*%
X63328000Y-44400000D03*
X66428000Y-44400000D03*
%TD*%
D15*
%TO.C,U2*%
X80437000Y-38685000D03*
X80437000Y-39955000D03*
X80437000Y-41225000D03*
X80437000Y-42495000D03*
X80437000Y-43765000D03*
X80437000Y-45035000D03*
X80437000Y-46305000D03*
X80437000Y-47575000D03*
X85387000Y-47575000D03*
X85387000Y-46305000D03*
X85387000Y-45035000D03*
X85387000Y-43765000D03*
X85387000Y-42495000D03*
X85387000Y-41225000D03*
X85387000Y-39955000D03*
X85387000Y-38685000D03*
%TD*%
%TO.C,U3*%
X80372000Y-63958000D03*
X80372000Y-65228000D03*
X80372000Y-66498000D03*
X80372000Y-67768000D03*
X80372000Y-69038000D03*
X80372000Y-70308000D03*
X80372000Y-71578000D03*
X80372000Y-72848000D03*
X85322000Y-72848000D03*
X85322000Y-71578000D03*
X85322000Y-70308000D03*
X85322000Y-69038000D03*
X85322000Y-67768000D03*
X85322000Y-66498000D03*
X85322000Y-65228000D03*
X85322000Y-63958000D03*
%TD*%
D13*
%TO.C,R4*%
X71990000Y-46966000D03*
X71990000Y-43866000D03*
%TD*%
D16*
%TO.C,J1*%
X48114000Y-33478000D03*
D17*
X48114000Y-36018000D03*
%TD*%
D18*
%TO.C,R1*%
X50934000Y-61418000D03*
X47834000Y-61418000D03*
%TD*%
D16*
%TO.C,SW1*%
X48114000Y-53793000D03*
D17*
X48114000Y-56333000D03*
%TD*%
D16*
%TO.C,J6*%
X48114000Y-41098000D03*
D17*
X48114000Y-43638000D03*
X48114000Y-46178000D03*
X48114000Y-48718000D03*
%TD*%
D18*
%TO.C,R19*%
X68714000Y-67260000D03*
X65614000Y-67260000D03*
%TD*%
%TO.C,R18*%
X66428000Y-42114000D03*
X63328000Y-42114000D03*
%TD*%
D13*
%TO.C,R20*%
X51162000Y-43903000D03*
X51162000Y-40803000D03*
%TD*%
D19*
%TO.C,C4*%
X51162000Y-33564500D03*
X51162000Y-36439500D03*
%TD*%
D20*
%TO.C,C2*%
X84349500Y-36526000D03*
X81474500Y-36526000D03*
%TD*%
%TO.C,C3*%
X84349500Y-61926000D03*
X81474500Y-61926000D03*
%TD*%
D21*
%TO.C,C1*%
X53280500Y-61418000D03*
X56155500Y-61418000D03*
%TD*%
D22*
%TO.C,U1*%
X47432000Y-63958000D03*
X47432000Y-66498000D03*
X47432000Y-69038000D03*
X47432000Y-71578000D03*
X57432000Y-71578000D03*
X57432000Y-69038000D03*
X57432000Y-66498000D03*
X57432000Y-63958000D03*
%TD*%
D23*
%TO.C,U4*%
X77070000Y-74245000D03*
D24*
X74530000Y-74245000D03*
X71990000Y-74245000D03*
X69450000Y-74245000D03*
X66910000Y-74245000D03*
X64370000Y-74245000D03*
X61830000Y-74245000D03*
X59290000Y-74245000D03*
X56750000Y-74245000D03*
X56750000Y-59005000D03*
X59290000Y-59005000D03*
X61830000Y-59005000D03*
X64370000Y-59005000D03*
X66910000Y-59005000D03*
X69450000Y-59005000D03*
X71990000Y-59005000D03*
X74530000Y-59005000D03*
X77070000Y-59005000D03*
%TD*%
D23*
%TO.C,U5*%
X77070000Y-49099000D03*
D24*
X74530000Y-49099000D03*
X71990000Y-49099000D03*
X69450000Y-49099000D03*
X66910000Y-49099000D03*
X64370000Y-49099000D03*
X61830000Y-49099000D03*
X59290000Y-49099000D03*
X56750000Y-49099000D03*
X56750000Y-33859000D03*
X59290000Y-33859000D03*
X61830000Y-33859000D03*
X64370000Y-33859000D03*
X66910000Y-33859000D03*
X69450000Y-33859000D03*
X71990000Y-33859000D03*
X74530000Y-33859000D03*
X77070000Y-33859000D03*
%TD*%
M02*
