M48
; DRILL file {KiCad (6.0.9)} date Sat Dec 10 14:47:02 2022
; FORMAT={-:-/ absolute / metric / decimal}
; #@! TF.CreationDate,2022-12-10T14:47:02+01:00
; #@! TF.GenerationSoftware,Kicad,Pcbnew,(6.0.9)
; #@! TF.FileFunction,Plated,1,2,PTH
FMAT,2
METRIC
; #@! TA.AperFunction,Plated,PTH,ViaDrill
T1C0.300
; #@! TA.AperFunction,Plated,PTH,ComponentDrill
T2C1.000
; #@! TA.AperFunction,Plated,PTH,ViaDrill
T3C3.000
%
G90
G05
T1
X47.098Y-29.16
X47.098Y-31.7
X47.098Y-36.78
X47.098Y-39.32
X49.638Y-29.16
X49.638Y-31.7
X49.638Y-36.78
X49.638Y-39.32
X49.638Y-44.4
X49.638Y-46.94
X49.638Y-49.48
X49.638Y-57.1
X49.638Y-59.64
X49.638Y-67.26
X49.638Y-69.8
X49.638Y-72.34
X52.178Y-29.16
X52.178Y-39.32
X52.178Y-46.94
X52.178Y-49.48
X52.178Y-52.02
X52.178Y-54.56
X52.178Y-57.1
X52.178Y-59.64
X52.178Y-64.72
X52.178Y-67.26
X52.178Y-69.8
X52.178Y-72.34
X52.178Y-74.88
X52.178Y-77.42
X54.718Y-29.16
X54.718Y-31.7
X54.718Y-34.24
X54.718Y-36.78
X54.718Y-39.32
X54.718Y-41.86
X54.718Y-44.4
X54.718Y-67.26
X54.718Y-77.42
X57.258Y-29.16
X57.258Y-31.7
X57.258Y-36.78
X57.258Y-39.32
X57.258Y-41.86
X57.258Y-44.4
X57.258Y-52.02
X57.258Y-54.56
X57.258Y-57.1
X57.258Y-62.18
X59.798Y-29.16
X59.798Y-31.7
X59.798Y-36.78
X59.798Y-39.32
X59.798Y-41.86
X59.798Y-44.4
X59.798Y-52.02
X59.798Y-54.56
X59.798Y-57.1
X59.798Y-62.18
X60.814Y-44.908
X60.814Y-47.448
X61.83Y-44.908
X61.83Y-46.686
X62.338Y-29.16
X62.338Y-31.7
X62.338Y-36.78
X62.338Y-52.02
X62.338Y-54.56
X62.338Y-57.1
X62.338Y-62.18
X62.338Y-64.72
X62.338Y-67.26
X62.338Y-69.8
X64.878Y-29.16
X64.878Y-41.86
X64.878Y-44.4
X64.878Y-52.02
X64.878Y-54.56
X67.291Y-36.78
X67.291Y-39.32
X67.418Y-29.16
X67.418Y-52.02
X67.418Y-54.56
X67.418Y-67.26
X67.418Y-69.8
X69.958Y-29.16
X69.958Y-52.02
X69.958Y-54.56
X69.958Y-67.26
X72.498Y-29.16
X72.498Y-52.02
X72.498Y-54.56
X75.038Y-29.16
X75.038Y-52.02
X75.038Y-54.56
X77.578Y-29.16
X77.578Y-31.7
X77.578Y-52.02
X77.578Y-54.56
X77.578Y-57.1
X80.118Y-29.16
X80.118Y-31.7
X80.118Y-34.24
X80.118Y-36.78
X80.118Y-49.48
X80.118Y-52.02
X80.118Y-54.56
X80.118Y-57.1
X80.118Y-59.64
X80.118Y-62.18
X80.118Y-72.34
X80.118Y-74.88
X80.88Y-60.148
X81.642Y-60.148
X81.646Y-65.739
X82.404Y-60.148
X82.404Y-65.736
X82.412Y-64.453
X82.658Y-29.16
X82.658Y-34.24
X82.658Y-36.78
X82.658Y-77.42
X83.153Y-65.749
X83.166Y-60.148
X83.928Y-42.622
X83.928Y-66.498
X83.928Y-67.768
X83.938Y-60.158
X85.198Y-34.24
X85.198Y-49.48
X85.198Y-52.02
X85.198Y-54.56
X85.198Y-57.1
X85.198Y-59.64
X85.198Y-74.88
X85.198Y-77.42
T2
X48.114Y-33.478
X48.114Y-36.018
X48.114Y-41.098
X48.114Y-43.638
X48.114Y-46.178
X48.114Y-48.718
X48.114Y-53.793
X48.114Y-56.333
X56.75Y-33.859
X56.75Y-49.099
X56.75Y-59.005
X56.75Y-74.245
X59.29Y-33.859
X59.29Y-49.099
X59.29Y-59.005
X59.29Y-74.245
X61.83Y-33.859
X61.83Y-49.099
X61.83Y-59.005
X61.83Y-74.245
X64.37Y-33.859
X64.37Y-49.099
X64.37Y-59.005
X64.37Y-74.245
X66.91Y-33.859
X66.91Y-49.099
X66.91Y-59.005
X66.91Y-74.245
X69.45Y-33.859
X69.45Y-49.099
X69.45Y-59.005
X69.45Y-74.245
X71.99Y-33.859
X71.99Y-49.099
X71.99Y-59.005
X71.99Y-74.245
X74.53Y-33.859
X74.53Y-49.099
X74.53Y-59.005
X74.53Y-74.245
X77.07Y-33.859
X77.07Y-49.099
X77.07Y-59.005
X77.07Y-74.245
T3
X48.368Y-76.658
X85.198Y-30.684
T0
M30
