%TF.GenerationSoftware,KiCad,Pcbnew,(6.0.9)*%
%TF.CreationDate,2022-12-10T14:47:00+01:00*%
%TF.ProjectId,Hygrometer_SMD_doubleSided,48796772-6f6d-4657-9465-725f534d445f,rev?*%
%TF.SameCoordinates,Original*%
%TF.FileFunction,Legend,Top*%
%TF.FilePolarity,Positive*%
%FSLAX46Y46*%
G04 Gerber Fmt 4.6, Leading zero omitted, Abs format (unit mm)*
G04 Created by KiCad (PCBNEW (6.0.9)) date 2022-12-10 14:47:00*
%MOMM*%
%LPD*%
G01*
G04 APERTURE LIST*
G04 Aperture macros list*
%AMRoundRect*
0 Rectangle with rounded corners*
0 $1 Rounding radius*
0 $2 $3 $4 $5 $6 $7 $8 $9 X,Y pos of 4 corners*
0 Add a 4 corners polygon primitive as box body*
4,1,4,$2,$3,$4,$5,$6,$7,$8,$9,$2,$3,0*
0 Add four circle primitives for the rounded corners*
1,1,$1+$1,$2,$3*
1,1,$1+$1,$4,$5*
1,1,$1+$1,$6,$7*
1,1,$1+$1,$8,$9*
0 Add four rect primitives between the rounded corners*
20,1,$1+$1,$2,$3,$4,$5,0*
20,1,$1+$1,$4,$5,$6,$7,0*
20,1,$1+$1,$6,$7,$8,$9,0*
20,1,$1+$1,$8,$9,$2,$3,0*%
G04 Aperture macros list end*
%ADD10C,0.139700*%
%ADD11C,0.150000*%
%ADD12C,0.127000*%
%ADD13C,0.120000*%
%ADD14R,1.000000X0.700000*%
%ADD15R,0.700000X1.000000*%
%ADD16RoundRect,0.250000X-0.625000X0.400000X-0.625000X-0.400000X0.625000X-0.400000X0.625000X0.400000X0*%
%ADD17RoundRect,0.250000X0.625000X-0.400000X0.625000X0.400000X-0.625000X0.400000X-0.625000X-0.400000X0*%
%ADD18RoundRect,0.250000X-0.400000X-0.625000X0.400000X-0.625000X0.400000X0.625000X-0.400000X0.625000X0*%
%ADD19RoundRect,0.150000X-0.825000X-0.150000X0.825000X-0.150000X0.825000X0.150000X-0.825000X0.150000X0*%
%ADD20R,1.700000X1.700000*%
%ADD21O,1.700000X1.700000*%
%ADD22RoundRect,0.250000X0.400000X0.625000X-0.400000X0.625000X-0.400000X-0.625000X0.400000X-0.625000X0*%
%ADD23RoundRect,0.250000X-0.425000X0.537500X-0.425000X-0.537500X0.425000X-0.537500X0.425000X0.537500X0*%
%ADD24RoundRect,0.250000X0.537500X0.425000X-0.537500X0.425000X-0.537500X-0.425000X0.537500X-0.425000X0*%
%ADD25RoundRect,0.250000X-0.537500X-0.425000X0.537500X-0.425000X0.537500X0.425000X-0.537500X0.425000X0*%
%ADD26O,2.999999X1.200000*%
%ADD27R,1.500000X1.500000*%
%ADD28C,1.500000*%
G04 APERTURE END LIST*
D10*
X45087166Y-56676666D02*
X45976166Y-56465000D01*
X45341166Y-56295666D01*
X45976166Y-56126333D01*
X45087166Y-55914666D01*
X45722166Y-55618333D02*
X45722166Y-55195000D01*
X45976166Y-55703000D02*
X45087166Y-55406666D01*
X45976166Y-55110333D01*
X45976166Y-54814000D02*
X45087166Y-54814000D01*
X45976166Y-54306000D02*
X45468166Y-54687000D01*
X45087166Y-54306000D02*
X45595166Y-54814000D01*
X45510500Y-53925000D02*
X45510500Y-53628666D01*
X45976166Y-53501666D02*
X45976166Y-53925000D01*
X45087166Y-53925000D01*
X45087166Y-53501666D01*
X45976166Y-35933333D02*
X45087166Y-35933333D01*
X45087166Y-35594666D01*
X45129500Y-35510000D01*
X45171833Y-35467666D01*
X45256500Y-35425333D01*
X45383500Y-35425333D01*
X45468166Y-35467666D01*
X45510500Y-35510000D01*
X45552833Y-35594666D01*
X45552833Y-35933333D01*
X45087166Y-35129000D02*
X45976166Y-34917333D01*
X45341166Y-34748000D01*
X45976166Y-34578666D01*
X45087166Y-34367000D01*
X45976166Y-33520333D02*
X45552833Y-33816666D01*
X45976166Y-34028333D02*
X45087166Y-34028333D01*
X45087166Y-33689666D01*
X45129500Y-33605000D01*
X45171833Y-33562666D01*
X45256500Y-33520333D01*
X45383500Y-33520333D01*
X45468166Y-33562666D01*
X45510500Y-33605000D01*
X45552833Y-33689666D01*
X45552833Y-34028333D01*
X45976166Y-46791833D02*
X45087166Y-46791833D01*
X45087166Y-46580166D01*
X45129500Y-46453166D01*
X45214166Y-46368500D01*
X45298833Y-46326166D01*
X45468166Y-46283833D01*
X45595166Y-46283833D01*
X45764500Y-46326166D01*
X45849166Y-46368500D01*
X45933833Y-46453166D01*
X45976166Y-46580166D01*
X45976166Y-46791833D01*
X45976166Y-45902833D02*
X45087166Y-45902833D01*
X45510500Y-45902833D02*
X45510500Y-45394833D01*
X45976166Y-45394833D02*
X45087166Y-45394833D01*
X45087166Y-45098500D02*
X45087166Y-44590500D01*
X45976166Y-44844500D02*
X45087166Y-44844500D01*
X45976166Y-43828500D02*
X45976166Y-44336500D01*
X45976166Y-44082500D02*
X45087166Y-44082500D01*
X45214166Y-44167166D01*
X45298833Y-44251833D01*
X45341166Y-44336500D01*
X45976166Y-42981833D02*
X45976166Y-43489833D01*
X45976166Y-43235833D02*
X45087166Y-43235833D01*
X45214166Y-43320500D01*
X45298833Y-43405166D01*
X45341166Y-43489833D01*
D11*
%TO.C,Q2*%
X64655761Y-40716619D02*
X64560523Y-40669000D01*
X64465285Y-40573761D01*
X64322428Y-40430904D01*
X64227190Y-40383285D01*
X64131952Y-40383285D01*
X64179571Y-40621380D02*
X64084333Y-40573761D01*
X63989095Y-40478523D01*
X63941476Y-40288047D01*
X63941476Y-39954714D01*
X63989095Y-39764238D01*
X64084333Y-39669000D01*
X64179571Y-39621380D01*
X64370047Y-39621380D01*
X64465285Y-39669000D01*
X64560523Y-39764238D01*
X64608142Y-39954714D01*
X64608142Y-40288047D01*
X64560523Y-40478523D01*
X64465285Y-40573761D01*
X64370047Y-40621380D01*
X64179571Y-40621380D01*
X64989095Y-39716619D02*
X65036714Y-39669000D01*
X65131952Y-39621380D01*
X65370047Y-39621380D01*
X65465285Y-39669000D01*
X65512904Y-39716619D01*
X65560523Y-39811857D01*
X65560523Y-39907095D01*
X65512904Y-40049952D01*
X64941476Y-40621380D01*
X65560523Y-40621380D01*
%TO.C,Q1*%
X66306761Y-65902619D02*
X66211523Y-65855000D01*
X66116285Y-65759761D01*
X65973428Y-65616904D01*
X65878190Y-65569285D01*
X65782952Y-65569285D01*
X65830571Y-65807380D02*
X65735333Y-65759761D01*
X65640095Y-65664523D01*
X65592476Y-65474047D01*
X65592476Y-65140714D01*
X65640095Y-64950238D01*
X65735333Y-64855000D01*
X65830571Y-64807380D01*
X66021047Y-64807380D01*
X66116285Y-64855000D01*
X66211523Y-64950238D01*
X66259142Y-65140714D01*
X66259142Y-65474047D01*
X66211523Y-65664523D01*
X66116285Y-65759761D01*
X66021047Y-65807380D01*
X65830571Y-65807380D01*
X67211523Y-65807380D02*
X66640095Y-65807380D01*
X66925809Y-65807380D02*
X66925809Y-64807380D01*
X66830571Y-64950238D01*
X66735333Y-65045476D01*
X66640095Y-65093095D01*
D12*
%TO.C,R2*%
X71884166Y-40877261D02*
X71672500Y-40574880D01*
X71521309Y-40877261D02*
X71521309Y-40242261D01*
X71763214Y-40242261D01*
X71823690Y-40272500D01*
X71853928Y-40302738D01*
X71884166Y-40363214D01*
X71884166Y-40453928D01*
X71853928Y-40514404D01*
X71823690Y-40544642D01*
X71763214Y-40574880D01*
X71521309Y-40574880D01*
X72126071Y-40302738D02*
X72156309Y-40272500D01*
X72216785Y-40242261D01*
X72367976Y-40242261D01*
X72428452Y-40272500D01*
X72458690Y-40302738D01*
X72488928Y-40363214D01*
X72488928Y-40423690D01*
X72458690Y-40514404D01*
X72095833Y-40877261D01*
X72488928Y-40877261D01*
%TO.C,R3*%
X69344166Y-40877261D02*
X69132500Y-40574880D01*
X68981309Y-40877261D02*
X68981309Y-40242261D01*
X69223214Y-40242261D01*
X69283690Y-40272500D01*
X69313928Y-40302738D01*
X69344166Y-40363214D01*
X69344166Y-40453928D01*
X69313928Y-40514404D01*
X69283690Y-40544642D01*
X69223214Y-40574880D01*
X68981309Y-40574880D01*
X69555833Y-40242261D02*
X69948928Y-40242261D01*
X69737261Y-40484166D01*
X69827976Y-40484166D01*
X69888452Y-40514404D01*
X69918690Y-40544642D01*
X69948928Y-40605119D01*
X69948928Y-40756309D01*
X69918690Y-40816785D01*
X69888452Y-40847023D01*
X69827976Y-40877261D01*
X69646547Y-40877261D01*
X69586071Y-40847023D01*
X69555833Y-40816785D01*
%TO.C,R5*%
X74424166Y-42655261D02*
X74212500Y-42352880D01*
X74061309Y-42655261D02*
X74061309Y-42020261D01*
X74303214Y-42020261D01*
X74363690Y-42050500D01*
X74393928Y-42080738D01*
X74424166Y-42141214D01*
X74424166Y-42231928D01*
X74393928Y-42292404D01*
X74363690Y-42322642D01*
X74303214Y-42352880D01*
X74061309Y-42352880D01*
X74998690Y-42020261D02*
X74696309Y-42020261D01*
X74666071Y-42322642D01*
X74696309Y-42292404D01*
X74756785Y-42262166D01*
X74907976Y-42262166D01*
X74968452Y-42292404D01*
X74998690Y-42322642D01*
X75028928Y-42383119D01*
X75028928Y-42534309D01*
X74998690Y-42594785D01*
X74968452Y-42625023D01*
X74907976Y-42655261D01*
X74756785Y-42655261D01*
X74696309Y-42625023D01*
X74666071Y-42594785D01*
%TO.C,R6*%
X77218166Y-42655261D02*
X77006500Y-42352880D01*
X76855309Y-42655261D02*
X76855309Y-42020261D01*
X77097214Y-42020261D01*
X77157690Y-42050500D01*
X77187928Y-42080738D01*
X77218166Y-42141214D01*
X77218166Y-42231928D01*
X77187928Y-42292404D01*
X77157690Y-42322642D01*
X77097214Y-42352880D01*
X76855309Y-42352880D01*
X77762452Y-42020261D02*
X77641500Y-42020261D01*
X77581023Y-42050500D01*
X77550785Y-42080738D01*
X77490309Y-42171452D01*
X77460071Y-42292404D01*
X77460071Y-42534309D01*
X77490309Y-42594785D01*
X77520547Y-42625023D01*
X77581023Y-42655261D01*
X77701976Y-42655261D01*
X77762452Y-42625023D01*
X77792690Y-42594785D01*
X77822928Y-42534309D01*
X77822928Y-42383119D01*
X77792690Y-42322642D01*
X77762452Y-42292404D01*
X77701976Y-42262166D01*
X77581023Y-42262166D01*
X77520547Y-42292404D01*
X77490309Y-42322642D01*
X77460071Y-42383119D01*
%TO.C,R7*%
X76964166Y-40877261D02*
X76752500Y-40574880D01*
X76601309Y-40877261D02*
X76601309Y-40242261D01*
X76843214Y-40242261D01*
X76903690Y-40272500D01*
X76933928Y-40302738D01*
X76964166Y-40363214D01*
X76964166Y-40453928D01*
X76933928Y-40514404D01*
X76903690Y-40544642D01*
X76843214Y-40574880D01*
X76601309Y-40574880D01*
X77175833Y-40242261D02*
X77599166Y-40242261D01*
X77327023Y-40877261D01*
%TO.C,R8*%
X74424166Y-40877261D02*
X74212500Y-40574880D01*
X74061309Y-40877261D02*
X74061309Y-40242261D01*
X74303214Y-40242261D01*
X74363690Y-40272500D01*
X74393928Y-40302738D01*
X74424166Y-40363214D01*
X74424166Y-40453928D01*
X74393928Y-40514404D01*
X74363690Y-40544642D01*
X74303214Y-40574880D01*
X74061309Y-40574880D01*
X74787023Y-40514404D02*
X74726547Y-40484166D01*
X74696309Y-40453928D01*
X74666071Y-40393452D01*
X74666071Y-40363214D01*
X74696309Y-40302738D01*
X74726547Y-40272500D01*
X74787023Y-40242261D01*
X74907976Y-40242261D01*
X74968452Y-40272500D01*
X74998690Y-40302738D01*
X75028928Y-40363214D01*
X75028928Y-40393452D01*
X74998690Y-40453928D01*
X74968452Y-40484166D01*
X74907976Y-40514404D01*
X74787023Y-40514404D01*
X74726547Y-40544642D01*
X74696309Y-40574880D01*
X74666071Y-40635357D01*
X74666071Y-40756309D01*
X74696309Y-40816785D01*
X74726547Y-40847023D01*
X74787023Y-40877261D01*
X74907976Y-40877261D01*
X74968452Y-40847023D01*
X74998690Y-40816785D01*
X75028928Y-40756309D01*
X75028928Y-40635357D01*
X74998690Y-40574880D01*
X74968452Y-40544642D01*
X74907976Y-40514404D01*
%TO.C,R9*%
X64403261Y-69651833D02*
X64100880Y-69863500D01*
X64403261Y-70014690D02*
X63768261Y-70014690D01*
X63768261Y-69772785D01*
X63798500Y-69712309D01*
X63828738Y-69682071D01*
X63889214Y-69651833D01*
X63979928Y-69651833D01*
X64040404Y-69682071D01*
X64070642Y-69712309D01*
X64100880Y-69772785D01*
X64100880Y-70014690D01*
X64403261Y-69349452D02*
X64403261Y-69228500D01*
X64373023Y-69168023D01*
X64342785Y-69137785D01*
X64252071Y-69077309D01*
X64131119Y-69047071D01*
X63889214Y-69047071D01*
X63828738Y-69077309D01*
X63798500Y-69107547D01*
X63768261Y-69168023D01*
X63768261Y-69288976D01*
X63798500Y-69349452D01*
X63828738Y-69379690D01*
X63889214Y-69409928D01*
X64040404Y-69409928D01*
X64100880Y-69379690D01*
X64131119Y-69349452D01*
X64161357Y-69288976D01*
X64161357Y-69168023D01*
X64131119Y-69107547D01*
X64100880Y-69077309D01*
X64040404Y-69047071D01*
%TO.C,R10*%
X71581785Y-66023261D02*
X71370119Y-65720880D01*
X71218928Y-66023261D02*
X71218928Y-65388261D01*
X71460833Y-65388261D01*
X71521309Y-65418500D01*
X71551547Y-65448738D01*
X71581785Y-65509214D01*
X71581785Y-65599928D01*
X71551547Y-65660404D01*
X71521309Y-65690642D01*
X71460833Y-65720880D01*
X71218928Y-65720880D01*
X72186547Y-66023261D02*
X71823690Y-66023261D01*
X72005119Y-66023261D02*
X72005119Y-65388261D01*
X71944642Y-65478976D01*
X71884166Y-65539452D01*
X71823690Y-65569690D01*
X72579642Y-65388261D02*
X72640119Y-65388261D01*
X72700595Y-65418500D01*
X72730833Y-65448738D01*
X72761071Y-65509214D01*
X72791309Y-65630166D01*
X72791309Y-65781357D01*
X72761071Y-65902309D01*
X72730833Y-65962785D01*
X72700595Y-65993023D01*
X72640119Y-66023261D01*
X72579642Y-66023261D01*
X72519166Y-65993023D01*
X72488928Y-65962785D01*
X72458690Y-65902309D01*
X72428452Y-65781357D01*
X72428452Y-65630166D01*
X72458690Y-65509214D01*
X72488928Y-65448738D01*
X72519166Y-65418500D01*
X72579642Y-65388261D01*
%TO.C,R11*%
X69041785Y-66023261D02*
X68830119Y-65720880D01*
X68678928Y-66023261D02*
X68678928Y-65388261D01*
X68920833Y-65388261D01*
X68981309Y-65418500D01*
X69011547Y-65448738D01*
X69041785Y-65509214D01*
X69041785Y-65599928D01*
X69011547Y-65660404D01*
X68981309Y-65690642D01*
X68920833Y-65720880D01*
X68678928Y-65720880D01*
X69646547Y-66023261D02*
X69283690Y-66023261D01*
X69465119Y-66023261D02*
X69465119Y-65388261D01*
X69404642Y-65478976D01*
X69344166Y-65539452D01*
X69283690Y-65569690D01*
X70251309Y-66023261D02*
X69888452Y-66023261D01*
X70069880Y-66023261D02*
X70069880Y-65388261D01*
X70009404Y-65478976D01*
X69948928Y-65539452D01*
X69888452Y-65569690D01*
%TO.C,R12*%
X71581785Y-67801261D02*
X71370119Y-67498880D01*
X71218928Y-67801261D02*
X71218928Y-67166261D01*
X71460833Y-67166261D01*
X71521309Y-67196500D01*
X71551547Y-67226738D01*
X71581785Y-67287214D01*
X71581785Y-67377928D01*
X71551547Y-67438404D01*
X71521309Y-67468642D01*
X71460833Y-67498880D01*
X71218928Y-67498880D01*
X72186547Y-67801261D02*
X71823690Y-67801261D01*
X72005119Y-67801261D02*
X72005119Y-67166261D01*
X71944642Y-67256976D01*
X71884166Y-67317452D01*
X71823690Y-67347690D01*
X72428452Y-67226738D02*
X72458690Y-67196500D01*
X72519166Y-67166261D01*
X72670357Y-67166261D01*
X72730833Y-67196500D01*
X72761071Y-67226738D01*
X72791309Y-67287214D01*
X72791309Y-67347690D01*
X72761071Y-67438404D01*
X72398214Y-67801261D01*
X72791309Y-67801261D01*
%TO.C,R13*%
X74121785Y-67801261D02*
X73910119Y-67498880D01*
X73758928Y-67801261D02*
X73758928Y-67166261D01*
X74000833Y-67166261D01*
X74061309Y-67196500D01*
X74091547Y-67226738D01*
X74121785Y-67287214D01*
X74121785Y-67377928D01*
X74091547Y-67438404D01*
X74061309Y-67468642D01*
X74000833Y-67498880D01*
X73758928Y-67498880D01*
X74726547Y-67801261D02*
X74363690Y-67801261D01*
X74545119Y-67801261D02*
X74545119Y-67166261D01*
X74484642Y-67256976D01*
X74424166Y-67317452D01*
X74363690Y-67347690D01*
X74938214Y-67166261D02*
X75331309Y-67166261D01*
X75119642Y-67408166D01*
X75210357Y-67408166D01*
X75270833Y-67438404D01*
X75301071Y-67468642D01*
X75331309Y-67529119D01*
X75331309Y-67680309D01*
X75301071Y-67740785D01*
X75270833Y-67771023D01*
X75210357Y-67801261D01*
X75028928Y-67801261D01*
X74968452Y-67771023D01*
X74938214Y-67740785D01*
%TO.C,R14*%
X76661785Y-67801261D02*
X76450119Y-67498880D01*
X76298928Y-67801261D02*
X76298928Y-67166261D01*
X76540833Y-67166261D01*
X76601309Y-67196500D01*
X76631547Y-67226738D01*
X76661785Y-67287214D01*
X76661785Y-67377928D01*
X76631547Y-67438404D01*
X76601309Y-67468642D01*
X76540833Y-67498880D01*
X76298928Y-67498880D01*
X77266547Y-67801261D02*
X76903690Y-67801261D01*
X77085119Y-67801261D02*
X77085119Y-67166261D01*
X77024642Y-67256976D01*
X76964166Y-67317452D01*
X76903690Y-67347690D01*
X77810833Y-67377928D02*
X77810833Y-67801261D01*
X77659642Y-67136023D02*
X77508452Y-67589595D01*
X77901547Y-67589595D01*
%TO.C,R15*%
X76661785Y-66023261D02*
X76450119Y-65720880D01*
X76298928Y-66023261D02*
X76298928Y-65388261D01*
X76540833Y-65388261D01*
X76601309Y-65418500D01*
X76631547Y-65448738D01*
X76661785Y-65509214D01*
X76661785Y-65599928D01*
X76631547Y-65660404D01*
X76601309Y-65690642D01*
X76540833Y-65720880D01*
X76298928Y-65720880D01*
X77266547Y-66023261D02*
X76903690Y-66023261D01*
X77085119Y-66023261D02*
X77085119Y-65388261D01*
X77024642Y-65478976D01*
X76964166Y-65539452D01*
X76903690Y-65569690D01*
X77841071Y-65388261D02*
X77538690Y-65388261D01*
X77508452Y-65690642D01*
X77538690Y-65660404D01*
X77599166Y-65630166D01*
X77750357Y-65630166D01*
X77810833Y-65660404D01*
X77841071Y-65690642D01*
X77871309Y-65751119D01*
X77871309Y-65902309D01*
X77841071Y-65962785D01*
X77810833Y-65993023D01*
X77750357Y-66023261D01*
X77599166Y-66023261D01*
X77538690Y-65993023D01*
X77508452Y-65962785D01*
%TO.C,R16*%
X74121785Y-66023261D02*
X73910119Y-65720880D01*
X73758928Y-66023261D02*
X73758928Y-65388261D01*
X74000833Y-65388261D01*
X74061309Y-65418500D01*
X74091547Y-65448738D01*
X74121785Y-65509214D01*
X74121785Y-65599928D01*
X74091547Y-65660404D01*
X74061309Y-65690642D01*
X74000833Y-65720880D01*
X73758928Y-65720880D01*
X74726547Y-66023261D02*
X74363690Y-66023261D01*
X74545119Y-66023261D02*
X74545119Y-65388261D01*
X74484642Y-65478976D01*
X74424166Y-65539452D01*
X74363690Y-65569690D01*
X75270833Y-65388261D02*
X75149880Y-65388261D01*
X75089404Y-65418500D01*
X75059166Y-65448738D01*
X74998690Y-65539452D01*
X74968452Y-65660404D01*
X74968452Y-65902309D01*
X74998690Y-65962785D01*
X75028928Y-65993023D01*
X75089404Y-66023261D01*
X75210357Y-66023261D01*
X75270833Y-65993023D01*
X75301071Y-65962785D01*
X75331309Y-65902309D01*
X75331309Y-65751119D01*
X75301071Y-65690642D01*
X75270833Y-65660404D01*
X75210357Y-65630166D01*
X75089404Y-65630166D01*
X75028928Y-65660404D01*
X74998690Y-65690642D01*
X74968452Y-65751119D01*
%TO.C,R17*%
X68213261Y-44808214D02*
X67910880Y-45019880D01*
X68213261Y-45171071D02*
X67578261Y-45171071D01*
X67578261Y-44929166D01*
X67608500Y-44868690D01*
X67638738Y-44838452D01*
X67699214Y-44808214D01*
X67789928Y-44808214D01*
X67850404Y-44838452D01*
X67880642Y-44868690D01*
X67910880Y-44929166D01*
X67910880Y-45171071D01*
X68213261Y-44203452D02*
X68213261Y-44566309D01*
X68213261Y-44384880D02*
X67578261Y-44384880D01*
X67668976Y-44445357D01*
X67729452Y-44505833D01*
X67759690Y-44566309D01*
X67578261Y-43991785D02*
X67578261Y-43568452D01*
X68213261Y-43840595D01*
%TO.C,U2*%
X85476190Y-48370261D02*
X85476190Y-48884309D01*
X85506428Y-48944785D01*
X85536666Y-48975023D01*
X85597142Y-49005261D01*
X85718095Y-49005261D01*
X85778571Y-48975023D01*
X85808809Y-48944785D01*
X85839047Y-48884309D01*
X85839047Y-48370261D01*
X86111190Y-48430738D02*
X86141428Y-48400500D01*
X86201904Y-48370261D01*
X86353095Y-48370261D01*
X86413571Y-48400500D01*
X86443809Y-48430738D01*
X86474047Y-48491214D01*
X86474047Y-48551690D01*
X86443809Y-48642404D01*
X86080952Y-49005261D01*
X86474047Y-49005261D01*
%TO.C,U3*%
X85476190Y-73770261D02*
X85476190Y-74284309D01*
X85506428Y-74344785D01*
X85536666Y-74375023D01*
X85597142Y-74405261D01*
X85718095Y-74405261D01*
X85778571Y-74375023D01*
X85808809Y-74344785D01*
X85839047Y-74284309D01*
X85839047Y-73770261D01*
X86080952Y-73770261D02*
X86474047Y-73770261D01*
X86262380Y-74012166D01*
X86353095Y-74012166D01*
X86413571Y-74042404D01*
X86443809Y-74072642D01*
X86474047Y-74133119D01*
X86474047Y-74284309D01*
X86443809Y-74344785D01*
X86413571Y-74375023D01*
X86353095Y-74405261D01*
X86171666Y-74405261D01*
X86111190Y-74375023D01*
X86080952Y-74344785D01*
%TO.C,R4*%
X71884166Y-42655261D02*
X71672500Y-42352880D01*
X71521309Y-42655261D02*
X71521309Y-42020261D01*
X71763214Y-42020261D01*
X71823690Y-42050500D01*
X71853928Y-42080738D01*
X71884166Y-42141214D01*
X71884166Y-42231928D01*
X71853928Y-42292404D01*
X71823690Y-42322642D01*
X71763214Y-42352880D01*
X71521309Y-42352880D01*
X72428452Y-42231928D02*
X72428452Y-42655261D01*
X72277261Y-41990023D02*
X72126071Y-42443595D01*
X72519166Y-42443595D01*
%TO.C,J1*%
X47902333Y-31098261D02*
X47902333Y-31551833D01*
X47872095Y-31642547D01*
X47811619Y-31703023D01*
X47720904Y-31733261D01*
X47660428Y-31733261D01*
X48537333Y-31733261D02*
X48174476Y-31733261D01*
X48355904Y-31733261D02*
X48355904Y-31098261D01*
X48295428Y-31188976D01*
X48234952Y-31249452D01*
X48174476Y-31279690D01*
%TO.C,R1*%
X46623261Y-61523833D02*
X46320880Y-61735500D01*
X46623261Y-61886690D02*
X45988261Y-61886690D01*
X45988261Y-61644785D01*
X46018500Y-61584309D01*
X46048738Y-61554071D01*
X46109214Y-61523833D01*
X46199928Y-61523833D01*
X46260404Y-61554071D01*
X46290642Y-61584309D01*
X46320880Y-61644785D01*
X46320880Y-61886690D01*
X46623261Y-60919071D02*
X46623261Y-61281928D01*
X46623261Y-61100500D02*
X45988261Y-61100500D01*
X46078976Y-61160976D01*
X46139452Y-61221452D01*
X46169690Y-61281928D01*
%TO.C,SW1*%
X47267333Y-52023023D02*
X47358047Y-52053261D01*
X47509238Y-52053261D01*
X47569714Y-52023023D01*
X47599952Y-51992785D01*
X47630190Y-51932309D01*
X47630190Y-51871833D01*
X47599952Y-51811357D01*
X47569714Y-51781119D01*
X47509238Y-51750880D01*
X47388285Y-51720642D01*
X47327809Y-51690404D01*
X47297571Y-51660166D01*
X47267333Y-51599690D01*
X47267333Y-51539214D01*
X47297571Y-51478738D01*
X47327809Y-51448500D01*
X47388285Y-51418261D01*
X47539476Y-51418261D01*
X47630190Y-51448500D01*
X47841857Y-51418261D02*
X47993047Y-52053261D01*
X48114000Y-51599690D01*
X48234952Y-52053261D01*
X48386142Y-51418261D01*
X48960666Y-52053261D02*
X48597809Y-52053261D01*
X48779238Y-52053261D02*
X48779238Y-51418261D01*
X48718761Y-51508976D01*
X48658285Y-51569452D01*
X48597809Y-51599690D01*
%TO.C,J6*%
X47902333Y-38718261D02*
X47902333Y-39171833D01*
X47872095Y-39262547D01*
X47811619Y-39323023D01*
X47720904Y-39353261D01*
X47660428Y-39353261D01*
X48476857Y-38718261D02*
X48355904Y-38718261D01*
X48295428Y-38748500D01*
X48265190Y-38778738D01*
X48204714Y-38869452D01*
X48174476Y-38990404D01*
X48174476Y-39232309D01*
X48204714Y-39292785D01*
X48234952Y-39323023D01*
X48295428Y-39353261D01*
X48416380Y-39353261D01*
X48476857Y-39323023D01*
X48507095Y-39292785D01*
X48537333Y-39232309D01*
X48537333Y-39081119D01*
X48507095Y-39020642D01*
X48476857Y-38990404D01*
X48416380Y-38960166D01*
X48295428Y-38960166D01*
X48234952Y-38990404D01*
X48204714Y-39020642D01*
X48174476Y-39081119D01*
%TO.C,R19*%
X64403261Y-67668214D02*
X64100880Y-67879880D01*
X64403261Y-68031071D02*
X63768261Y-68031071D01*
X63768261Y-67789166D01*
X63798500Y-67728690D01*
X63828738Y-67698452D01*
X63889214Y-67668214D01*
X63979928Y-67668214D01*
X64040404Y-67698452D01*
X64070642Y-67728690D01*
X64100880Y-67789166D01*
X64100880Y-68031071D01*
X64403261Y-67063452D02*
X64403261Y-67426309D01*
X64403261Y-67244880D02*
X63768261Y-67244880D01*
X63858976Y-67305357D01*
X63919452Y-67365833D01*
X63949690Y-67426309D01*
X64403261Y-66761071D02*
X64403261Y-66640119D01*
X64373023Y-66579642D01*
X64342785Y-66549404D01*
X64252071Y-66488928D01*
X64131119Y-66458690D01*
X63889214Y-66458690D01*
X63828738Y-66488928D01*
X63798500Y-66519166D01*
X63768261Y-66579642D01*
X63768261Y-66700595D01*
X63798500Y-66761071D01*
X63828738Y-66791309D01*
X63889214Y-66821547D01*
X64040404Y-66821547D01*
X64100880Y-66791309D01*
X64131119Y-66761071D01*
X64161357Y-66700595D01*
X64161357Y-66579642D01*
X64131119Y-66519166D01*
X64100880Y-66488928D01*
X64040404Y-66458690D01*
%TO.C,R18*%
X68213261Y-42522214D02*
X67910880Y-42733880D01*
X68213261Y-42885071D02*
X67578261Y-42885071D01*
X67578261Y-42643166D01*
X67608500Y-42582690D01*
X67638738Y-42552452D01*
X67699214Y-42522214D01*
X67789928Y-42522214D01*
X67850404Y-42552452D01*
X67880642Y-42582690D01*
X67910880Y-42643166D01*
X67910880Y-42885071D01*
X68213261Y-41917452D02*
X68213261Y-42280309D01*
X68213261Y-42098880D02*
X67578261Y-42098880D01*
X67668976Y-42159357D01*
X67729452Y-42219833D01*
X67759690Y-42280309D01*
X67850404Y-41554595D02*
X67820166Y-41615071D01*
X67789928Y-41645309D01*
X67729452Y-41675547D01*
X67699214Y-41675547D01*
X67638738Y-41645309D01*
X67608500Y-41615071D01*
X67578261Y-41554595D01*
X67578261Y-41433642D01*
X67608500Y-41373166D01*
X67638738Y-41342928D01*
X67699214Y-41312690D01*
X67729452Y-41312690D01*
X67789928Y-41342928D01*
X67820166Y-41373166D01*
X67850404Y-41433642D01*
X67850404Y-41554595D01*
X67880642Y-41615071D01*
X67910880Y-41645309D01*
X67971357Y-41675547D01*
X68092309Y-41675547D01*
X68152785Y-41645309D01*
X68183023Y-41615071D01*
X68213261Y-41554595D01*
X68213261Y-41433642D01*
X68183023Y-41373166D01*
X68152785Y-41342928D01*
X68092309Y-41312690D01*
X67971357Y-41312690D01*
X67910880Y-41342928D01*
X67880642Y-41373166D01*
X67850404Y-41433642D01*
%TO.C,R20*%
X50753785Y-45703261D02*
X50542119Y-45400880D01*
X50390928Y-45703261D02*
X50390928Y-45068261D01*
X50632833Y-45068261D01*
X50693309Y-45098500D01*
X50723547Y-45128738D01*
X50753785Y-45189214D01*
X50753785Y-45279928D01*
X50723547Y-45340404D01*
X50693309Y-45370642D01*
X50632833Y-45400880D01*
X50390928Y-45400880D01*
X50995690Y-45128738D02*
X51025928Y-45098500D01*
X51086404Y-45068261D01*
X51237595Y-45068261D01*
X51298071Y-45098500D01*
X51328309Y-45128738D01*
X51358547Y-45189214D01*
X51358547Y-45249690D01*
X51328309Y-45340404D01*
X50965452Y-45703261D01*
X51358547Y-45703261D01*
X51751642Y-45068261D02*
X51812119Y-45068261D01*
X51872595Y-45098500D01*
X51902833Y-45128738D01*
X51933071Y-45189214D01*
X51963309Y-45310166D01*
X51963309Y-45461357D01*
X51933071Y-45582309D01*
X51902833Y-45642785D01*
X51872595Y-45673023D01*
X51812119Y-45703261D01*
X51751642Y-45703261D01*
X51691166Y-45673023D01*
X51660928Y-45642785D01*
X51630690Y-45582309D01*
X51600452Y-45461357D01*
X51600452Y-45310166D01*
X51630690Y-45189214D01*
X51660928Y-45128738D01*
X51691166Y-45098500D01*
X51751642Y-45068261D01*
%TO.C,C4*%
X51056166Y-38530785D02*
X51025928Y-38561023D01*
X50935214Y-38591261D01*
X50874738Y-38591261D01*
X50784023Y-38561023D01*
X50723547Y-38500547D01*
X50693309Y-38440071D01*
X50663071Y-38319119D01*
X50663071Y-38228404D01*
X50693309Y-38107452D01*
X50723547Y-38046976D01*
X50784023Y-37986500D01*
X50874738Y-37956261D01*
X50935214Y-37956261D01*
X51025928Y-37986500D01*
X51056166Y-38016738D01*
X51600452Y-38167928D02*
X51600452Y-38591261D01*
X51449261Y-37926023D02*
X51298071Y-38379595D01*
X51691166Y-38379595D01*
%TO.C,C2*%
X86440785Y-36631833D02*
X86471023Y-36662071D01*
X86501261Y-36752785D01*
X86501261Y-36813261D01*
X86471023Y-36903976D01*
X86410547Y-36964452D01*
X86350071Y-36994690D01*
X86229119Y-37024928D01*
X86138404Y-37024928D01*
X86017452Y-36994690D01*
X85956976Y-36964452D01*
X85896500Y-36903976D01*
X85866261Y-36813261D01*
X85866261Y-36752785D01*
X85896500Y-36662071D01*
X85926738Y-36631833D01*
X85926738Y-36389928D02*
X85896500Y-36359690D01*
X85866261Y-36299214D01*
X85866261Y-36148023D01*
X85896500Y-36087547D01*
X85926738Y-36057309D01*
X85987214Y-36027071D01*
X86047690Y-36027071D01*
X86138404Y-36057309D01*
X86501261Y-36420166D01*
X86501261Y-36027071D01*
%TO.C,C3*%
X86440785Y-62031833D02*
X86471023Y-62062071D01*
X86501261Y-62152785D01*
X86501261Y-62213261D01*
X86471023Y-62303976D01*
X86410547Y-62364452D01*
X86350071Y-62394690D01*
X86229119Y-62424928D01*
X86138404Y-62424928D01*
X86017452Y-62394690D01*
X85956976Y-62364452D01*
X85896500Y-62303976D01*
X85866261Y-62213261D01*
X85866261Y-62152785D01*
X85896500Y-62062071D01*
X85926738Y-62031833D01*
X85866261Y-61820166D02*
X85866261Y-61427071D01*
X86108166Y-61638738D01*
X86108166Y-61548023D01*
X86138404Y-61487547D01*
X86168642Y-61457309D01*
X86229119Y-61427071D01*
X86380309Y-61427071D01*
X86440785Y-61457309D01*
X86471023Y-61487547D01*
X86501261Y-61548023D01*
X86501261Y-61729452D01*
X86471023Y-61789928D01*
X86440785Y-61820166D01*
%TO.C,C1*%
X57992785Y-61523833D02*
X58023023Y-61554071D01*
X58053261Y-61644785D01*
X58053261Y-61705261D01*
X58023023Y-61795976D01*
X57962547Y-61856452D01*
X57902071Y-61886690D01*
X57781119Y-61916928D01*
X57690404Y-61916928D01*
X57569452Y-61886690D01*
X57508976Y-61856452D01*
X57448500Y-61795976D01*
X57418261Y-61705261D01*
X57418261Y-61644785D01*
X57448500Y-61554071D01*
X57478738Y-61523833D01*
X58053261Y-60919071D02*
X58053261Y-61281928D01*
X58053261Y-61100500D02*
X57418261Y-61100500D01*
X57508976Y-61160976D01*
X57569452Y-61221452D01*
X57599690Y-61281928D01*
%TO.C,U1*%
X46868190Y-73008261D02*
X46868190Y-73522309D01*
X46898428Y-73582785D01*
X46928666Y-73613023D01*
X46989142Y-73643261D01*
X47110095Y-73643261D01*
X47170571Y-73613023D01*
X47200809Y-73582785D01*
X47231047Y-73522309D01*
X47231047Y-73008261D01*
X47866047Y-73643261D02*
X47503190Y-73643261D01*
X47684619Y-73643261D02*
X47684619Y-73008261D01*
X47624142Y-73098976D01*
X47563666Y-73159452D01*
X47503190Y-73189690D01*
D13*
%TO.C,Q2*%
X65826000Y-36059000D02*
X63676000Y-36059000D01*
X63676000Y-39279000D02*
X63676000Y-38369000D01*
X66251000Y-39279000D02*
X63676000Y-39279000D01*
X63676000Y-36969000D02*
X63676000Y-36059000D01*
%TO.C,Q1*%
X68012000Y-63693000D02*
X68012000Y-61543000D01*
X64792000Y-61543000D02*
X65702000Y-61543000D01*
X64792000Y-64118000D02*
X64792000Y-61543000D01*
X67102000Y-61543000D02*
X68012000Y-61543000D01*
%TO.C,R2*%
X71080000Y-36814936D02*
X71080000Y-38269064D01*
X72900000Y-36814936D02*
X72900000Y-38269064D01*
%TO.C,R3*%
X70360000Y-36814936D02*
X70360000Y-38269064D01*
X68540000Y-36814936D02*
X68540000Y-38269064D01*
%TO.C,R5*%
X73620000Y-46143064D02*
X73620000Y-44688936D01*
X75440000Y-46143064D02*
X75440000Y-44688936D01*
%TO.C,R6*%
X76160000Y-46143064D02*
X76160000Y-44688936D01*
X77980000Y-46143064D02*
X77980000Y-44688936D01*
%TO.C,R7*%
X76160000Y-36814936D02*
X76160000Y-38269064D01*
X77980000Y-36814936D02*
X77980000Y-38269064D01*
%TO.C,R8*%
X75440000Y-36814936D02*
X75440000Y-38269064D01*
X73620000Y-36814936D02*
X73620000Y-38269064D01*
%TO.C,R9*%
X66436936Y-70456000D02*
X67891064Y-70456000D01*
X66436936Y-68636000D02*
X67891064Y-68636000D01*
%TO.C,R10*%
X71080000Y-61960936D02*
X71080000Y-63415064D01*
X72900000Y-61960936D02*
X72900000Y-63415064D01*
%TO.C,R11*%
X70360000Y-61960936D02*
X70360000Y-63415064D01*
X68540000Y-61960936D02*
X68540000Y-63415064D01*
%TO.C,R12*%
X72900000Y-71289064D02*
X72900000Y-69834936D01*
X71080000Y-71289064D02*
X71080000Y-69834936D01*
%TO.C,R13*%
X75440000Y-71289064D02*
X75440000Y-69834936D01*
X73620000Y-71289064D02*
X73620000Y-69834936D01*
%TO.C,R14*%
X76160000Y-71289064D02*
X76160000Y-69834936D01*
X77980000Y-71289064D02*
X77980000Y-69834936D01*
%TO.C,R15*%
X76160000Y-61960936D02*
X76160000Y-63415064D01*
X77980000Y-61960936D02*
X77980000Y-63415064D01*
%TO.C,R16*%
X73620000Y-61960936D02*
X73620000Y-63415064D01*
X75440000Y-61960936D02*
X75440000Y-63415064D01*
%TO.C,R17*%
X64150936Y-45310000D02*
X65605064Y-45310000D01*
X64150936Y-43490000D02*
X65605064Y-43490000D01*
%TO.C,U2*%
X82912000Y-48190000D02*
X84862000Y-48190000D01*
X82912000Y-38070000D02*
X79462000Y-38070000D01*
X82912000Y-48190000D02*
X80962000Y-48190000D01*
X82912000Y-38070000D02*
X84862000Y-38070000D01*
%TO.C,U3*%
X82847000Y-63343000D02*
X84797000Y-63343000D01*
X82847000Y-73463000D02*
X84797000Y-73463000D01*
X82847000Y-73463000D02*
X80897000Y-73463000D01*
X82847000Y-63343000D02*
X79397000Y-63343000D01*
%TO.C,R4*%
X72900000Y-46143064D02*
X72900000Y-44688936D01*
X71080000Y-46143064D02*
X71080000Y-44688936D01*
%TO.C,J1*%
X46784000Y-32148000D02*
X48114000Y-32148000D01*
X49444000Y-34748000D02*
X49444000Y-37348000D01*
X46784000Y-33478000D02*
X46784000Y-32148000D01*
X46784000Y-34748000D02*
X49444000Y-34748000D01*
X46784000Y-34748000D02*
X46784000Y-37348000D01*
X46784000Y-37348000D02*
X49444000Y-37348000D01*
%TO.C,R1*%
X50111064Y-62328000D02*
X48656936Y-62328000D01*
X50111064Y-60508000D02*
X48656936Y-60508000D01*
%TO.C,SW1*%
X49444000Y-55063000D02*
X49444000Y-57663000D01*
X46784000Y-55063000D02*
X49444000Y-55063000D01*
X46784000Y-57663000D02*
X49444000Y-57663000D01*
X46784000Y-53793000D02*
X46784000Y-52463000D01*
X46784000Y-52463000D02*
X48114000Y-52463000D01*
X46784000Y-55063000D02*
X46784000Y-57663000D01*
%TO.C,J6*%
X46784000Y-39768000D02*
X48114000Y-39768000D01*
X49444000Y-42368000D02*
X49444000Y-50048000D01*
X46784000Y-42368000D02*
X49444000Y-42368000D01*
X46784000Y-41098000D02*
X46784000Y-39768000D01*
X46784000Y-50048000D02*
X49444000Y-50048000D01*
X46784000Y-42368000D02*
X46784000Y-50048000D01*
%TO.C,R19*%
X67891064Y-68170000D02*
X66436936Y-68170000D01*
X67891064Y-66350000D02*
X66436936Y-66350000D01*
%TO.C,R18*%
X65605064Y-43024000D02*
X64150936Y-43024000D01*
X65605064Y-41204000D02*
X64150936Y-41204000D01*
%TO.C,R20*%
X50252000Y-43080064D02*
X50252000Y-41625936D01*
X52072000Y-43080064D02*
X52072000Y-41625936D01*
%TO.C,C4*%
X50227000Y-32517000D02*
X50227000Y-36602000D01*
X52097000Y-36602000D02*
X52097000Y-32517000D01*
X52097000Y-32517000D02*
X50227000Y-32517000D01*
%TO.C,C2*%
X85397000Y-37461000D02*
X85397000Y-35591000D01*
X81312000Y-37461000D02*
X85397000Y-37461000D01*
X85397000Y-35591000D02*
X81312000Y-35591000D01*
%TO.C,C3*%
X85397000Y-62861000D02*
X85397000Y-60991000D01*
X85397000Y-60991000D02*
X81312000Y-60991000D01*
X81312000Y-62861000D02*
X85397000Y-62861000D01*
%TO.C,C1*%
X56318000Y-60483000D02*
X52233000Y-60483000D01*
X52233000Y-62353000D02*
X56318000Y-62353000D01*
X52233000Y-60483000D02*
X52233000Y-62353000D01*
%TO.C,U1*%
X59132000Y-72678000D02*
X59132000Y-62858000D01*
X50512001Y-62858000D02*
X45732000Y-62858000D01*
X50512001Y-63218000D02*
X50512001Y-62858000D01*
X45732000Y-62858000D02*
X45732000Y-72678000D01*
X54352000Y-63218000D02*
X50512001Y-63218000D01*
X59132000Y-62858000D02*
X54352000Y-62858000D01*
X54352000Y-62858000D02*
X54352000Y-63218000D01*
X45732000Y-72678000D02*
X59132000Y-72678000D01*
%TD*%
%LPC*%
D14*
%TO.C,Q2*%
X65951000Y-38619000D03*
X65951000Y-36719000D03*
X63551000Y-37669000D03*
%TD*%
D15*
%TO.C,Q1*%
X65452000Y-63818000D03*
X67352000Y-63818000D03*
X66402000Y-61418000D03*
%TD*%
D16*
%TO.C,R2*%
X71990000Y-35992000D03*
X71990000Y-39092000D03*
%TD*%
%TO.C,R3*%
X69450000Y-35992000D03*
X69450000Y-39092000D03*
%TD*%
D17*
%TO.C,R5*%
X74530000Y-46966000D03*
X74530000Y-43866000D03*
%TD*%
%TO.C,R6*%
X77070000Y-46966000D03*
X77070000Y-43866000D03*
%TD*%
D16*
%TO.C,R7*%
X77070000Y-35992000D03*
X77070000Y-39092000D03*
%TD*%
%TO.C,R8*%
X74530000Y-35992000D03*
X74530000Y-39092000D03*
%TD*%
D18*
%TO.C,R9*%
X65614000Y-69546000D03*
X68714000Y-69546000D03*
%TD*%
D16*
%TO.C,R10*%
X71990000Y-61138000D03*
X71990000Y-64238000D03*
%TD*%
%TO.C,R11*%
X69450000Y-61138000D03*
X69450000Y-64238000D03*
%TD*%
D17*
%TO.C,R12*%
X71990000Y-72112000D03*
X71990000Y-69012000D03*
%TD*%
%TO.C,R13*%
X74530000Y-72112000D03*
X74530000Y-69012000D03*
%TD*%
%TO.C,R14*%
X77070000Y-72112000D03*
X77070000Y-69012000D03*
%TD*%
D16*
%TO.C,R15*%
X77070000Y-61138000D03*
X77070000Y-64238000D03*
%TD*%
%TO.C,R16*%
X74530000Y-61138000D03*
X74530000Y-64238000D03*
%TD*%
D18*
%TO.C,R17*%
X63328000Y-44400000D03*
X66428000Y-44400000D03*
%TD*%
D19*
%TO.C,U2*%
X80437000Y-38685000D03*
X80437000Y-39955000D03*
X80437000Y-41225000D03*
X80437000Y-42495000D03*
X80437000Y-43765000D03*
X80437000Y-45035000D03*
X80437000Y-46305000D03*
X80437000Y-47575000D03*
X85387000Y-47575000D03*
X85387000Y-46305000D03*
X85387000Y-45035000D03*
X85387000Y-43765000D03*
X85387000Y-42495000D03*
X85387000Y-41225000D03*
X85387000Y-39955000D03*
X85387000Y-38685000D03*
%TD*%
%TO.C,U3*%
X80372000Y-63958000D03*
X80372000Y-65228000D03*
X80372000Y-66498000D03*
X80372000Y-67768000D03*
X80372000Y-69038000D03*
X80372000Y-70308000D03*
X80372000Y-71578000D03*
X80372000Y-72848000D03*
X85322000Y-72848000D03*
X85322000Y-71578000D03*
X85322000Y-70308000D03*
X85322000Y-69038000D03*
X85322000Y-67768000D03*
X85322000Y-66498000D03*
X85322000Y-65228000D03*
X85322000Y-63958000D03*
%TD*%
D17*
%TO.C,R4*%
X71990000Y-46966000D03*
X71990000Y-43866000D03*
%TD*%
D20*
%TO.C,J1*%
X48114000Y-33478000D03*
D21*
X48114000Y-36018000D03*
%TD*%
D22*
%TO.C,R1*%
X50934000Y-61418000D03*
X47834000Y-61418000D03*
%TD*%
D20*
%TO.C,SW1*%
X48114000Y-53793000D03*
D21*
X48114000Y-56333000D03*
%TD*%
D20*
%TO.C,J6*%
X48114000Y-41098000D03*
D21*
X48114000Y-43638000D03*
X48114000Y-46178000D03*
X48114000Y-48718000D03*
%TD*%
D22*
%TO.C,R19*%
X68714000Y-67260000D03*
X65614000Y-67260000D03*
%TD*%
%TO.C,R18*%
X66428000Y-42114000D03*
X63328000Y-42114000D03*
%TD*%
D17*
%TO.C,R20*%
X51162000Y-43903000D03*
X51162000Y-40803000D03*
%TD*%
D23*
%TO.C,C4*%
X51162000Y-33564500D03*
X51162000Y-36439500D03*
%TD*%
D24*
%TO.C,C2*%
X84349500Y-36526000D03*
X81474500Y-36526000D03*
%TD*%
%TO.C,C3*%
X84349500Y-61926000D03*
X81474500Y-61926000D03*
%TD*%
D25*
%TO.C,C1*%
X53280500Y-61418000D03*
X56155500Y-61418000D03*
%TD*%
D26*
%TO.C,U1*%
X47432000Y-63958000D03*
X47432000Y-66498000D03*
X47432000Y-69038000D03*
X47432000Y-71578000D03*
X57432000Y-71578000D03*
X57432000Y-69038000D03*
X57432000Y-66498000D03*
X57432000Y-63958000D03*
%TD*%
D27*
%TO.C,U4*%
X77070000Y-74245000D03*
D28*
X74530000Y-74245000D03*
X71990000Y-74245000D03*
X69450000Y-74245000D03*
X66910000Y-74245000D03*
X64370000Y-74245000D03*
X61830000Y-74245000D03*
X59290000Y-74245000D03*
X56750000Y-74245000D03*
X56750000Y-59005000D03*
X59290000Y-59005000D03*
X61830000Y-59005000D03*
X64370000Y-59005000D03*
X66910000Y-59005000D03*
X69450000Y-59005000D03*
X71990000Y-59005000D03*
X74530000Y-59005000D03*
X77070000Y-59005000D03*
%TD*%
D27*
%TO.C,U5*%
X77070000Y-49099000D03*
D28*
X74530000Y-49099000D03*
X71990000Y-49099000D03*
X69450000Y-49099000D03*
X66910000Y-49099000D03*
X64370000Y-49099000D03*
X61830000Y-49099000D03*
X59290000Y-49099000D03*
X56750000Y-49099000D03*
X56750000Y-33859000D03*
X59290000Y-33859000D03*
X61830000Y-33859000D03*
X64370000Y-33859000D03*
X66910000Y-33859000D03*
X69450000Y-33859000D03*
X71990000Y-33859000D03*
X74530000Y-33859000D03*
X77070000Y-33859000D03*
%TD*%
M02*
