%TF.GenerationSoftware,KiCad,Pcbnew,(6.0.9)*%
%TF.CreationDate,2022-12-10T14:47:00+01:00*%
%TF.ProjectId,Hygrometer_SMD_doubleSided,48796772-6f6d-4657-9465-725f534d445f,rev?*%
%TF.SameCoordinates,Original*%
%TF.FileFunction,Copper,L2,Bot*%
%TF.FilePolarity,Positive*%
%FSLAX46Y46*%
G04 Gerber Fmt 4.6, Leading zero omitted, Abs format (unit mm)*
G04 Created by KiCad (PCBNEW (6.0.9)) date 2022-12-10 14:47:00*
%MOMM*%
%LPD*%
G01*
G04 APERTURE LIST*
%TA.AperFunction,ComponentPad*%
%ADD10R,1.700000X1.700000*%
%TD*%
%TA.AperFunction,ComponentPad*%
%ADD11O,1.700000X1.700000*%
%TD*%
%TA.AperFunction,ComponentPad*%
%ADD12R,1.500000X1.500000*%
%TD*%
%TA.AperFunction,ComponentPad*%
%ADD13C,1.500000*%
%TD*%
%TA.AperFunction,ViaPad*%
%ADD14C,4.500001*%
%TD*%
%TA.AperFunction,ViaPad*%
%ADD15C,0.600000*%
%TD*%
%TA.AperFunction,Conductor*%
%ADD16C,0.254000*%
%TD*%
G04 APERTURE END LIST*
D10*
%TO.P,J1,1,Pin_1*%
%TO.N,VCC*%
X48114000Y-33478000D03*
D11*
%TO.P,J1,2,Pin_2*%
%TO.N,GND*%
X48114000Y-36018000D03*
%TD*%
D10*
%TO.P,SW1,1,1*%
%TO.N,Net-(SW1-Pad1)*%
X48114000Y-53793000D03*
D11*
%TO.P,SW1,2,2*%
%TO.N,GND*%
X48114000Y-56333000D03*
%TD*%
D10*
%TO.P,J6,1,Pin_1*%
%TO.N,VCC*%
X48114000Y-41098000D03*
D11*
%TO.P,J6,2,Pin_2*%
%TO.N,Net-(J6-Pad2)*%
X48114000Y-43638000D03*
%TO.P,J6,3,Pin_3*%
%TO.N,unconnected-(J6-Pad3)*%
X48114000Y-46178000D03*
%TO.P,J6,4,Pin_4*%
%TO.N,GND*%
X48114000Y-48718000D03*
%TD*%
D12*
%TO.P,U4,1,1E*%
%TO.N,E_tmp*%
X77070000Y-74245000D03*
D13*
%TO.P,U4,2,1D*%
%TO.N,D_tmp*%
X74530000Y-74245000D03*
%TO.P,U4,3,1C*%
%TO.N,C_tmp*%
X71990000Y-74245000D03*
%TO.P,U4,4,1DP*%
%TO.N,GND*%
X69450000Y-74245000D03*
%TO.P,U4,5,2E*%
%TO.N,E_tmp*%
X66910000Y-74245000D03*
%TO.P,U4,6,2D*%
%TO.N,D_tmp*%
X64370000Y-74245000D03*
%TO.P,U4,7,2G*%
%TO.N,G_tmp*%
X61830000Y-74245000D03*
%TO.P,U4,8,2C*%
%TO.N,C_tmp*%
X59290000Y-74245000D03*
%TO.P,U4,9,2DP*%
%TO.N,GND*%
X56750000Y-74245000D03*
%TO.P,U4,10,2B*%
%TO.N,B_tmp*%
X56750000Y-59005000D03*
%TO.P,U4,11,2A*%
%TO.N,A_tmp*%
X59290000Y-59005000D03*
%TO.P,U4,12,2F*%
%TO.N,F_tmp*%
X61830000Y-59005000D03*
%TO.P,U4,13,2CC*%
%TO.N,ONES*%
X64370000Y-59005000D03*
%TO.P,U4,14,1CC*%
%TO.N,TENS*%
X66910000Y-59005000D03*
%TO.P,U4,15,1B*%
%TO.N,B_tmp*%
X69450000Y-59005000D03*
%TO.P,U4,16,1A*%
%TO.N,A_tmp*%
X71990000Y-59005000D03*
%TO.P,U4,17,1G*%
%TO.N,G_tmp*%
X74530000Y-59005000D03*
%TO.P,U4,18,1F*%
%TO.N,F_tmp*%
X77070000Y-59005000D03*
%TD*%
D12*
%TO.P,U5,1,1E*%
%TO.N,E_hum*%
X77070000Y-49099000D03*
D13*
%TO.P,U5,2,1D*%
%TO.N,D_hum*%
X74530000Y-49099000D03*
%TO.P,U5,3,1C*%
%TO.N,C_hum*%
X71990000Y-49099000D03*
%TO.P,U5,4,1DP*%
%TO.N,GND*%
X69450000Y-49099000D03*
%TO.P,U5,5,2E*%
%TO.N,E_hum*%
X66910000Y-49099000D03*
%TO.P,U5,6,2D*%
%TO.N,D_hum*%
X64370000Y-49099000D03*
%TO.P,U5,7,2G*%
%TO.N,G_hum*%
X61830000Y-49099000D03*
%TO.P,U5,8,2C*%
%TO.N,C_hum*%
X59290000Y-49099000D03*
%TO.P,U5,9,2DP*%
%TO.N,GND*%
X56750000Y-49099000D03*
%TO.P,U5,10,2B*%
%TO.N,B_hum*%
X56750000Y-33859000D03*
%TO.P,U5,11,2A*%
%TO.N,A_hum*%
X59290000Y-33859000D03*
%TO.P,U5,12,2F*%
%TO.N,F_hum*%
X61830000Y-33859000D03*
%TO.P,U5,13,2CC*%
%TO.N,ONES*%
X64370000Y-33859000D03*
%TO.P,U5,14,1CC*%
%TO.N,TENS*%
X66910000Y-33859000D03*
%TO.P,U5,15,1B*%
%TO.N,B_hum*%
X69450000Y-33859000D03*
%TO.P,U5,16,1A*%
%TO.N,A_hum*%
X71990000Y-33859000D03*
%TO.P,U5,17,1G*%
%TO.N,G_hum*%
X74530000Y-33859000D03*
%TO.P,U5,18,1F*%
%TO.N,F_hum*%
X77070000Y-33859000D03*
%TD*%
D14*
%TO.N,*%
X48368000Y-76658000D03*
X85198000Y-30684000D03*
D15*
%TO.N,GND*%
X62338000Y-62180000D03*
X52178000Y-69800000D03*
X85198000Y-34240000D03*
X49638000Y-39320000D03*
X49638000Y-36780000D03*
X47098000Y-36780000D03*
X82658000Y-29160000D03*
X52178000Y-39320000D03*
X54718000Y-34240000D03*
X69958000Y-29160000D03*
X62338000Y-57100000D03*
X49638000Y-59640000D03*
X59798000Y-52020000D03*
X69958000Y-54560000D03*
X52178000Y-46940000D03*
X54718000Y-36780000D03*
X77578000Y-29160000D03*
X80118000Y-34240000D03*
X80118000Y-52020000D03*
X67418000Y-29160000D03*
X83928000Y-67768000D03*
X57258000Y-29160000D03*
X82658000Y-77420000D03*
X47098000Y-31700000D03*
X62338000Y-29160000D03*
X54718000Y-44400000D03*
X69958000Y-52020000D03*
X62338000Y-31700000D03*
X80118000Y-57100000D03*
X67418000Y-54560000D03*
X57258000Y-41860000D03*
X62338000Y-36780000D03*
X49638000Y-67260000D03*
X59798000Y-44400000D03*
X67291000Y-36780000D03*
X82658000Y-34240000D03*
X64878000Y-54560000D03*
X49638000Y-31700000D03*
X57258000Y-44400000D03*
X49638000Y-57100000D03*
X52178000Y-72340000D03*
X75038000Y-54560000D03*
X52178000Y-54560000D03*
X62338000Y-64720000D03*
X52178000Y-64720000D03*
X59798000Y-41860000D03*
X47098000Y-39320000D03*
X59798000Y-62180000D03*
X57258000Y-36780000D03*
X67418000Y-52020000D03*
X62338000Y-54560000D03*
X80118000Y-72340000D03*
X80118000Y-49480000D03*
X80118000Y-54560000D03*
X67291000Y-39320000D03*
X64878000Y-41860000D03*
X57258000Y-57100000D03*
X85198000Y-57100000D03*
X54718000Y-29160000D03*
X77578000Y-57100000D03*
X72498000Y-52020000D03*
X52178000Y-29160000D03*
X47098000Y-29160000D03*
X52178000Y-77420000D03*
X59798000Y-54560000D03*
X49638000Y-29160000D03*
X54718000Y-39320000D03*
X85198000Y-77420000D03*
X62338000Y-67260000D03*
X80118000Y-62180000D03*
X80118000Y-29160000D03*
X54718000Y-41860000D03*
X59798000Y-36780000D03*
X85198000Y-74880000D03*
X57258000Y-54560000D03*
X80118000Y-74880000D03*
X49638000Y-72340000D03*
X80118000Y-31700000D03*
X64878000Y-44400000D03*
X62338000Y-69800000D03*
X57258000Y-39320000D03*
X85198000Y-52020000D03*
X52178000Y-57100000D03*
X64878000Y-52020000D03*
X54718000Y-77420000D03*
X54718000Y-31700000D03*
X52178000Y-67260000D03*
X57258000Y-62180000D03*
X67418000Y-69800000D03*
X49638000Y-69800000D03*
X69958000Y-67260000D03*
X85198000Y-49480000D03*
X80118000Y-59640000D03*
X52178000Y-52020000D03*
X59798000Y-29160000D03*
X85198000Y-59640000D03*
X77578000Y-52020000D03*
X67418000Y-67260000D03*
X72498000Y-54560000D03*
X72498000Y-29160000D03*
X83928000Y-42622000D03*
X57258000Y-31700000D03*
X77578000Y-54560000D03*
X82658000Y-36780000D03*
X49638000Y-49480000D03*
X54718000Y-67260000D03*
X49638000Y-44400000D03*
X64878000Y-29160000D03*
X52178000Y-49480000D03*
X59798000Y-31700000D03*
X77578000Y-31700000D03*
X75038000Y-29160000D03*
X85198000Y-54560000D03*
X49638000Y-46940000D03*
X59798000Y-57100000D03*
X80118000Y-36780000D03*
X52178000Y-74880000D03*
X52178000Y-59640000D03*
X59798000Y-39320000D03*
X57258000Y-52020000D03*
X62338000Y-52020000D03*
X75038000Y-52020000D03*
%TO.N,Net-(R9-Pad2)*%
X80880000Y-60148000D03*
X81646185Y-65739367D03*
%TO.N,/SRCLK*%
X83153020Y-65748980D03*
X83166000Y-60148000D03*
%TO.N,/DATA*%
X81642000Y-60148000D03*
X82404000Y-65736000D03*
%TO.N,/RCLK*%
X82404000Y-60148000D03*
X82411788Y-64453020D03*
%TO.N,Net-(U2-Pad9)*%
X83938384Y-60158384D03*
X83928000Y-66498000D03*
%TO.N,TENS*%
X61830000Y-44908000D03*
X61830000Y-46686000D03*
%TO.N,ONES*%
X60814000Y-44908000D03*
X60814000Y-47448000D03*
%TD*%
D16*
%TO.N,Net-(R9-Pad2)*%
X80880000Y-63450000D02*
X80880000Y-64973182D01*
X80880000Y-64973182D02*
X81646185Y-65739367D01*
X80880000Y-60148000D02*
X80880000Y-63450000D01*
%TO.N,/SRCLK*%
X83166000Y-65736000D02*
X83166000Y-60148000D01*
X83153020Y-65748980D02*
X83166000Y-65736000D01*
%TO.N,/DATA*%
X81642000Y-64466000D02*
X81642000Y-60148000D01*
X82404000Y-65736000D02*
X82404000Y-65228000D01*
X82404000Y-65228000D02*
X81642000Y-64466000D01*
%TO.N,/RCLK*%
X82411788Y-64453020D02*
X82404000Y-64445232D01*
X82404000Y-64445232D02*
X82404000Y-60148000D01*
%TO.N,Net-(U2-Pad9)*%
X83928000Y-60168768D02*
X83928000Y-66498000D01*
X83938384Y-60158384D02*
X83928000Y-60168768D01*
%TO.N,B_hum*%
X68053000Y-32462000D02*
X69450000Y-33859000D01*
X56750000Y-33859000D02*
X58147000Y-32462000D01*
X58147000Y-32462000D02*
X68053000Y-32462000D01*
%TO.N,B_tmp*%
X57893000Y-57862000D02*
X68307000Y-57862000D01*
X56750000Y-59005000D02*
X57893000Y-57862000D01*
X68307000Y-57862000D02*
X69450000Y-59005000D01*
%TO.N,TENS*%
X61830000Y-44908000D02*
X61830000Y-46686000D01*
%TO.N,ONES*%
X60814000Y-44908000D02*
X60814000Y-47448000D01*
%TD*%
%TA.AperFunction,Conductor*%
%TO.N,GND*%
G36*
X83681206Y-28164502D02*
G01*
X83727699Y-28218158D01*
X83737803Y-28288432D01*
X83708309Y-28353012D01*
X83677508Y-28378785D01*
X83644659Y-28398328D01*
X83381316Y-28601496D01*
X83144288Y-28834829D01*
X82937009Y-29094949D01*
X82762481Y-29378086D01*
X82623232Y-29680140D01*
X82622073Y-29683740D01*
X82622070Y-29683747D01*
X82522442Y-29993126D01*
X82521280Y-29996735D01*
X82458100Y-30323285D01*
X82434610Y-30655061D01*
X82451147Y-30987255D01*
X82507474Y-31315057D01*
X82602774Y-31633718D01*
X82604287Y-31637189D01*
X82604289Y-31637195D01*
X82687020Y-31827010D01*
X82735666Y-31938622D01*
X82737589Y-31941893D01*
X82737591Y-31941897D01*
X82768843Y-31995058D01*
X82904226Y-32225352D01*
X82906527Y-32228367D01*
X83103712Y-32486742D01*
X83103717Y-32486748D01*
X83106012Y-32489755D01*
X83338102Y-32728002D01*
X83597132Y-32936640D01*
X83879352Y-33112648D01*
X84180672Y-33253476D01*
X84496729Y-33357085D01*
X84822944Y-33421973D01*
X84826716Y-33422260D01*
X84826724Y-33422261D01*
X85150815Y-33446914D01*
X85150820Y-33446914D01*
X85154592Y-33447201D01*
X85486869Y-33432403D01*
X85519787Y-33426924D01*
X85811220Y-33378417D01*
X85811225Y-33378416D01*
X85814961Y-33377794D01*
X86134116Y-33284164D01*
X86137583Y-33282674D01*
X86137587Y-33282673D01*
X86436228Y-33154366D01*
X86436230Y-33154365D01*
X86439712Y-33152869D01*
X86727321Y-32985813D01*
X86730343Y-32983532D01*
X86730347Y-32983529D01*
X86989753Y-32787697D01*
X86989754Y-32787696D01*
X86992777Y-32785414D01*
X87232235Y-32554575D01*
X87442227Y-32296641D01*
X87619710Y-32015347D01*
X87744910Y-31751081D01*
X87792149Y-31698086D01*
X87860544Y-31679042D01*
X87928377Y-31699999D01*
X87974112Y-31754302D01*
X87984775Y-31804991D01*
X87999305Y-79325461D01*
X87979324Y-79393588D01*
X87925682Y-79440098D01*
X87873305Y-79451500D01*
X49466582Y-79451500D01*
X49398461Y-79431498D01*
X49351968Y-79377842D01*
X49341864Y-79307568D01*
X49371358Y-79242988D01*
X49416844Y-79209732D01*
X49606228Y-79128366D01*
X49606230Y-79128365D01*
X49609712Y-79126869D01*
X49897321Y-78959813D01*
X49900343Y-78957532D01*
X49900347Y-78957529D01*
X50159753Y-78761697D01*
X50159754Y-78761696D01*
X50162777Y-78759414D01*
X50402235Y-78528575D01*
X50612227Y-78270641D01*
X50789710Y-77989347D01*
X50932114Y-77688767D01*
X51037377Y-77373257D01*
X51103972Y-77047386D01*
X51130936Y-76715875D01*
X51131542Y-76658000D01*
X51130026Y-76632853D01*
X51111755Y-76329772D01*
X51111754Y-76329765D01*
X51111527Y-76325997D01*
X51051770Y-75998803D01*
X50953139Y-75681157D01*
X50817061Y-75377662D01*
X50715429Y-75208852D01*
X50647466Y-75095966D01*
X50647462Y-75095960D01*
X50645507Y-75092713D01*
X50643180Y-75089729D01*
X50643175Y-75089722D01*
X50443294Y-74833425D01*
X50443288Y-74833418D01*
X50440963Y-74830437D01*
X50206392Y-74594634D01*
X49945191Y-74388720D01*
X49709277Y-74245000D01*
X58026693Y-74245000D01*
X58045885Y-74464371D01*
X58102880Y-74677076D01*
X58105205Y-74682061D01*
X58193618Y-74871666D01*
X58193621Y-74871671D01*
X58195944Y-74876653D01*
X58199100Y-74881160D01*
X58199101Y-74881162D01*
X58310123Y-75039717D01*
X58322251Y-75057038D01*
X58477962Y-75212749D01*
X58658346Y-75339056D01*
X58857924Y-75432120D01*
X59070629Y-75489115D01*
X59290000Y-75508307D01*
X59509371Y-75489115D01*
X59722076Y-75432120D01*
X59921654Y-75339056D01*
X60102038Y-75212749D01*
X60257749Y-75057038D01*
X60269878Y-75039717D01*
X60380899Y-74881162D01*
X60380900Y-74881160D01*
X60384056Y-74876653D01*
X60386379Y-74871671D01*
X60386382Y-74871666D01*
X60445805Y-74744231D01*
X60492722Y-74690946D01*
X60560999Y-74671485D01*
X60628959Y-74692027D01*
X60674195Y-74744231D01*
X60733618Y-74871666D01*
X60733621Y-74871671D01*
X60735944Y-74876653D01*
X60739100Y-74881160D01*
X60739101Y-74881162D01*
X60850123Y-75039717D01*
X60862251Y-75057038D01*
X61017962Y-75212749D01*
X61198346Y-75339056D01*
X61397924Y-75432120D01*
X61610629Y-75489115D01*
X61830000Y-75508307D01*
X62049371Y-75489115D01*
X62262076Y-75432120D01*
X62461654Y-75339056D01*
X62642038Y-75212749D01*
X62797749Y-75057038D01*
X62809878Y-75039717D01*
X62920899Y-74881162D01*
X62920900Y-74881160D01*
X62924056Y-74876653D01*
X62926379Y-74871671D01*
X62926382Y-74871666D01*
X62985805Y-74744231D01*
X63032722Y-74690946D01*
X63100999Y-74671485D01*
X63168959Y-74692027D01*
X63214195Y-74744231D01*
X63273618Y-74871666D01*
X63273621Y-74871671D01*
X63275944Y-74876653D01*
X63279100Y-74881160D01*
X63279101Y-74881162D01*
X63390123Y-75039717D01*
X63402251Y-75057038D01*
X63557962Y-75212749D01*
X63738346Y-75339056D01*
X63937924Y-75432120D01*
X64150629Y-75489115D01*
X64370000Y-75508307D01*
X64589371Y-75489115D01*
X64802076Y-75432120D01*
X65001654Y-75339056D01*
X65182038Y-75212749D01*
X65337749Y-75057038D01*
X65349878Y-75039717D01*
X65460899Y-74881162D01*
X65460900Y-74881160D01*
X65464056Y-74876653D01*
X65466379Y-74871671D01*
X65466382Y-74871666D01*
X65525805Y-74744231D01*
X65572722Y-74690946D01*
X65640999Y-74671485D01*
X65708959Y-74692027D01*
X65754195Y-74744231D01*
X65813618Y-74871666D01*
X65813621Y-74871671D01*
X65815944Y-74876653D01*
X65819100Y-74881160D01*
X65819101Y-74881162D01*
X65930123Y-75039717D01*
X65942251Y-75057038D01*
X66097962Y-75212749D01*
X66278346Y-75339056D01*
X66477924Y-75432120D01*
X66690629Y-75489115D01*
X66910000Y-75508307D01*
X67129371Y-75489115D01*
X67342076Y-75432120D01*
X67541654Y-75339056D01*
X67722038Y-75212749D01*
X67877749Y-75057038D01*
X67889878Y-75039717D01*
X68000899Y-74881162D01*
X68000900Y-74881160D01*
X68004056Y-74876653D01*
X68006379Y-74871671D01*
X68006382Y-74871666D01*
X68094795Y-74682061D01*
X68097120Y-74677076D01*
X68154115Y-74464371D01*
X68173307Y-74245000D01*
X70726693Y-74245000D01*
X70745885Y-74464371D01*
X70802880Y-74677076D01*
X70805205Y-74682061D01*
X70893618Y-74871666D01*
X70893621Y-74871671D01*
X70895944Y-74876653D01*
X70899100Y-74881160D01*
X70899101Y-74881162D01*
X71010123Y-75039717D01*
X71022251Y-75057038D01*
X71177962Y-75212749D01*
X71358346Y-75339056D01*
X71557924Y-75432120D01*
X71770629Y-75489115D01*
X71990000Y-75508307D01*
X72209371Y-75489115D01*
X72422076Y-75432120D01*
X72621654Y-75339056D01*
X72802038Y-75212749D01*
X72957749Y-75057038D01*
X72969878Y-75039717D01*
X73080899Y-74881162D01*
X73080900Y-74881160D01*
X73084056Y-74876653D01*
X73086379Y-74871671D01*
X73086382Y-74871666D01*
X73145805Y-74744231D01*
X73192722Y-74690946D01*
X73260999Y-74671485D01*
X73328959Y-74692027D01*
X73374195Y-74744231D01*
X73433618Y-74871666D01*
X73433621Y-74871671D01*
X73435944Y-74876653D01*
X73439100Y-74881160D01*
X73439101Y-74881162D01*
X73550123Y-75039717D01*
X73562251Y-75057038D01*
X73717962Y-75212749D01*
X73898346Y-75339056D01*
X74097924Y-75432120D01*
X74310629Y-75489115D01*
X74530000Y-75508307D01*
X74749371Y-75489115D01*
X74962076Y-75432120D01*
X75161654Y-75339056D01*
X75342038Y-75212749D01*
X75497749Y-75057038D01*
X75509878Y-75039717D01*
X75582287Y-74936305D01*
X75637744Y-74891977D01*
X75708363Y-74884668D01*
X75771724Y-74916699D01*
X75807709Y-74977900D01*
X75811500Y-75008576D01*
X75811500Y-75043134D01*
X75818255Y-75105316D01*
X75869385Y-75241705D01*
X75956739Y-75358261D01*
X76073295Y-75445615D01*
X76209684Y-75496745D01*
X76271866Y-75503500D01*
X77868134Y-75503500D01*
X77930316Y-75496745D01*
X78066705Y-75445615D01*
X78183261Y-75358261D01*
X78270615Y-75241705D01*
X78321745Y-75105316D01*
X78328500Y-75043134D01*
X78328500Y-73446866D01*
X78321745Y-73384684D01*
X78270615Y-73248295D01*
X78183261Y-73131739D01*
X78066705Y-73044385D01*
X77930316Y-72993255D01*
X77868134Y-72986500D01*
X76271866Y-72986500D01*
X76209684Y-72993255D01*
X76073295Y-73044385D01*
X75956739Y-73131739D01*
X75869385Y-73248295D01*
X75818255Y-73384684D01*
X75811500Y-73446866D01*
X75811500Y-73481424D01*
X75791498Y-73549545D01*
X75737842Y-73596038D01*
X75667568Y-73606142D01*
X75602988Y-73576648D01*
X75582287Y-73553695D01*
X75500908Y-73437473D01*
X75500906Y-73437470D01*
X75497749Y-73432962D01*
X75342038Y-73277251D01*
X75161654Y-73150944D01*
X74962076Y-73057880D01*
X74749371Y-73000885D01*
X74530000Y-72981693D01*
X74310629Y-73000885D01*
X74097924Y-73057880D01*
X74004562Y-73101415D01*
X73903334Y-73148618D01*
X73903329Y-73148621D01*
X73898347Y-73150944D01*
X73893840Y-73154100D01*
X73893838Y-73154101D01*
X73722473Y-73274092D01*
X73722470Y-73274094D01*
X73717962Y-73277251D01*
X73562251Y-73432962D01*
X73559094Y-73437470D01*
X73559092Y-73437473D01*
X73477713Y-73553695D01*
X73435944Y-73613347D01*
X73433621Y-73618329D01*
X73433618Y-73618334D01*
X73374195Y-73745769D01*
X73327278Y-73799054D01*
X73259001Y-73818515D01*
X73191041Y-73797973D01*
X73145805Y-73745769D01*
X73086382Y-73618334D01*
X73086379Y-73618329D01*
X73084056Y-73613347D01*
X73042287Y-73553695D01*
X72960908Y-73437473D01*
X72960906Y-73437470D01*
X72957749Y-73432962D01*
X72802038Y-73277251D01*
X72621654Y-73150944D01*
X72422076Y-73057880D01*
X72209371Y-73000885D01*
X71990000Y-72981693D01*
X71770629Y-73000885D01*
X71557924Y-73057880D01*
X71464562Y-73101415D01*
X71363334Y-73148618D01*
X71363329Y-73148621D01*
X71358347Y-73150944D01*
X71353840Y-73154100D01*
X71353838Y-73154101D01*
X71182473Y-73274092D01*
X71182470Y-73274094D01*
X71177962Y-73277251D01*
X71022251Y-73432962D01*
X71019094Y-73437470D01*
X71019092Y-73437473D01*
X70937713Y-73553695D01*
X70895944Y-73613347D01*
X70893621Y-73618329D01*
X70893618Y-73618334D01*
X70846415Y-73719562D01*
X70802880Y-73812924D01*
X70745885Y-74025629D01*
X70726693Y-74245000D01*
X68173307Y-74245000D01*
X68154115Y-74025629D01*
X68097120Y-73812924D01*
X68053585Y-73719562D01*
X68006382Y-73618334D01*
X68006379Y-73618329D01*
X68004056Y-73613347D01*
X67962287Y-73553695D01*
X67880908Y-73437473D01*
X67880906Y-73437470D01*
X67877749Y-73432962D01*
X67722038Y-73277251D01*
X67541654Y-73150944D01*
X67342076Y-73057880D01*
X67129371Y-73000885D01*
X66910000Y-72981693D01*
X66690629Y-73000885D01*
X66477924Y-73057880D01*
X66384562Y-73101415D01*
X66283334Y-73148618D01*
X66283329Y-73148621D01*
X66278347Y-73150944D01*
X66273840Y-73154100D01*
X66273838Y-73154101D01*
X66102473Y-73274092D01*
X66102470Y-73274094D01*
X66097962Y-73277251D01*
X65942251Y-73432962D01*
X65939094Y-73437470D01*
X65939092Y-73437473D01*
X65857713Y-73553695D01*
X65815944Y-73613347D01*
X65813621Y-73618329D01*
X65813618Y-73618334D01*
X65754195Y-73745769D01*
X65707278Y-73799054D01*
X65639001Y-73818515D01*
X65571041Y-73797973D01*
X65525805Y-73745769D01*
X65466382Y-73618334D01*
X65466379Y-73618329D01*
X65464056Y-73613347D01*
X65422287Y-73553695D01*
X65340908Y-73437473D01*
X65340906Y-73437470D01*
X65337749Y-73432962D01*
X65182038Y-73277251D01*
X65001654Y-73150944D01*
X64802076Y-73057880D01*
X64589371Y-73000885D01*
X64370000Y-72981693D01*
X64150629Y-73000885D01*
X63937924Y-73057880D01*
X63844562Y-73101415D01*
X63743334Y-73148618D01*
X63743329Y-73148621D01*
X63738347Y-73150944D01*
X63733840Y-73154100D01*
X63733838Y-73154101D01*
X63562473Y-73274092D01*
X63562470Y-73274094D01*
X63557962Y-73277251D01*
X63402251Y-73432962D01*
X63399094Y-73437470D01*
X63399092Y-73437473D01*
X63317713Y-73553695D01*
X63275944Y-73613347D01*
X63273621Y-73618329D01*
X63273618Y-73618334D01*
X63214195Y-73745769D01*
X63167278Y-73799054D01*
X63099001Y-73818515D01*
X63031041Y-73797973D01*
X62985805Y-73745769D01*
X62926382Y-73618334D01*
X62926379Y-73618329D01*
X62924056Y-73613347D01*
X62882287Y-73553695D01*
X62800908Y-73437473D01*
X62800906Y-73437470D01*
X62797749Y-73432962D01*
X62642038Y-73277251D01*
X62461654Y-73150944D01*
X62262076Y-73057880D01*
X62049371Y-73000885D01*
X61830000Y-72981693D01*
X61610629Y-73000885D01*
X61397924Y-73057880D01*
X61304562Y-73101415D01*
X61203334Y-73148618D01*
X61203329Y-73148621D01*
X61198347Y-73150944D01*
X61193840Y-73154100D01*
X61193838Y-73154101D01*
X61022473Y-73274092D01*
X61022470Y-73274094D01*
X61017962Y-73277251D01*
X60862251Y-73432962D01*
X60859094Y-73437470D01*
X60859092Y-73437473D01*
X60777713Y-73553695D01*
X60735944Y-73613347D01*
X60733621Y-73618329D01*
X60733618Y-73618334D01*
X60674195Y-73745769D01*
X60627278Y-73799054D01*
X60559001Y-73818515D01*
X60491041Y-73797973D01*
X60445805Y-73745769D01*
X60386382Y-73618334D01*
X60386379Y-73618329D01*
X60384056Y-73613347D01*
X60342287Y-73553695D01*
X60260908Y-73437473D01*
X60260906Y-73437470D01*
X60257749Y-73432962D01*
X60102038Y-73277251D01*
X59921654Y-73150944D01*
X59722076Y-73057880D01*
X59509371Y-73000885D01*
X59290000Y-72981693D01*
X59070629Y-73000885D01*
X58857924Y-73057880D01*
X58764562Y-73101415D01*
X58663334Y-73148618D01*
X58663329Y-73148621D01*
X58658347Y-73150944D01*
X58653840Y-73154100D01*
X58653838Y-73154101D01*
X58482473Y-73274092D01*
X58482470Y-73274094D01*
X58477962Y-73277251D01*
X58322251Y-73432962D01*
X58319094Y-73437470D01*
X58319092Y-73437473D01*
X58237713Y-73553695D01*
X58195944Y-73613347D01*
X58193621Y-73618329D01*
X58193618Y-73618334D01*
X58146415Y-73719562D01*
X58102880Y-73812924D01*
X58045885Y-74025629D01*
X58026693Y-74245000D01*
X49709277Y-74245000D01*
X49661144Y-74215677D01*
X49540046Y-74160617D01*
X49361817Y-74079580D01*
X49361809Y-74079577D01*
X49358365Y-74078011D01*
X49041240Y-73977718D01*
X48818896Y-73935906D01*
X48718087Y-73916949D01*
X48718085Y-73916949D01*
X48714364Y-73916249D01*
X48382470Y-73894496D01*
X48378690Y-73894704D01*
X48378689Y-73894704D01*
X48280918Y-73900085D01*
X48050366Y-73912773D01*
X48046639Y-73913434D01*
X48046635Y-73913434D01*
X47787510Y-73959358D01*
X47722864Y-73970815D01*
X47719239Y-73971920D01*
X47719234Y-73971921D01*
X47525044Y-74031106D01*
X47404707Y-74067782D01*
X47401243Y-74069313D01*
X47401236Y-74069316D01*
X47214051Y-74152070D01*
X47100503Y-74202269D01*
X47097249Y-74204205D01*
X47097243Y-74204208D01*
X46817918Y-74370389D01*
X46814659Y-74372328D01*
X46551316Y-74575496D01*
X46548617Y-74578152D01*
X46548618Y-74578152D01*
X46453523Y-74671765D01*
X46314288Y-74808829D01*
X46107009Y-75068949D01*
X45932481Y-75352086D01*
X45793232Y-75654140D01*
X45792073Y-75657740D01*
X45792070Y-75657747D01*
X45783368Y-75684771D01*
X45691280Y-75970735D01*
X45628100Y-76297285D01*
X45627833Y-76301061D01*
X45627832Y-76301066D01*
X45626067Y-76325997D01*
X45604610Y-76629061D01*
X45621147Y-76961255D01*
X45621788Y-76964986D01*
X45621789Y-76964994D01*
X45636586Y-77051103D01*
X45677474Y-77289057D01*
X45772774Y-77607718D01*
X45774287Y-77611189D01*
X45774289Y-77611195D01*
X45865458Y-77820370D01*
X45905666Y-77912622D01*
X46074226Y-78199352D01*
X46076527Y-78202367D01*
X46273712Y-78460742D01*
X46273717Y-78460748D01*
X46276012Y-78463755D01*
X46508102Y-78702002D01*
X46767132Y-78910640D01*
X47049352Y-79086648D01*
X47052800Y-79088260D01*
X47052801Y-79088260D01*
X47316172Y-79211352D01*
X47369417Y-79258315D01*
X47388818Y-79326609D01*
X47368217Y-79394551D01*
X47314154Y-79440570D01*
X47262823Y-79451500D01*
X45192500Y-79451500D01*
X45124379Y-79431498D01*
X45077886Y-79377842D01*
X45066500Y-79325500D01*
X45066500Y-59005000D01*
X55486693Y-59005000D01*
X55505885Y-59224371D01*
X55562880Y-59437076D01*
X55565205Y-59442061D01*
X55653618Y-59631666D01*
X55653621Y-59631671D01*
X55655944Y-59636653D01*
X55659100Y-59641160D01*
X55659101Y-59641162D01*
X55775105Y-59806832D01*
X55782251Y-59817038D01*
X55937962Y-59972749D01*
X56118346Y-60099056D01*
X56317924Y-60192120D01*
X56530629Y-60249115D01*
X56750000Y-60268307D01*
X56969371Y-60249115D01*
X57182076Y-60192120D01*
X57381654Y-60099056D01*
X57562038Y-59972749D01*
X57717749Y-59817038D01*
X57724896Y-59806832D01*
X57840899Y-59641162D01*
X57840900Y-59641160D01*
X57844056Y-59636653D01*
X57846379Y-59631671D01*
X57846382Y-59631666D01*
X57905805Y-59504231D01*
X57952722Y-59450946D01*
X58020999Y-59431485D01*
X58088959Y-59452027D01*
X58134195Y-59504231D01*
X58193618Y-59631666D01*
X58193621Y-59631671D01*
X58195944Y-59636653D01*
X58199100Y-59641160D01*
X58199101Y-59641162D01*
X58315105Y-59806832D01*
X58322251Y-59817038D01*
X58477962Y-59972749D01*
X58658346Y-60099056D01*
X58857924Y-60192120D01*
X59070629Y-60249115D01*
X59290000Y-60268307D01*
X59509371Y-60249115D01*
X59722076Y-60192120D01*
X59921654Y-60099056D01*
X60102038Y-59972749D01*
X60257749Y-59817038D01*
X60264896Y-59806832D01*
X60380899Y-59641162D01*
X60380900Y-59641160D01*
X60384056Y-59636653D01*
X60386379Y-59631671D01*
X60386382Y-59631666D01*
X60445805Y-59504231D01*
X60492722Y-59450946D01*
X60560999Y-59431485D01*
X60628959Y-59452027D01*
X60674195Y-59504231D01*
X60733618Y-59631666D01*
X60733621Y-59631671D01*
X60735944Y-59636653D01*
X60739100Y-59641160D01*
X60739101Y-59641162D01*
X60855105Y-59806832D01*
X60862251Y-59817038D01*
X61017962Y-59972749D01*
X61198346Y-60099056D01*
X61397924Y-60192120D01*
X61610629Y-60249115D01*
X61830000Y-60268307D01*
X62049371Y-60249115D01*
X62262076Y-60192120D01*
X62461654Y-60099056D01*
X62642038Y-59972749D01*
X62797749Y-59817038D01*
X62804896Y-59806832D01*
X62920899Y-59641162D01*
X62920900Y-59641160D01*
X62924056Y-59636653D01*
X62926379Y-59631671D01*
X62926382Y-59631666D01*
X62985805Y-59504231D01*
X63032722Y-59450946D01*
X63100999Y-59431485D01*
X63168959Y-59452027D01*
X63214195Y-59504231D01*
X63273618Y-59631666D01*
X63273621Y-59631671D01*
X63275944Y-59636653D01*
X63279100Y-59641160D01*
X63279101Y-59641162D01*
X63395105Y-59806832D01*
X63402251Y-59817038D01*
X63557962Y-59972749D01*
X63738346Y-60099056D01*
X63937924Y-60192120D01*
X64150629Y-60249115D01*
X64370000Y-60268307D01*
X64589371Y-60249115D01*
X64802076Y-60192120D01*
X65001654Y-60099056D01*
X65182038Y-59972749D01*
X65337749Y-59817038D01*
X65344896Y-59806832D01*
X65460899Y-59641162D01*
X65460900Y-59641160D01*
X65464056Y-59636653D01*
X65466379Y-59631671D01*
X65466382Y-59631666D01*
X65525805Y-59504231D01*
X65572722Y-59450946D01*
X65640999Y-59431485D01*
X65708959Y-59452027D01*
X65754195Y-59504231D01*
X65813618Y-59631666D01*
X65813621Y-59631671D01*
X65815944Y-59636653D01*
X65819100Y-59641160D01*
X65819101Y-59641162D01*
X65935105Y-59806832D01*
X65942251Y-59817038D01*
X66097962Y-59972749D01*
X66278346Y-60099056D01*
X66477924Y-60192120D01*
X66690629Y-60249115D01*
X66910000Y-60268307D01*
X67129371Y-60249115D01*
X67342076Y-60192120D01*
X67541654Y-60099056D01*
X67722038Y-59972749D01*
X67877749Y-59817038D01*
X67884896Y-59806832D01*
X68000899Y-59641162D01*
X68000900Y-59641160D01*
X68004056Y-59636653D01*
X68006379Y-59631671D01*
X68006382Y-59631666D01*
X68065805Y-59504231D01*
X68112722Y-59450946D01*
X68180999Y-59431485D01*
X68248959Y-59452027D01*
X68294195Y-59504231D01*
X68353618Y-59631666D01*
X68353621Y-59631671D01*
X68355944Y-59636653D01*
X68359100Y-59641160D01*
X68359101Y-59641162D01*
X68475105Y-59806832D01*
X68482251Y-59817038D01*
X68637962Y-59972749D01*
X68818346Y-60099056D01*
X69017924Y-60192120D01*
X69230629Y-60249115D01*
X69450000Y-60268307D01*
X69669371Y-60249115D01*
X69882076Y-60192120D01*
X70081654Y-60099056D01*
X70262038Y-59972749D01*
X70417749Y-59817038D01*
X70424896Y-59806832D01*
X70540899Y-59641162D01*
X70540900Y-59641160D01*
X70544056Y-59636653D01*
X70546379Y-59631671D01*
X70546382Y-59631666D01*
X70605805Y-59504231D01*
X70652722Y-59450946D01*
X70720999Y-59431485D01*
X70788959Y-59452027D01*
X70834195Y-59504231D01*
X70893618Y-59631666D01*
X70893621Y-59631671D01*
X70895944Y-59636653D01*
X70899100Y-59641160D01*
X70899101Y-59641162D01*
X71015105Y-59806832D01*
X71022251Y-59817038D01*
X71177962Y-59972749D01*
X71358346Y-60099056D01*
X71557924Y-60192120D01*
X71770629Y-60249115D01*
X71990000Y-60268307D01*
X72209371Y-60249115D01*
X72422076Y-60192120D01*
X72621654Y-60099056D01*
X72802038Y-59972749D01*
X72957749Y-59817038D01*
X72964896Y-59806832D01*
X73080899Y-59641162D01*
X73080900Y-59641160D01*
X73084056Y-59636653D01*
X73086379Y-59631671D01*
X73086382Y-59631666D01*
X73145805Y-59504231D01*
X73192722Y-59450946D01*
X73260999Y-59431485D01*
X73328959Y-59452027D01*
X73374195Y-59504231D01*
X73433618Y-59631666D01*
X73433621Y-59631671D01*
X73435944Y-59636653D01*
X73439100Y-59641160D01*
X73439101Y-59641162D01*
X73555105Y-59806832D01*
X73562251Y-59817038D01*
X73717962Y-59972749D01*
X73898346Y-60099056D01*
X74097924Y-60192120D01*
X74310629Y-60249115D01*
X74530000Y-60268307D01*
X74749371Y-60249115D01*
X74962076Y-60192120D01*
X75161654Y-60099056D01*
X75342038Y-59972749D01*
X75497749Y-59817038D01*
X75504896Y-59806832D01*
X75620899Y-59641162D01*
X75620900Y-59641160D01*
X75624056Y-59636653D01*
X75626379Y-59631671D01*
X75626382Y-59631666D01*
X75685805Y-59504231D01*
X75732722Y-59450946D01*
X75800999Y-59431485D01*
X75868959Y-59452027D01*
X75914195Y-59504231D01*
X75973618Y-59631666D01*
X75973621Y-59631671D01*
X75975944Y-59636653D01*
X75979100Y-59641160D01*
X75979101Y-59641162D01*
X76095105Y-59806832D01*
X76102251Y-59817038D01*
X76257962Y-59972749D01*
X76438346Y-60099056D01*
X76637924Y-60192120D01*
X76850629Y-60249115D01*
X77070000Y-60268307D01*
X77289371Y-60249115D01*
X77502076Y-60192120D01*
X77621054Y-60136640D01*
X80066463Y-60136640D01*
X80084163Y-60317160D01*
X80141418Y-60489273D01*
X80145065Y-60495295D01*
X80145066Y-60495297D01*
X80226276Y-60629391D01*
X80244500Y-60694662D01*
X80244500Y-64894162D01*
X80243970Y-64905396D01*
X80242292Y-64912901D01*
X80242541Y-64920820D01*
X80244438Y-64981194D01*
X80244500Y-64985151D01*
X80244500Y-65013165D01*
X80244996Y-65017090D01*
X80244996Y-65017091D01*
X80245008Y-65017186D01*
X80245941Y-65029031D01*
X80247335Y-65073387D01*
X80249547Y-65080999D01*
X80253013Y-65092930D01*
X80257023Y-65112294D01*
X80259573Y-65132481D01*
X80262489Y-65139845D01*
X80262490Y-65139850D01*
X80275907Y-65173738D01*
X80279752Y-65184967D01*
X80292131Y-65227575D01*
X80296169Y-65234402D01*
X80296170Y-65234405D01*
X80302488Y-65245088D01*
X80311188Y-65262846D01*
X80315761Y-65274397D01*
X80315765Y-65274403D01*
X80318681Y-65281770D01*
X80323339Y-65288181D01*
X80323340Y-65288183D01*
X80344764Y-65317670D01*
X80351281Y-65327592D01*
X80369826Y-65358950D01*
X80369829Y-65358954D01*
X80373866Y-65365780D01*
X80388250Y-65380164D01*
X80401091Y-65395198D01*
X80413058Y-65411669D01*
X80419166Y-65416722D01*
X80447255Y-65439959D01*
X80456035Y-65447949D01*
X80811242Y-65803156D01*
X80845268Y-65865468D01*
X80847545Y-65879953D01*
X80849659Y-65901510D01*
X80849661Y-65901518D01*
X80850348Y-65908527D01*
X80907603Y-66080640D01*
X80911250Y-66086662D01*
X80911251Y-66086664D01*
X80951490Y-66153106D01*
X81001565Y-66235791D01*
X81127567Y-66366269D01*
X81279344Y-66465589D01*
X81285948Y-66468045D01*
X81285950Y-66468046D01*
X81442743Y-66526357D01*
X81442745Y-66526357D01*
X81449353Y-66528815D01*
X81533180Y-66540000D01*
X81622165Y-66551874D01*
X81622169Y-66551874D01*
X81629146Y-66552805D01*
X81636157Y-66552167D01*
X81636161Y-66552167D01*
X81787117Y-66538428D01*
X81809785Y-66536365D01*
X81816487Y-66534187D01*
X81816489Y-66534187D01*
X81915667Y-66501962D01*
X81982293Y-66480314D01*
X81983020Y-66479881D01*
X82050895Y-66470301D01*
X82076552Y-66476872D01*
X82207168Y-66525448D01*
X82290995Y-66536633D01*
X82379980Y-66548507D01*
X82379984Y-66548507D01*
X82386961Y-66549438D01*
X82393972Y-66548800D01*
X82393976Y-66548800D01*
X82536459Y-66535832D01*
X82567600Y-66532998D01*
X82574300Y-66530821D01*
X82574305Y-66530820D01*
X82725471Y-66481703D01*
X82796439Y-66479676D01*
X82808313Y-66483433D01*
X82956188Y-66538428D01*
X82963171Y-66539360D01*
X82963172Y-66539360D01*
X83022717Y-66547305D01*
X83087594Y-66576141D01*
X83126582Y-66635474D01*
X83131450Y-66659897D01*
X83131474Y-66660143D01*
X83131476Y-66660151D01*
X83132163Y-66667160D01*
X83134387Y-66673845D01*
X83134387Y-66673846D01*
X83160626Y-66752721D01*
X83189418Y-66839273D01*
X83193065Y-66845295D01*
X83193066Y-66845297D01*
X83203978Y-66863314D01*
X83283380Y-66994424D01*
X83409382Y-67124902D01*
X83561159Y-67224222D01*
X83567763Y-67226678D01*
X83567765Y-67226679D01*
X83724558Y-67284990D01*
X83724560Y-67284990D01*
X83731168Y-67287448D01*
X83814995Y-67298633D01*
X83903980Y-67310507D01*
X83903984Y-67310507D01*
X83910961Y-67311438D01*
X83917972Y-67310800D01*
X83917976Y-67310800D01*
X84060459Y-67297832D01*
X84091600Y-67294998D01*
X84098302Y-67292820D01*
X84098304Y-67292820D01*
X84257409Y-67241124D01*
X84257412Y-67241123D01*
X84264108Y-67238947D01*
X84419912Y-67146069D01*
X84551266Y-67020982D01*
X84651643Y-66869902D01*
X84716055Y-66700338D01*
X84735706Y-66560513D01*
X84740748Y-66524639D01*
X84740748Y-66524636D01*
X84741299Y-66520717D01*
X84741616Y-66498000D01*
X84721397Y-66317745D01*
X84661745Y-66146448D01*
X84582646Y-66019862D01*
X84563500Y-65953093D01*
X84563500Y-60716623D01*
X84584552Y-60646896D01*
X84658126Y-60536157D01*
X84662027Y-60530286D01*
X84726439Y-60360722D01*
X84739427Y-60268307D01*
X84751132Y-60185023D01*
X84751132Y-60185020D01*
X84751683Y-60181101D01*
X84752000Y-60158384D01*
X84731781Y-59978129D01*
X84729464Y-59971475D01*
X84674448Y-59813490D01*
X84674446Y-59813487D01*
X84672129Y-59806832D01*
X84576010Y-59653008D01*
X84571048Y-59648011D01*
X84453162Y-59529299D01*
X84453158Y-59529296D01*
X84448199Y-59524302D01*
X84295050Y-59427111D01*
X84246300Y-59409752D01*
X84130809Y-59368627D01*
X84130804Y-59368626D01*
X84124174Y-59366265D01*
X84117186Y-59365432D01*
X84117183Y-59365431D01*
X83994082Y-59350752D01*
X83944064Y-59344788D01*
X83937061Y-59345524D01*
X83937060Y-59345524D01*
X83770672Y-59363012D01*
X83770670Y-59363013D01*
X83763672Y-59363748D01*
X83605869Y-59417468D01*
X83534938Y-59420486D01*
X83522887Y-59416107D01*
X83522666Y-59416727D01*
X83358425Y-59358243D01*
X83358420Y-59358242D01*
X83351790Y-59355881D01*
X83344802Y-59355048D01*
X83344799Y-59355047D01*
X83221698Y-59340368D01*
X83171680Y-59334404D01*
X83164677Y-59335140D01*
X83164676Y-59335140D01*
X82998288Y-59352628D01*
X82998286Y-59352629D01*
X82991288Y-59353364D01*
X82823947Y-59410331D01*
X82753016Y-59413349D01*
X82741088Y-59409756D01*
X82618952Y-59366265D01*
X82596424Y-59358243D01*
X82596422Y-59358243D01*
X82589790Y-59355881D01*
X82582802Y-59355048D01*
X82582799Y-59355047D01*
X82459698Y-59340368D01*
X82409680Y-59334404D01*
X82402677Y-59335140D01*
X82402676Y-59335140D01*
X82236288Y-59352628D01*
X82236286Y-59352629D01*
X82229288Y-59353364D01*
X82061947Y-59410331D01*
X81991016Y-59413349D01*
X81979088Y-59409756D01*
X81856952Y-59366265D01*
X81834424Y-59358243D01*
X81834422Y-59358243D01*
X81827790Y-59355881D01*
X81820802Y-59355048D01*
X81820799Y-59355047D01*
X81697698Y-59340368D01*
X81647680Y-59334404D01*
X81640677Y-59335140D01*
X81640676Y-59335140D01*
X81474288Y-59352628D01*
X81474286Y-59352629D01*
X81467288Y-59353364D01*
X81299947Y-59410331D01*
X81229016Y-59413349D01*
X81217088Y-59409756D01*
X81094952Y-59366265D01*
X81072424Y-59358243D01*
X81072422Y-59358243D01*
X81065790Y-59355881D01*
X81058802Y-59355048D01*
X81058799Y-59355047D01*
X80935698Y-59340368D01*
X80885680Y-59334404D01*
X80878677Y-59335140D01*
X80878676Y-59335140D01*
X80712288Y-59352628D01*
X80712286Y-59352629D01*
X80705288Y-59353364D01*
X80533579Y-59411818D01*
X80512565Y-59424746D01*
X80385095Y-59503166D01*
X80385092Y-59503168D01*
X80379088Y-59506862D01*
X80374053Y-59511793D01*
X80374050Y-59511795D01*
X80356176Y-59529299D01*
X80249493Y-59633771D01*
X80151235Y-59786238D01*
X80148826Y-59792858D01*
X80148824Y-59792861D01*
X80138606Y-59820935D01*
X80089197Y-59956685D01*
X80066463Y-60136640D01*
X77621054Y-60136640D01*
X77701654Y-60099056D01*
X77882038Y-59972749D01*
X78037749Y-59817038D01*
X78044896Y-59806832D01*
X78160899Y-59641162D01*
X78160900Y-59641160D01*
X78164056Y-59636653D01*
X78166379Y-59631671D01*
X78166382Y-59631666D01*
X78254795Y-59442061D01*
X78257120Y-59437076D01*
X78314115Y-59224371D01*
X78333307Y-59005000D01*
X78314115Y-58785629D01*
X78257120Y-58572924D01*
X78213585Y-58479562D01*
X78166382Y-58378334D01*
X78166379Y-58378329D01*
X78164056Y-58373347D01*
X78037749Y-58192962D01*
X77882038Y-58037251D01*
X77701654Y-57910944D01*
X77502076Y-57817880D01*
X77289371Y-57760885D01*
X77070000Y-57741693D01*
X76850629Y-57760885D01*
X76637924Y-57817880D01*
X76544562Y-57861415D01*
X76443334Y-57908618D01*
X76443329Y-57908621D01*
X76438347Y-57910944D01*
X76433840Y-57914100D01*
X76433838Y-57914101D01*
X76262473Y-58034092D01*
X76262470Y-58034094D01*
X76257962Y-58037251D01*
X76102251Y-58192962D01*
X75975944Y-58373347D01*
X75973621Y-58378329D01*
X75973618Y-58378334D01*
X75914195Y-58505769D01*
X75867278Y-58559054D01*
X75799001Y-58578515D01*
X75731041Y-58557973D01*
X75685805Y-58505769D01*
X75626382Y-58378334D01*
X75626379Y-58378329D01*
X75624056Y-58373347D01*
X75497749Y-58192962D01*
X75342038Y-58037251D01*
X75161654Y-57910944D01*
X74962076Y-57817880D01*
X74749371Y-57760885D01*
X74530000Y-57741693D01*
X74310629Y-57760885D01*
X74097924Y-57817880D01*
X74004562Y-57861415D01*
X73903334Y-57908618D01*
X73903329Y-57908621D01*
X73898347Y-57910944D01*
X73893840Y-57914100D01*
X73893838Y-57914101D01*
X73722473Y-58034092D01*
X73722470Y-58034094D01*
X73717962Y-58037251D01*
X73562251Y-58192962D01*
X73435944Y-58373347D01*
X73433621Y-58378329D01*
X73433618Y-58378334D01*
X73374195Y-58505769D01*
X73327278Y-58559054D01*
X73259001Y-58578515D01*
X73191041Y-58557973D01*
X73145805Y-58505769D01*
X73086382Y-58378334D01*
X73086379Y-58378329D01*
X73084056Y-58373347D01*
X72957749Y-58192962D01*
X72802038Y-58037251D01*
X72621654Y-57910944D01*
X72422076Y-57817880D01*
X72209371Y-57760885D01*
X71990000Y-57741693D01*
X71770629Y-57760885D01*
X71557924Y-57817880D01*
X71464562Y-57861415D01*
X71363334Y-57908618D01*
X71363329Y-57908621D01*
X71358347Y-57910944D01*
X71353840Y-57914100D01*
X71353838Y-57914101D01*
X71182473Y-58034092D01*
X71182470Y-58034094D01*
X71177962Y-58037251D01*
X71022251Y-58192962D01*
X70895944Y-58373347D01*
X70893621Y-58378329D01*
X70893618Y-58378334D01*
X70834195Y-58505769D01*
X70787278Y-58559054D01*
X70719001Y-58578515D01*
X70651041Y-58557973D01*
X70605805Y-58505769D01*
X70546382Y-58378334D01*
X70546379Y-58378329D01*
X70544056Y-58373347D01*
X70417749Y-58192962D01*
X70262038Y-58037251D01*
X70081654Y-57910944D01*
X69882076Y-57817880D01*
X69669371Y-57760885D01*
X69450000Y-57741693D01*
X69230629Y-57760885D01*
X69201512Y-57768687D01*
X69130537Y-57766997D01*
X69079807Y-57736075D01*
X68812245Y-57468512D01*
X68804675Y-57460193D01*
X68800553Y-57453697D01*
X68750734Y-57406914D01*
X68747893Y-57404160D01*
X68728094Y-57384361D01*
X68724969Y-57381937D01*
X68724960Y-57381929D01*
X68724874Y-57381863D01*
X68715849Y-57374155D01*
X68689285Y-57349210D01*
X68683506Y-57343783D01*
X68665669Y-57333977D01*
X68649153Y-57323127D01*
X68633067Y-57310650D01*
X68592334Y-57293024D01*
X68581686Y-57287807D01*
X68556809Y-57274131D01*
X68542803Y-57266431D01*
X68535128Y-57264460D01*
X68535122Y-57264458D01*
X68523089Y-57261369D01*
X68504387Y-57254966D01*
X68485708Y-57246883D01*
X68445913Y-57240580D01*
X68441873Y-57239940D01*
X68430260Y-57237535D01*
X68387282Y-57226500D01*
X68366935Y-57226500D01*
X68347224Y-57224949D01*
X68334950Y-57223005D01*
X68327121Y-57221765D01*
X68319229Y-57222511D01*
X68282944Y-57225941D01*
X68271086Y-57226500D01*
X57972020Y-57226500D01*
X57960786Y-57225970D01*
X57953281Y-57224292D01*
X57885571Y-57226420D01*
X57884988Y-57226438D01*
X57881031Y-57226500D01*
X57853017Y-57226500D01*
X57849092Y-57226996D01*
X57849091Y-57226996D01*
X57848996Y-57227008D01*
X57837151Y-57227941D01*
X57807330Y-57228878D01*
X57800718Y-57229086D01*
X57800717Y-57229086D01*
X57792795Y-57229335D01*
X57773252Y-57235013D01*
X57753888Y-57239023D01*
X57741560Y-57240580D01*
X57741558Y-57240580D01*
X57733701Y-57241573D01*
X57726337Y-57244489D01*
X57726332Y-57244490D01*
X57692444Y-57257907D01*
X57681215Y-57261752D01*
X57665111Y-57266431D01*
X57638607Y-57274131D01*
X57631780Y-57278169D01*
X57631777Y-57278170D01*
X57621094Y-57284488D01*
X57603336Y-57293188D01*
X57591785Y-57297761D01*
X57591779Y-57297765D01*
X57584412Y-57300681D01*
X57578001Y-57305339D01*
X57577999Y-57305340D01*
X57548512Y-57326764D01*
X57538590Y-57333281D01*
X57507232Y-57351826D01*
X57507228Y-57351829D01*
X57500402Y-57355866D01*
X57486018Y-57370250D01*
X57470984Y-57383091D01*
X57454513Y-57395058D01*
X57449460Y-57401166D01*
X57426223Y-57429255D01*
X57418233Y-57438035D01*
X57120193Y-57736075D01*
X57057881Y-57770101D01*
X56998488Y-57768687D01*
X56974685Y-57762309D01*
X56974686Y-57762309D01*
X56969371Y-57760885D01*
X56750000Y-57741693D01*
X56530629Y-57760885D01*
X56317924Y-57817880D01*
X56224562Y-57861415D01*
X56123334Y-57908618D01*
X56123329Y-57908621D01*
X56118347Y-57910944D01*
X56113840Y-57914100D01*
X56113838Y-57914101D01*
X55942473Y-58034092D01*
X55942470Y-58034094D01*
X55937962Y-58037251D01*
X55782251Y-58192962D01*
X55655944Y-58373347D01*
X55653621Y-58378329D01*
X55653618Y-58378334D01*
X55606415Y-58479562D01*
X55562880Y-58572924D01*
X55505885Y-58785629D01*
X55486693Y-59005000D01*
X45066500Y-59005000D01*
X45066500Y-54691134D01*
X46755500Y-54691134D01*
X46762255Y-54753316D01*
X46813385Y-54889705D01*
X46900739Y-55006261D01*
X47017295Y-55093615D01*
X47153684Y-55144745D01*
X47215866Y-55151500D01*
X49012134Y-55151500D01*
X49074316Y-55144745D01*
X49210705Y-55093615D01*
X49327261Y-55006261D01*
X49414615Y-54889705D01*
X49465745Y-54753316D01*
X49472500Y-54691134D01*
X49472500Y-52894866D01*
X49465745Y-52832684D01*
X49414615Y-52696295D01*
X49327261Y-52579739D01*
X49210705Y-52492385D01*
X49074316Y-52441255D01*
X49012134Y-52434500D01*
X47215866Y-52434500D01*
X47153684Y-52441255D01*
X47017295Y-52492385D01*
X46900739Y-52579739D01*
X46813385Y-52696295D01*
X46762255Y-52832684D01*
X46755500Y-52894866D01*
X46755500Y-54691134D01*
X45066500Y-54691134D01*
X45066500Y-49099000D01*
X58026693Y-49099000D01*
X58045885Y-49318371D01*
X58102880Y-49531076D01*
X58105205Y-49536061D01*
X58193618Y-49725666D01*
X58193621Y-49725671D01*
X58195944Y-49730653D01*
X58199100Y-49735160D01*
X58199101Y-49735162D01*
X58310123Y-49893717D01*
X58322251Y-49911038D01*
X58477962Y-50066749D01*
X58658346Y-50193056D01*
X58857924Y-50286120D01*
X59070629Y-50343115D01*
X59290000Y-50362307D01*
X59509371Y-50343115D01*
X59722076Y-50286120D01*
X59921654Y-50193056D01*
X60102038Y-50066749D01*
X60257749Y-49911038D01*
X60269878Y-49893717D01*
X60380899Y-49735162D01*
X60380900Y-49735160D01*
X60384056Y-49730653D01*
X60386379Y-49725671D01*
X60386382Y-49725666D01*
X60445805Y-49598231D01*
X60492722Y-49544946D01*
X60560999Y-49525485D01*
X60628959Y-49546027D01*
X60674195Y-49598231D01*
X60733618Y-49725666D01*
X60733621Y-49725671D01*
X60735944Y-49730653D01*
X60739100Y-49735160D01*
X60739101Y-49735162D01*
X60850123Y-49893717D01*
X60862251Y-49911038D01*
X61017962Y-50066749D01*
X61198346Y-50193056D01*
X61397924Y-50286120D01*
X61610629Y-50343115D01*
X61830000Y-50362307D01*
X62049371Y-50343115D01*
X62262076Y-50286120D01*
X62461654Y-50193056D01*
X62642038Y-50066749D01*
X62797749Y-49911038D01*
X62809878Y-49893717D01*
X62920899Y-49735162D01*
X62920900Y-49735160D01*
X62924056Y-49730653D01*
X62926379Y-49725671D01*
X62926382Y-49725666D01*
X62985805Y-49598231D01*
X63032722Y-49544946D01*
X63100999Y-49525485D01*
X63168959Y-49546027D01*
X63214195Y-49598231D01*
X63273618Y-49725666D01*
X63273621Y-49725671D01*
X63275944Y-49730653D01*
X63279100Y-49735160D01*
X63279101Y-49735162D01*
X63390123Y-49893717D01*
X63402251Y-49911038D01*
X63557962Y-50066749D01*
X63738346Y-50193056D01*
X63937924Y-50286120D01*
X64150629Y-50343115D01*
X64370000Y-50362307D01*
X64589371Y-50343115D01*
X64802076Y-50286120D01*
X65001654Y-50193056D01*
X65182038Y-50066749D01*
X65337749Y-49911038D01*
X65349878Y-49893717D01*
X65460899Y-49735162D01*
X65460900Y-49735160D01*
X65464056Y-49730653D01*
X65466379Y-49725671D01*
X65466382Y-49725666D01*
X65525805Y-49598231D01*
X65572722Y-49544946D01*
X65640999Y-49525485D01*
X65708959Y-49546027D01*
X65754195Y-49598231D01*
X65813618Y-49725666D01*
X65813621Y-49725671D01*
X65815944Y-49730653D01*
X65819100Y-49735160D01*
X65819101Y-49735162D01*
X65930123Y-49893717D01*
X65942251Y-49911038D01*
X66097962Y-50066749D01*
X66278346Y-50193056D01*
X66477924Y-50286120D01*
X66690629Y-50343115D01*
X66910000Y-50362307D01*
X67129371Y-50343115D01*
X67342076Y-50286120D01*
X67541654Y-50193056D01*
X67722038Y-50066749D01*
X67877749Y-49911038D01*
X67889878Y-49893717D01*
X68000899Y-49735162D01*
X68000900Y-49735160D01*
X68004056Y-49730653D01*
X68006379Y-49725671D01*
X68006382Y-49725666D01*
X68094795Y-49536061D01*
X68097120Y-49531076D01*
X68154115Y-49318371D01*
X68173307Y-49099000D01*
X70726693Y-49099000D01*
X70745885Y-49318371D01*
X70802880Y-49531076D01*
X70805205Y-49536061D01*
X70893618Y-49725666D01*
X70893621Y-49725671D01*
X70895944Y-49730653D01*
X70899100Y-49735160D01*
X70899101Y-49735162D01*
X71010123Y-49893717D01*
X71022251Y-49911038D01*
X71177962Y-50066749D01*
X71358346Y-50193056D01*
X71557924Y-50286120D01*
X71770629Y-50343115D01*
X71990000Y-50362307D01*
X72209371Y-50343115D01*
X72422076Y-50286120D01*
X72621654Y-50193056D01*
X72802038Y-50066749D01*
X72957749Y-49911038D01*
X72969878Y-49893717D01*
X73080899Y-49735162D01*
X73080900Y-49735160D01*
X73084056Y-49730653D01*
X73086379Y-49725671D01*
X73086382Y-49725666D01*
X73145805Y-49598231D01*
X73192722Y-49544946D01*
X73260999Y-49525485D01*
X73328959Y-49546027D01*
X73374195Y-49598231D01*
X73433618Y-49725666D01*
X73433621Y-49725671D01*
X73435944Y-49730653D01*
X73439100Y-49735160D01*
X73439101Y-49735162D01*
X73550123Y-49893717D01*
X73562251Y-49911038D01*
X73717962Y-50066749D01*
X73898346Y-50193056D01*
X74097924Y-50286120D01*
X74310629Y-50343115D01*
X74530000Y-50362307D01*
X74749371Y-50343115D01*
X74962076Y-50286120D01*
X75161654Y-50193056D01*
X75342038Y-50066749D01*
X75497749Y-49911038D01*
X75509878Y-49893717D01*
X75582287Y-49790305D01*
X75637744Y-49745977D01*
X75708363Y-49738668D01*
X75771724Y-49770699D01*
X75807709Y-49831900D01*
X75811500Y-49862576D01*
X75811500Y-49897134D01*
X75818255Y-49959316D01*
X75869385Y-50095705D01*
X75956739Y-50212261D01*
X76073295Y-50299615D01*
X76209684Y-50350745D01*
X76271866Y-50357500D01*
X77868134Y-50357500D01*
X77930316Y-50350745D01*
X78066705Y-50299615D01*
X78183261Y-50212261D01*
X78270615Y-50095705D01*
X78321745Y-49959316D01*
X78328500Y-49897134D01*
X78328500Y-48300866D01*
X78321745Y-48238684D01*
X78270615Y-48102295D01*
X78183261Y-47985739D01*
X78066705Y-47898385D01*
X77930316Y-47847255D01*
X77868134Y-47840500D01*
X76271866Y-47840500D01*
X76209684Y-47847255D01*
X76073295Y-47898385D01*
X75956739Y-47985739D01*
X75869385Y-48102295D01*
X75818255Y-48238684D01*
X75811500Y-48300866D01*
X75811500Y-48335424D01*
X75791498Y-48403545D01*
X75737842Y-48450038D01*
X75667568Y-48460142D01*
X75602988Y-48430648D01*
X75582287Y-48407695D01*
X75500908Y-48291473D01*
X75500906Y-48291470D01*
X75497749Y-48286962D01*
X75342038Y-48131251D01*
X75161654Y-48004944D01*
X74962076Y-47911880D01*
X74749371Y-47854885D01*
X74530000Y-47835693D01*
X74310629Y-47854885D01*
X74097924Y-47911880D01*
X74028133Y-47944424D01*
X73903334Y-48002618D01*
X73903329Y-48002621D01*
X73898347Y-48004944D01*
X73893840Y-48008100D01*
X73893838Y-48008101D01*
X73722473Y-48128092D01*
X73722470Y-48128094D01*
X73717962Y-48131251D01*
X73562251Y-48286962D01*
X73559094Y-48291470D01*
X73559092Y-48291473D01*
X73439101Y-48462838D01*
X73439100Y-48462840D01*
X73435944Y-48467347D01*
X73433621Y-48472329D01*
X73433618Y-48472334D01*
X73374195Y-48599769D01*
X73327278Y-48653054D01*
X73259001Y-48672515D01*
X73191041Y-48651973D01*
X73145805Y-48599769D01*
X73086382Y-48472334D01*
X73086379Y-48472329D01*
X73084056Y-48467347D01*
X73080900Y-48462840D01*
X73080899Y-48462838D01*
X72960908Y-48291473D01*
X72960906Y-48291470D01*
X72957749Y-48286962D01*
X72802038Y-48131251D01*
X72621654Y-48004944D01*
X72422076Y-47911880D01*
X72209371Y-47854885D01*
X71990000Y-47835693D01*
X71770629Y-47854885D01*
X71557924Y-47911880D01*
X71488133Y-47944424D01*
X71363334Y-48002618D01*
X71363329Y-48002621D01*
X71358347Y-48004944D01*
X71353840Y-48008100D01*
X71353838Y-48008101D01*
X71182473Y-48128092D01*
X71182470Y-48128094D01*
X71177962Y-48131251D01*
X71022251Y-48286962D01*
X71019094Y-48291470D01*
X71019092Y-48291473D01*
X70899101Y-48462838D01*
X70899100Y-48462840D01*
X70895944Y-48467347D01*
X70893621Y-48472329D01*
X70893618Y-48472334D01*
X70846415Y-48573562D01*
X70802880Y-48666924D01*
X70745885Y-48879629D01*
X70726693Y-49099000D01*
X68173307Y-49099000D01*
X68154115Y-48879629D01*
X68097120Y-48666924D01*
X68053585Y-48573562D01*
X68006382Y-48472334D01*
X68006379Y-48472329D01*
X68004056Y-48467347D01*
X68000900Y-48462840D01*
X68000899Y-48462838D01*
X67880908Y-48291473D01*
X67880906Y-48291470D01*
X67877749Y-48286962D01*
X67722038Y-48131251D01*
X67541654Y-48004944D01*
X67342076Y-47911880D01*
X67129371Y-47854885D01*
X66910000Y-47835693D01*
X66690629Y-47854885D01*
X66477924Y-47911880D01*
X66408133Y-47944424D01*
X66283334Y-48002618D01*
X66283329Y-48002621D01*
X66278347Y-48004944D01*
X66273840Y-48008100D01*
X66273838Y-48008101D01*
X66102473Y-48128092D01*
X66102470Y-48128094D01*
X66097962Y-48131251D01*
X65942251Y-48286962D01*
X65939094Y-48291470D01*
X65939092Y-48291473D01*
X65819101Y-48462838D01*
X65819100Y-48462840D01*
X65815944Y-48467347D01*
X65813621Y-48472329D01*
X65813618Y-48472334D01*
X65754195Y-48599769D01*
X65707278Y-48653054D01*
X65639001Y-48672515D01*
X65571041Y-48651973D01*
X65525805Y-48599769D01*
X65466382Y-48472334D01*
X65466379Y-48472329D01*
X65464056Y-48467347D01*
X65460900Y-48462840D01*
X65460899Y-48462838D01*
X65340908Y-48291473D01*
X65340906Y-48291470D01*
X65337749Y-48286962D01*
X65182038Y-48131251D01*
X65001654Y-48004944D01*
X64802076Y-47911880D01*
X64589371Y-47854885D01*
X64370000Y-47835693D01*
X64150629Y-47854885D01*
X63937924Y-47911880D01*
X63868133Y-47944424D01*
X63743334Y-48002618D01*
X63743329Y-48002621D01*
X63738347Y-48004944D01*
X63733840Y-48008100D01*
X63733838Y-48008101D01*
X63562473Y-48128092D01*
X63562470Y-48128094D01*
X63557962Y-48131251D01*
X63402251Y-48286962D01*
X63399094Y-48291470D01*
X63399092Y-48291473D01*
X63279101Y-48462838D01*
X63279100Y-48462840D01*
X63275944Y-48467347D01*
X63273621Y-48472329D01*
X63273618Y-48472334D01*
X63214195Y-48599769D01*
X63167278Y-48653054D01*
X63099001Y-48672515D01*
X63031041Y-48651973D01*
X62985805Y-48599769D01*
X62926382Y-48472334D01*
X62926379Y-48472329D01*
X62924056Y-48467347D01*
X62920900Y-48462840D01*
X62920899Y-48462838D01*
X62800908Y-48291473D01*
X62800906Y-48291470D01*
X62797749Y-48286962D01*
X62642038Y-48131251D01*
X62461654Y-48004944D01*
X62262076Y-47911880D01*
X62049371Y-47854885D01*
X61830000Y-47835693D01*
X61721484Y-47845187D01*
X61651881Y-47831198D01*
X61600889Y-47781799D01*
X61584698Y-47712673D01*
X61592717Y-47674921D01*
X61599553Y-47656925D01*
X61599553Y-47656923D01*
X61602055Y-47650338D01*
X61609341Y-47598497D01*
X61638630Y-47533823D01*
X61698234Y-47495251D01*
X61750779Y-47491141D01*
X61761245Y-47492538D01*
X61805980Y-47498507D01*
X61805984Y-47498507D01*
X61812961Y-47499438D01*
X61819972Y-47498800D01*
X61819976Y-47498800D01*
X61962459Y-47485832D01*
X61993600Y-47482998D01*
X62000302Y-47480820D01*
X62000304Y-47480820D01*
X62159409Y-47429124D01*
X62159412Y-47429123D01*
X62166108Y-47426947D01*
X62321912Y-47334069D01*
X62453266Y-47208982D01*
X62553643Y-47057902D01*
X62618055Y-46888338D01*
X62643299Y-46708717D01*
X62643616Y-46686000D01*
X62623397Y-46505745D01*
X62611306Y-46471023D01*
X62566064Y-46341106D01*
X62566062Y-46341103D01*
X62563745Y-46334448D01*
X62484646Y-46207862D01*
X62465500Y-46141093D01*
X62465500Y-45450609D01*
X62486552Y-45380882D01*
X62506660Y-45350617D01*
X62553643Y-45279902D01*
X62598289Y-45162373D01*
X62615555Y-45116920D01*
X62615556Y-45116918D01*
X62618055Y-45110338D01*
X62619035Y-45103366D01*
X62642748Y-44934639D01*
X62642748Y-44934636D01*
X62643299Y-44930717D01*
X62643616Y-44908000D01*
X62623397Y-44727745D01*
X62621080Y-44721091D01*
X62566064Y-44563106D01*
X62566062Y-44563103D01*
X62563745Y-44556448D01*
X62495349Y-44446990D01*
X62471359Y-44408598D01*
X62467626Y-44402624D01*
X62405514Y-44340077D01*
X62344778Y-44278915D01*
X62344774Y-44278912D01*
X62339815Y-44273918D01*
X62328697Y-44266862D01*
X62270288Y-44229795D01*
X62186666Y-44176727D01*
X62157463Y-44166328D01*
X62022425Y-44118243D01*
X62022420Y-44118242D01*
X62015790Y-44115881D01*
X62008802Y-44115048D01*
X62008799Y-44115047D01*
X61885698Y-44100368D01*
X61835680Y-44094404D01*
X61828677Y-44095140D01*
X61828676Y-44095140D01*
X61662288Y-44112628D01*
X61662286Y-44112629D01*
X61655288Y-44113364D01*
X61483579Y-44171818D01*
X61387822Y-44230729D01*
X61319323Y-44249386D01*
X61254288Y-44229795D01*
X61232142Y-44215741D01*
X61170666Y-44176727D01*
X61141463Y-44166328D01*
X61006425Y-44118243D01*
X61006420Y-44118242D01*
X60999790Y-44115881D01*
X60992802Y-44115048D01*
X60992799Y-44115047D01*
X60869698Y-44100368D01*
X60819680Y-44094404D01*
X60812677Y-44095140D01*
X60812676Y-44095140D01*
X60646288Y-44112628D01*
X60646286Y-44112629D01*
X60639288Y-44113364D01*
X60467579Y-44171818D01*
X60461575Y-44175512D01*
X60319095Y-44263166D01*
X60319092Y-44263168D01*
X60313088Y-44266862D01*
X60308053Y-44271793D01*
X60308050Y-44271795D01*
X60188525Y-44388843D01*
X60183493Y-44393771D01*
X60085235Y-44546238D01*
X60082826Y-44552858D01*
X60082824Y-44552861D01*
X60036850Y-44679173D01*
X60023197Y-44716685D01*
X60000463Y-44896640D01*
X60018163Y-45077160D01*
X60075418Y-45249273D01*
X60079065Y-45255295D01*
X60079066Y-45255297D01*
X60160276Y-45389391D01*
X60178500Y-45454662D01*
X60178500Y-46904436D01*
X60158411Y-46972691D01*
X60085235Y-47086238D01*
X60082826Y-47092858D01*
X60082824Y-47092861D01*
X60036850Y-47219173D01*
X60023197Y-47256685D01*
X60000463Y-47436640D01*
X60018163Y-47617160D01*
X60075418Y-47789273D01*
X60079065Y-47795295D01*
X60079066Y-47795297D01*
X60105684Y-47839249D01*
X60123863Y-47907879D01*
X60102052Y-47975443D01*
X60047176Y-48020488D01*
X59976658Y-48028715D01*
X59931364Y-48010088D01*
X59930924Y-48010850D01*
X59926164Y-48008102D01*
X59921654Y-48004944D01*
X59722076Y-47911880D01*
X59509371Y-47854885D01*
X59290000Y-47835693D01*
X59070629Y-47854885D01*
X58857924Y-47911880D01*
X58788133Y-47944424D01*
X58663334Y-48002618D01*
X58663329Y-48002621D01*
X58658347Y-48004944D01*
X58653840Y-48008100D01*
X58653838Y-48008101D01*
X58482473Y-48128092D01*
X58482470Y-48128094D01*
X58477962Y-48131251D01*
X58322251Y-48286962D01*
X58319094Y-48291470D01*
X58319092Y-48291473D01*
X58199101Y-48462838D01*
X58199100Y-48462840D01*
X58195944Y-48467347D01*
X58193621Y-48472329D01*
X58193618Y-48472334D01*
X58146415Y-48573562D01*
X58102880Y-48666924D01*
X58045885Y-48879629D01*
X58026693Y-49099000D01*
X45066500Y-49099000D01*
X45066500Y-46144695D01*
X46751251Y-46144695D01*
X46751548Y-46149848D01*
X46751548Y-46149851D01*
X46757011Y-46244590D01*
X46764110Y-46367715D01*
X46765247Y-46372761D01*
X46765248Y-46372767D01*
X46785119Y-46460939D01*
X46813222Y-46585639D01*
X46897266Y-46792616D01*
X46899965Y-46797020D01*
X47007616Y-46972691D01*
X47013987Y-46983088D01*
X47160250Y-47151938D01*
X47332126Y-47294632D01*
X47525000Y-47407338D01*
X47733692Y-47487030D01*
X47738760Y-47488061D01*
X47738763Y-47488062D01*
X47846017Y-47509883D01*
X47952597Y-47531567D01*
X47957772Y-47531757D01*
X47957774Y-47531757D01*
X48170673Y-47539564D01*
X48170677Y-47539564D01*
X48175837Y-47539753D01*
X48180957Y-47539097D01*
X48180959Y-47539097D01*
X48392288Y-47512025D01*
X48392289Y-47512025D01*
X48397416Y-47511368D01*
X48402366Y-47509883D01*
X48606429Y-47448661D01*
X48606434Y-47448659D01*
X48611384Y-47447174D01*
X48811994Y-47348896D01*
X48993860Y-47219173D01*
X49152096Y-47061489D01*
X49159408Y-47051314D01*
X49279435Y-46884277D01*
X49282453Y-46880077D01*
X49365206Y-46712639D01*
X49379136Y-46684453D01*
X49379137Y-46684451D01*
X49381430Y-46679811D01*
X49432189Y-46512744D01*
X49444865Y-46471023D01*
X49444865Y-46471021D01*
X49446370Y-46466069D01*
X49475529Y-46244590D01*
X49475611Y-46241240D01*
X49477074Y-46181365D01*
X49477074Y-46181361D01*
X49477156Y-46178000D01*
X49458852Y-45955361D01*
X49404431Y-45738702D01*
X49315354Y-45533840D01*
X49194014Y-45346277D01*
X49043670Y-45181051D01*
X49039619Y-45177852D01*
X49039615Y-45177848D01*
X48872414Y-45045800D01*
X48872410Y-45045798D01*
X48868359Y-45042598D01*
X48827053Y-45019796D01*
X48777084Y-44969364D01*
X48762312Y-44899921D01*
X48787428Y-44833516D01*
X48814780Y-44806909D01*
X48858603Y-44775650D01*
X48993860Y-44679173D01*
X49152096Y-44521489D01*
X49211594Y-44438689D01*
X49279435Y-44344277D01*
X49282453Y-44340077D01*
X49315519Y-44273174D01*
X49379136Y-44144453D01*
X49379137Y-44144451D01*
X49381430Y-44139811D01*
X49446370Y-43926069D01*
X49475529Y-43704590D01*
X49477156Y-43638000D01*
X49458852Y-43415361D01*
X49404431Y-43198702D01*
X49315354Y-42993840D01*
X49194014Y-42806277D01*
X49190532Y-42802450D01*
X49046798Y-42644488D01*
X49015746Y-42580642D01*
X49024141Y-42510143D01*
X49069317Y-42455375D01*
X49095761Y-42441706D01*
X49202297Y-42401767D01*
X49210705Y-42398615D01*
X49327261Y-42311261D01*
X49414615Y-42194705D01*
X49465745Y-42058316D01*
X49472500Y-41996134D01*
X49472500Y-40199866D01*
X49465745Y-40137684D01*
X49414615Y-40001295D01*
X49327261Y-39884739D01*
X49210705Y-39797385D01*
X49074316Y-39746255D01*
X49012134Y-39739500D01*
X47215866Y-39739500D01*
X47153684Y-39746255D01*
X47017295Y-39797385D01*
X46900739Y-39884739D01*
X46813385Y-40001295D01*
X46762255Y-40137684D01*
X46755500Y-40199866D01*
X46755500Y-41996134D01*
X46762255Y-42058316D01*
X46813385Y-42194705D01*
X46900739Y-42311261D01*
X47017295Y-42398615D01*
X47025704Y-42401767D01*
X47025705Y-42401768D01*
X47134451Y-42442535D01*
X47191216Y-42485176D01*
X47215916Y-42551738D01*
X47200709Y-42621087D01*
X47181316Y-42647568D01*
X47054629Y-42780138D01*
X46928743Y-42964680D01*
X46834688Y-43167305D01*
X46774989Y-43382570D01*
X46751251Y-43604695D01*
X46751548Y-43609848D01*
X46751548Y-43609851D01*
X46757011Y-43704590D01*
X46764110Y-43827715D01*
X46765247Y-43832761D01*
X46765248Y-43832767D01*
X46785119Y-43920939D01*
X46813222Y-44045639D01*
X46897266Y-44252616D01*
X46899965Y-44257020D01*
X46992852Y-44408598D01*
X47013987Y-44443088D01*
X47160250Y-44611938D01*
X47332126Y-44754632D01*
X47402595Y-44795811D01*
X47405445Y-44797476D01*
X47454169Y-44849114D01*
X47467240Y-44918897D01*
X47440509Y-44984669D01*
X47400055Y-45018027D01*
X47387607Y-45024507D01*
X47383474Y-45027610D01*
X47383471Y-45027612D01*
X47264524Y-45116920D01*
X47208965Y-45158635D01*
X47054629Y-45320138D01*
X47051715Y-45324410D01*
X47051714Y-45324411D01*
X46990691Y-45413868D01*
X46928743Y-45504680D01*
X46834688Y-45707305D01*
X46774989Y-45922570D01*
X46751251Y-46144695D01*
X45066500Y-46144695D01*
X45066500Y-34376134D01*
X46755500Y-34376134D01*
X46762255Y-34438316D01*
X46813385Y-34574705D01*
X46900739Y-34691261D01*
X47017295Y-34778615D01*
X47153684Y-34829745D01*
X47215866Y-34836500D01*
X49012134Y-34836500D01*
X49074316Y-34829745D01*
X49210705Y-34778615D01*
X49327261Y-34691261D01*
X49414615Y-34574705D01*
X49465745Y-34438316D01*
X49472500Y-34376134D01*
X49472500Y-33859000D01*
X55486693Y-33859000D01*
X55505885Y-34078371D01*
X55562880Y-34291076D01*
X55565205Y-34296061D01*
X55653618Y-34485666D01*
X55653621Y-34485671D01*
X55655944Y-34490653D01*
X55659100Y-34495160D01*
X55659101Y-34495162D01*
X55719830Y-34581891D01*
X55782251Y-34671038D01*
X55937962Y-34826749D01*
X55942471Y-34829906D01*
X55942473Y-34829908D01*
X56017241Y-34882261D01*
X56118346Y-34953056D01*
X56317924Y-35046120D01*
X56530629Y-35103115D01*
X56750000Y-35122307D01*
X56969371Y-35103115D01*
X57182076Y-35046120D01*
X57381654Y-34953056D01*
X57482759Y-34882261D01*
X57557527Y-34829908D01*
X57557529Y-34829906D01*
X57562038Y-34826749D01*
X57717749Y-34671038D01*
X57780171Y-34581891D01*
X57840899Y-34495162D01*
X57840900Y-34495160D01*
X57844056Y-34490653D01*
X57846379Y-34485671D01*
X57846382Y-34485666D01*
X57905805Y-34358231D01*
X57952722Y-34304946D01*
X58020999Y-34285485D01*
X58088959Y-34306027D01*
X58134195Y-34358231D01*
X58193618Y-34485666D01*
X58193621Y-34485671D01*
X58195944Y-34490653D01*
X58199100Y-34495160D01*
X58199101Y-34495162D01*
X58259830Y-34581891D01*
X58322251Y-34671038D01*
X58477962Y-34826749D01*
X58482471Y-34829906D01*
X58482473Y-34829908D01*
X58557241Y-34882261D01*
X58658346Y-34953056D01*
X58857924Y-35046120D01*
X59070629Y-35103115D01*
X59290000Y-35122307D01*
X59509371Y-35103115D01*
X59722076Y-35046120D01*
X59921654Y-34953056D01*
X60022759Y-34882261D01*
X60097527Y-34829908D01*
X60097529Y-34829906D01*
X60102038Y-34826749D01*
X60257749Y-34671038D01*
X60320171Y-34581891D01*
X60380899Y-34495162D01*
X60380900Y-34495160D01*
X60384056Y-34490653D01*
X60386379Y-34485671D01*
X60386382Y-34485666D01*
X60445805Y-34358231D01*
X60492722Y-34304946D01*
X60560999Y-34285485D01*
X60628959Y-34306027D01*
X60674195Y-34358231D01*
X60733618Y-34485666D01*
X60733621Y-34485671D01*
X60735944Y-34490653D01*
X60739100Y-34495160D01*
X60739101Y-34495162D01*
X60799830Y-34581891D01*
X60862251Y-34671038D01*
X61017962Y-34826749D01*
X61022471Y-34829906D01*
X61022473Y-34829908D01*
X61097241Y-34882261D01*
X61198346Y-34953056D01*
X61397924Y-35046120D01*
X61610629Y-35103115D01*
X61830000Y-35122307D01*
X62049371Y-35103115D01*
X62262076Y-35046120D01*
X62461654Y-34953056D01*
X62562759Y-34882261D01*
X62637527Y-34829908D01*
X62637529Y-34829906D01*
X62642038Y-34826749D01*
X62797749Y-34671038D01*
X62860171Y-34581891D01*
X62920899Y-34495162D01*
X62920900Y-34495160D01*
X62924056Y-34490653D01*
X62926379Y-34485671D01*
X62926382Y-34485666D01*
X62985805Y-34358231D01*
X63032722Y-34304946D01*
X63100999Y-34285485D01*
X63168959Y-34306027D01*
X63214195Y-34358231D01*
X63273618Y-34485666D01*
X63273621Y-34485671D01*
X63275944Y-34490653D01*
X63279100Y-34495160D01*
X63279101Y-34495162D01*
X63339830Y-34581891D01*
X63402251Y-34671038D01*
X63557962Y-34826749D01*
X63562471Y-34829906D01*
X63562473Y-34829908D01*
X63637241Y-34882261D01*
X63738346Y-34953056D01*
X63937924Y-35046120D01*
X64150629Y-35103115D01*
X64370000Y-35122307D01*
X64589371Y-35103115D01*
X64802076Y-35046120D01*
X65001654Y-34953056D01*
X65102759Y-34882261D01*
X65177527Y-34829908D01*
X65177529Y-34829906D01*
X65182038Y-34826749D01*
X65337749Y-34671038D01*
X65400171Y-34581891D01*
X65460899Y-34495162D01*
X65460900Y-34495160D01*
X65464056Y-34490653D01*
X65466379Y-34485671D01*
X65466382Y-34485666D01*
X65525805Y-34358231D01*
X65572722Y-34304946D01*
X65640999Y-34285485D01*
X65708959Y-34306027D01*
X65754195Y-34358231D01*
X65813618Y-34485666D01*
X65813621Y-34485671D01*
X65815944Y-34490653D01*
X65819100Y-34495160D01*
X65819101Y-34495162D01*
X65879830Y-34581891D01*
X65942251Y-34671038D01*
X66097962Y-34826749D01*
X66102471Y-34829906D01*
X66102473Y-34829908D01*
X66177241Y-34882261D01*
X66278346Y-34953056D01*
X66477924Y-35046120D01*
X66690629Y-35103115D01*
X66910000Y-35122307D01*
X67129371Y-35103115D01*
X67342076Y-35046120D01*
X67541654Y-34953056D01*
X67642759Y-34882261D01*
X67717527Y-34829908D01*
X67717529Y-34829906D01*
X67722038Y-34826749D01*
X67877749Y-34671038D01*
X67940171Y-34581891D01*
X68000899Y-34495162D01*
X68000900Y-34495160D01*
X68004056Y-34490653D01*
X68006379Y-34485671D01*
X68006382Y-34485666D01*
X68065805Y-34358231D01*
X68112722Y-34304946D01*
X68180999Y-34285485D01*
X68248959Y-34306027D01*
X68294195Y-34358231D01*
X68353618Y-34485666D01*
X68353621Y-34485671D01*
X68355944Y-34490653D01*
X68359100Y-34495160D01*
X68359101Y-34495162D01*
X68419830Y-34581891D01*
X68482251Y-34671038D01*
X68637962Y-34826749D01*
X68642471Y-34829906D01*
X68642473Y-34829908D01*
X68717241Y-34882261D01*
X68818346Y-34953056D01*
X69017924Y-35046120D01*
X69230629Y-35103115D01*
X69450000Y-35122307D01*
X69669371Y-35103115D01*
X69882076Y-35046120D01*
X70081654Y-34953056D01*
X70182759Y-34882261D01*
X70257527Y-34829908D01*
X70257529Y-34829906D01*
X70262038Y-34826749D01*
X70417749Y-34671038D01*
X70480171Y-34581891D01*
X70540899Y-34495162D01*
X70540900Y-34495160D01*
X70544056Y-34490653D01*
X70546379Y-34485671D01*
X70546382Y-34485666D01*
X70605805Y-34358231D01*
X70652722Y-34304946D01*
X70720999Y-34285485D01*
X70788959Y-34306027D01*
X70834195Y-34358231D01*
X70893618Y-34485666D01*
X70893621Y-34485671D01*
X70895944Y-34490653D01*
X70899100Y-34495160D01*
X70899101Y-34495162D01*
X70959830Y-34581891D01*
X71022251Y-34671038D01*
X71177962Y-34826749D01*
X71182471Y-34829906D01*
X71182473Y-34829908D01*
X71257241Y-34882261D01*
X71358346Y-34953056D01*
X71557924Y-35046120D01*
X71770629Y-35103115D01*
X71990000Y-35122307D01*
X72209371Y-35103115D01*
X72422076Y-35046120D01*
X72621654Y-34953056D01*
X72722759Y-34882261D01*
X72797527Y-34829908D01*
X72797529Y-34829906D01*
X72802038Y-34826749D01*
X72957749Y-34671038D01*
X73020171Y-34581891D01*
X73080899Y-34495162D01*
X73080900Y-34495160D01*
X73084056Y-34490653D01*
X73086379Y-34485671D01*
X73086382Y-34485666D01*
X73145805Y-34358231D01*
X73192722Y-34304946D01*
X73260999Y-34285485D01*
X73328959Y-34306027D01*
X73374195Y-34358231D01*
X73433618Y-34485666D01*
X73433621Y-34485671D01*
X73435944Y-34490653D01*
X73439100Y-34495160D01*
X73439101Y-34495162D01*
X73499830Y-34581891D01*
X73562251Y-34671038D01*
X73717962Y-34826749D01*
X73722471Y-34829906D01*
X73722473Y-34829908D01*
X73797241Y-34882261D01*
X73898346Y-34953056D01*
X74097924Y-35046120D01*
X74310629Y-35103115D01*
X74530000Y-35122307D01*
X74749371Y-35103115D01*
X74962076Y-35046120D01*
X75161654Y-34953056D01*
X75262759Y-34882261D01*
X75337527Y-34829908D01*
X75337529Y-34829906D01*
X75342038Y-34826749D01*
X75497749Y-34671038D01*
X75560171Y-34581891D01*
X75620899Y-34495162D01*
X75620900Y-34495160D01*
X75624056Y-34490653D01*
X75626379Y-34485671D01*
X75626382Y-34485666D01*
X75685805Y-34358231D01*
X75732722Y-34304946D01*
X75800999Y-34285485D01*
X75868959Y-34306027D01*
X75914195Y-34358231D01*
X75973618Y-34485666D01*
X75973621Y-34485671D01*
X75975944Y-34490653D01*
X75979100Y-34495160D01*
X75979101Y-34495162D01*
X76039830Y-34581891D01*
X76102251Y-34671038D01*
X76257962Y-34826749D01*
X76262471Y-34829906D01*
X76262473Y-34829908D01*
X76337241Y-34882261D01*
X76438346Y-34953056D01*
X76637924Y-35046120D01*
X76850629Y-35103115D01*
X77070000Y-35122307D01*
X77289371Y-35103115D01*
X77502076Y-35046120D01*
X77701654Y-34953056D01*
X77802759Y-34882261D01*
X77877527Y-34829908D01*
X77877529Y-34829906D01*
X77882038Y-34826749D01*
X78037749Y-34671038D01*
X78100171Y-34581891D01*
X78160899Y-34495162D01*
X78160900Y-34495160D01*
X78164056Y-34490653D01*
X78166379Y-34485671D01*
X78166382Y-34485666D01*
X78254795Y-34296061D01*
X78257120Y-34291076D01*
X78314115Y-34078371D01*
X78333307Y-33859000D01*
X78314115Y-33639629D01*
X78257120Y-33426924D01*
X78176792Y-33254659D01*
X78166382Y-33232334D01*
X78166379Y-33232329D01*
X78164056Y-33227347D01*
X78110571Y-33150962D01*
X78040908Y-33051473D01*
X78040906Y-33051470D01*
X78037749Y-33046962D01*
X77882038Y-32891251D01*
X77701654Y-32764944D01*
X77502076Y-32671880D01*
X77289371Y-32614885D01*
X77070000Y-32595693D01*
X76850629Y-32614885D01*
X76637924Y-32671880D01*
X76544562Y-32715415D01*
X76443334Y-32762618D01*
X76443329Y-32762621D01*
X76438347Y-32764944D01*
X76433840Y-32768100D01*
X76433838Y-32768101D01*
X76262473Y-32888092D01*
X76262470Y-32888094D01*
X76257962Y-32891251D01*
X76102251Y-33046962D01*
X76099094Y-33051470D01*
X76099092Y-33051473D01*
X76029429Y-33150962D01*
X75975944Y-33227347D01*
X75973621Y-33232329D01*
X75973618Y-33232334D01*
X75963208Y-33254659D01*
X75915447Y-33357085D01*
X75914195Y-33359769D01*
X75867278Y-33413054D01*
X75799001Y-33432515D01*
X75731041Y-33411973D01*
X75685805Y-33359769D01*
X75684554Y-33357085D01*
X75636792Y-33254659D01*
X75626382Y-33232334D01*
X75626379Y-33232329D01*
X75624056Y-33227347D01*
X75570571Y-33150962D01*
X75500908Y-33051473D01*
X75500906Y-33051470D01*
X75497749Y-33046962D01*
X75342038Y-32891251D01*
X75161654Y-32764944D01*
X74962076Y-32671880D01*
X74749371Y-32614885D01*
X74530000Y-32595693D01*
X74310629Y-32614885D01*
X74097924Y-32671880D01*
X74004562Y-32715415D01*
X73903334Y-32762618D01*
X73903329Y-32762621D01*
X73898347Y-32764944D01*
X73893840Y-32768100D01*
X73893838Y-32768101D01*
X73722473Y-32888092D01*
X73722470Y-32888094D01*
X73717962Y-32891251D01*
X73562251Y-33046962D01*
X73559094Y-33051470D01*
X73559092Y-33051473D01*
X73489429Y-33150962D01*
X73435944Y-33227347D01*
X73433621Y-33232329D01*
X73433618Y-33232334D01*
X73423208Y-33254659D01*
X73375447Y-33357085D01*
X73374195Y-33359769D01*
X73327278Y-33413054D01*
X73259001Y-33432515D01*
X73191041Y-33411973D01*
X73145805Y-33359769D01*
X73144554Y-33357085D01*
X73096792Y-33254659D01*
X73086382Y-33232334D01*
X73086379Y-33232329D01*
X73084056Y-33227347D01*
X73030571Y-33150962D01*
X72960908Y-33051473D01*
X72960906Y-33051470D01*
X72957749Y-33046962D01*
X72802038Y-32891251D01*
X72621654Y-32764944D01*
X72422076Y-32671880D01*
X72209371Y-32614885D01*
X71990000Y-32595693D01*
X71770629Y-32614885D01*
X71557924Y-32671880D01*
X71464562Y-32715415D01*
X71363334Y-32762618D01*
X71363329Y-32762621D01*
X71358347Y-32764944D01*
X71353840Y-32768100D01*
X71353838Y-32768101D01*
X71182473Y-32888092D01*
X71182470Y-32888094D01*
X71177962Y-32891251D01*
X71022251Y-33046962D01*
X71019094Y-33051470D01*
X71019092Y-33051473D01*
X70949429Y-33150962D01*
X70895944Y-33227347D01*
X70893621Y-33232329D01*
X70893618Y-33232334D01*
X70883208Y-33254659D01*
X70835447Y-33357085D01*
X70834195Y-33359769D01*
X70787278Y-33413054D01*
X70719001Y-33432515D01*
X70651041Y-33411973D01*
X70605805Y-33359769D01*
X70604554Y-33357085D01*
X70556792Y-33254659D01*
X70546382Y-33232334D01*
X70546379Y-33232329D01*
X70544056Y-33227347D01*
X70490571Y-33150962D01*
X70420908Y-33051473D01*
X70420906Y-33051470D01*
X70417749Y-33046962D01*
X70262038Y-32891251D01*
X70081654Y-32764944D01*
X69882076Y-32671880D01*
X69669371Y-32614885D01*
X69450000Y-32595693D01*
X69230629Y-32614885D01*
X69201513Y-32622687D01*
X69130537Y-32620997D01*
X69079808Y-32590075D01*
X68558250Y-32068517D01*
X68550674Y-32060191D01*
X68546553Y-32053697D01*
X68496734Y-32006914D01*
X68493893Y-32004160D01*
X68474094Y-31984361D01*
X68470969Y-31981937D01*
X68470960Y-31981929D01*
X68470874Y-31981863D01*
X68461849Y-31974155D01*
X68435285Y-31949210D01*
X68429506Y-31943783D01*
X68411669Y-31933977D01*
X68395153Y-31923127D01*
X68379067Y-31910650D01*
X68338334Y-31893024D01*
X68327686Y-31887807D01*
X68298789Y-31871921D01*
X68288803Y-31866431D01*
X68281128Y-31864460D01*
X68281122Y-31864458D01*
X68269089Y-31861369D01*
X68250387Y-31854966D01*
X68231708Y-31846883D01*
X68191907Y-31840579D01*
X68187873Y-31839940D01*
X68176260Y-31837535D01*
X68133282Y-31826500D01*
X68112935Y-31826500D01*
X68093224Y-31824949D01*
X68080950Y-31823005D01*
X68073121Y-31821765D01*
X68065229Y-31822511D01*
X68028944Y-31825941D01*
X68017086Y-31826500D01*
X58226020Y-31826500D01*
X58214791Y-31825971D01*
X58207281Y-31824292D01*
X58199355Y-31824541D01*
X58199354Y-31824541D01*
X58139002Y-31826438D01*
X58135044Y-31826500D01*
X58107017Y-31826500D01*
X58102971Y-31827011D01*
X58091143Y-31827942D01*
X58046795Y-31829336D01*
X58039177Y-31831549D01*
X58039178Y-31831549D01*
X58027254Y-31835013D01*
X58007894Y-31839022D01*
X57995566Y-31840579D01*
X57995563Y-31840580D01*
X57987701Y-31841573D01*
X57980335Y-31844490D01*
X57980329Y-31844491D01*
X57946439Y-31857909D01*
X57935212Y-31861753D01*
X57892607Y-31874131D01*
X57885788Y-31878164D01*
X57885783Y-31878166D01*
X57875091Y-31884490D01*
X57857341Y-31893187D01*
X57838412Y-31900681D01*
X57831996Y-31905342D01*
X57831995Y-31905343D01*
X57802519Y-31926759D01*
X57792595Y-31933278D01*
X57761224Y-31951830D01*
X57761219Y-31951834D01*
X57754401Y-31955866D01*
X57740014Y-31970253D01*
X57724980Y-31983094D01*
X57708513Y-31995058D01*
X57703460Y-32001166D01*
X57680228Y-32029249D01*
X57672238Y-32038029D01*
X57120192Y-32590075D01*
X57057880Y-32624101D01*
X56998488Y-32622687D01*
X56969371Y-32614885D01*
X56750000Y-32595693D01*
X56530629Y-32614885D01*
X56317924Y-32671880D01*
X56224562Y-32715415D01*
X56123334Y-32762618D01*
X56123329Y-32762621D01*
X56118347Y-32764944D01*
X56113840Y-32768100D01*
X56113838Y-32768101D01*
X55942473Y-32888092D01*
X55942470Y-32888094D01*
X55937962Y-32891251D01*
X55782251Y-33046962D01*
X55779094Y-33051470D01*
X55779092Y-33051473D01*
X55709429Y-33150962D01*
X55655944Y-33227347D01*
X55653621Y-33232329D01*
X55653618Y-33232334D01*
X55643208Y-33254659D01*
X55562880Y-33426924D01*
X55505885Y-33639629D01*
X55486693Y-33859000D01*
X49472500Y-33859000D01*
X49472500Y-32579866D01*
X49465745Y-32517684D01*
X49414615Y-32381295D01*
X49327261Y-32264739D01*
X49210705Y-32177385D01*
X49074316Y-32126255D01*
X49012134Y-32119500D01*
X47215866Y-32119500D01*
X47153684Y-32126255D01*
X47017295Y-32177385D01*
X46900739Y-32264739D01*
X46813385Y-32381295D01*
X46762255Y-32517684D01*
X46755500Y-32579866D01*
X46755500Y-34376134D01*
X45066500Y-34376134D01*
X45066500Y-28270500D01*
X45086502Y-28202379D01*
X45140158Y-28155886D01*
X45192500Y-28144500D01*
X83613085Y-28144500D01*
X83681206Y-28164502D01*
G37*
%TD.AperFunction*%
%TD*%
M02*
