%TF.GenerationSoftware,KiCad,Pcbnew,(6.0.9)*%
%TF.CreationDate,2022-12-10T14:47:00+01:00*%
%TF.ProjectId,Hygrometer_SMD_doubleSided,48796772-6f6d-4657-9465-725f534d445f,rev?*%
%TF.SameCoordinates,Original*%
%TF.FileFunction,Copper,L1,Top*%
%TF.FilePolarity,Positive*%
%FSLAX46Y46*%
G04 Gerber Fmt 4.6, Leading zero omitted, Abs format (unit mm)*
G04 Created by KiCad (PCBNEW (6.0.9)) date 2022-12-10 14:47:00*
%MOMM*%
%LPD*%
G01*
G04 APERTURE LIST*
G04 Aperture macros list*
%AMRoundRect*
0 Rectangle with rounded corners*
0 $1 Rounding radius*
0 $2 $3 $4 $5 $6 $7 $8 $9 X,Y pos of 4 corners*
0 Add a 4 corners polygon primitive as box body*
4,1,4,$2,$3,$4,$5,$6,$7,$8,$9,$2,$3,0*
0 Add four circle primitives for the rounded corners*
1,1,$1+$1,$2,$3*
1,1,$1+$1,$4,$5*
1,1,$1+$1,$6,$7*
1,1,$1+$1,$8,$9*
0 Add four rect primitives between the rounded corners*
20,1,$1+$1,$2,$3,$4,$5,0*
20,1,$1+$1,$4,$5,$6,$7,0*
20,1,$1+$1,$6,$7,$8,$9,0*
20,1,$1+$1,$8,$9,$2,$3,0*%
G04 Aperture macros list end*
%TA.AperFunction,SMDPad,CuDef*%
%ADD10R,1.000000X0.700000*%
%TD*%
%TA.AperFunction,SMDPad,CuDef*%
%ADD11R,0.700000X1.000000*%
%TD*%
%TA.AperFunction,SMDPad,CuDef*%
%ADD12RoundRect,0.250000X-0.625000X0.400000X-0.625000X-0.400000X0.625000X-0.400000X0.625000X0.400000X0*%
%TD*%
%TA.AperFunction,SMDPad,CuDef*%
%ADD13RoundRect,0.250000X0.625000X-0.400000X0.625000X0.400000X-0.625000X0.400000X-0.625000X-0.400000X0*%
%TD*%
%TA.AperFunction,SMDPad,CuDef*%
%ADD14RoundRect,0.250000X-0.400000X-0.625000X0.400000X-0.625000X0.400000X0.625000X-0.400000X0.625000X0*%
%TD*%
%TA.AperFunction,SMDPad,CuDef*%
%ADD15RoundRect,0.150000X-0.825000X-0.150000X0.825000X-0.150000X0.825000X0.150000X-0.825000X0.150000X0*%
%TD*%
%TA.AperFunction,ComponentPad*%
%ADD16R,1.700000X1.700000*%
%TD*%
%TA.AperFunction,ComponentPad*%
%ADD17O,1.700000X1.700000*%
%TD*%
%TA.AperFunction,SMDPad,CuDef*%
%ADD18RoundRect,0.250000X0.400000X0.625000X-0.400000X0.625000X-0.400000X-0.625000X0.400000X-0.625000X0*%
%TD*%
%TA.AperFunction,SMDPad,CuDef*%
%ADD19RoundRect,0.250000X-0.425000X0.537500X-0.425000X-0.537500X0.425000X-0.537500X0.425000X0.537500X0*%
%TD*%
%TA.AperFunction,SMDPad,CuDef*%
%ADD20RoundRect,0.250000X0.537500X0.425000X-0.537500X0.425000X-0.537500X-0.425000X0.537500X-0.425000X0*%
%TD*%
%TA.AperFunction,SMDPad,CuDef*%
%ADD21RoundRect,0.250000X-0.537500X-0.425000X0.537500X-0.425000X0.537500X0.425000X-0.537500X0.425000X0*%
%TD*%
%TA.AperFunction,SMDPad,CuDef*%
%ADD22O,2.999999X1.200000*%
%TD*%
%TA.AperFunction,ComponentPad*%
%ADD23R,1.500000X1.500000*%
%TD*%
%TA.AperFunction,ComponentPad*%
%ADD24C,1.500000*%
%TD*%
%TA.AperFunction,ViaPad*%
%ADD25C,4.500001*%
%TD*%
%TA.AperFunction,ViaPad*%
%ADD26C,0.600000*%
%TD*%
%TA.AperFunction,Conductor*%
%ADD27C,0.254000*%
%TD*%
%TA.AperFunction,Conductor*%
%ADD28C,0.762000*%
%TD*%
G04 APERTURE END LIST*
D10*
%TO.P,Q2,1,B*%
%TO.N,Q_ONES*%
X65951000Y-38619000D03*
%TO.P,Q2,2,E*%
%TO.N,GND*%
X65951000Y-36719000D03*
%TO.P,Q2,3,C*%
%TO.N,ONES*%
X63551000Y-37669000D03*
%TD*%
D11*
%TO.P,Q1,1,B*%
%TO.N,Q_TENS*%
X65452000Y-63818000D03*
%TO.P,Q1,2,E*%
%TO.N,GND*%
X67352000Y-63818000D03*
%TO.P,Q1,3,C*%
%TO.N,TENS*%
X66402000Y-61418000D03*
%TD*%
D12*
%TO.P,R2,1*%
%TO.N,A_hum*%
X71990000Y-35992000D03*
%TO.P,R2,2*%
%TO.N,Net-(R2-Pad2)*%
X71990000Y-39092000D03*
%TD*%
%TO.P,R3,1*%
%TO.N,B_hum*%
X69450000Y-35992000D03*
%TO.P,R3,2*%
%TO.N,Net-(R3-Pad2)*%
X69450000Y-39092000D03*
%TD*%
D13*
%TO.P,R5,1*%
%TO.N,D_hum*%
X74530000Y-46966000D03*
%TO.P,R5,2*%
%TO.N,Net-(R5-Pad2)*%
X74530000Y-43866000D03*
%TD*%
%TO.P,R6,1*%
%TO.N,E_hum*%
X77070000Y-46966000D03*
%TO.P,R6,2*%
%TO.N,Net-(R6-Pad2)*%
X77070000Y-43866000D03*
%TD*%
D12*
%TO.P,R7,1*%
%TO.N,F_hum*%
X77070000Y-35992000D03*
%TO.P,R7,2*%
%TO.N,Net-(R7-Pad2)*%
X77070000Y-39092000D03*
%TD*%
%TO.P,R8,1*%
%TO.N,G_hum*%
X74530000Y-35992000D03*
%TO.P,R8,2*%
%TO.N,Net-(R8-Pad2)*%
X74530000Y-39092000D03*
%TD*%
D14*
%TO.P,R9,1*%
%TO.N,Q_TENS*%
X65614000Y-69546000D03*
%TO.P,R9,2*%
%TO.N,Net-(R9-Pad2)*%
X68714000Y-69546000D03*
%TD*%
D12*
%TO.P,R10,1*%
%TO.N,A_tmp*%
X71990000Y-61138000D03*
%TO.P,R10,2*%
%TO.N,Net-(R10-Pad2)*%
X71990000Y-64238000D03*
%TD*%
%TO.P,R11,1*%
%TO.N,B_tmp*%
X69450000Y-61138000D03*
%TO.P,R11,2*%
%TO.N,Net-(R11-Pad2)*%
X69450000Y-64238000D03*
%TD*%
D13*
%TO.P,R12,1*%
%TO.N,C_tmp*%
X71990000Y-72112000D03*
%TO.P,R12,2*%
%TO.N,Net-(R12-Pad2)*%
X71990000Y-69012000D03*
%TD*%
%TO.P,R13,1*%
%TO.N,D_tmp*%
X74530000Y-72112000D03*
%TO.P,R13,2*%
%TO.N,Net-(R13-Pad2)*%
X74530000Y-69012000D03*
%TD*%
%TO.P,R14,1*%
%TO.N,E_tmp*%
X77070000Y-72112000D03*
%TO.P,R14,2*%
%TO.N,Net-(R14-Pad2)*%
X77070000Y-69012000D03*
%TD*%
D12*
%TO.P,R15,1*%
%TO.N,F_tmp*%
X77070000Y-61138000D03*
%TO.P,R15,2*%
%TO.N,Net-(R15-Pad2)*%
X77070000Y-64238000D03*
%TD*%
%TO.P,R16,1*%
%TO.N,G_tmp*%
X74530000Y-61138000D03*
%TO.P,R16,2*%
%TO.N,Net-(R16-Pad2)*%
X74530000Y-64238000D03*
%TD*%
D14*
%TO.P,R17,1*%
%TO.N,Q_ONES*%
X63328000Y-44400000D03*
%TO.P,R17,2*%
%TO.N,Net-(R17-Pad2)*%
X66428000Y-44400000D03*
%TD*%
D15*
%TO.P,U2,1,QB*%
%TO.N,Net-(R3-Pad2)*%
X80437000Y-38685000D03*
%TO.P,U2,2,QC*%
%TO.N,Net-(R4-Pad2)*%
X80437000Y-39955000D03*
%TO.P,U2,3,QD*%
%TO.N,Net-(R5-Pad2)*%
X80437000Y-41225000D03*
%TO.P,U2,4,QE*%
%TO.N,Net-(R6-Pad2)*%
X80437000Y-42495000D03*
%TO.P,U2,5,QF*%
%TO.N,Net-(R7-Pad2)*%
X80437000Y-43765000D03*
%TO.P,U2,6,QG*%
%TO.N,Net-(R8-Pad2)*%
X80437000Y-45035000D03*
%TO.P,U2,7,QH*%
%TO.N,Net-(R9-Pad2)*%
X80437000Y-46305000D03*
%TO.P,U2,8,GND*%
%TO.N,GND*%
X80437000Y-47575000D03*
%TO.P,U2,9,QH'*%
%TO.N,Net-(U2-Pad9)*%
X85387000Y-47575000D03*
%TO.P,U2,10,~{SRCLR}*%
%TO.N,VCC*%
X85387000Y-46305000D03*
%TO.P,U2,11,SRCLK*%
%TO.N,/SRCLK*%
X85387000Y-45035000D03*
%TO.P,U2,12,RCLK*%
%TO.N,/RCLK*%
X85387000Y-43765000D03*
%TO.P,U2,13,~{OE}*%
%TO.N,GND*%
X85387000Y-42495000D03*
%TO.P,U2,14,SER*%
%TO.N,/DATA*%
X85387000Y-41225000D03*
%TO.P,U2,15,QA*%
%TO.N,Net-(R2-Pad2)*%
X85387000Y-39955000D03*
%TO.P,U2,16,VCC*%
%TO.N,VCC*%
X85387000Y-38685000D03*
%TD*%
%TO.P,U3,1,QB*%
%TO.N,Net-(R11-Pad2)*%
X80372000Y-63958000D03*
%TO.P,U3,2,QC*%
%TO.N,Net-(R12-Pad2)*%
X80372000Y-65228000D03*
%TO.P,U3,3,QD*%
%TO.N,Net-(R13-Pad2)*%
X80372000Y-66498000D03*
%TO.P,U3,4,QE*%
%TO.N,Net-(R14-Pad2)*%
X80372000Y-67768000D03*
%TO.P,U3,5,QF*%
%TO.N,Net-(R15-Pad2)*%
X80372000Y-69038000D03*
%TO.P,U3,6,QG*%
%TO.N,Net-(R16-Pad2)*%
X80372000Y-70308000D03*
%TO.P,U3,7,QH*%
%TO.N,Net-(R17-Pad2)*%
X80372000Y-71578000D03*
%TO.P,U3,8,GND*%
%TO.N,GND*%
X80372000Y-72848000D03*
%TO.P,U3,9,QH'*%
%TO.N,unconnected-(U3-Pad9)*%
X85322000Y-72848000D03*
%TO.P,U3,10,~{SRCLR}*%
%TO.N,VCC*%
X85322000Y-71578000D03*
%TO.P,U3,11,SRCLK*%
%TO.N,/SRCLK*%
X85322000Y-70308000D03*
%TO.P,U3,12,RCLK*%
%TO.N,/RCLK*%
X85322000Y-69038000D03*
%TO.P,U3,13,~{OE}*%
%TO.N,GND*%
X85322000Y-67768000D03*
%TO.P,U3,14,SER*%
%TO.N,Net-(U2-Pad9)*%
X85322000Y-66498000D03*
%TO.P,U3,15,QA*%
%TO.N,Net-(R10-Pad2)*%
X85322000Y-65228000D03*
%TO.P,U3,16,VCC*%
%TO.N,VCC*%
X85322000Y-63958000D03*
%TD*%
D13*
%TO.P,R4,1*%
%TO.N,C_hum*%
X71990000Y-46966000D03*
%TO.P,R4,2*%
%TO.N,Net-(R4-Pad2)*%
X71990000Y-43866000D03*
%TD*%
D16*
%TO.P,J1,1,Pin_1*%
%TO.N,VCC*%
X48114000Y-33478000D03*
D17*
%TO.P,J1,2,Pin_2*%
%TO.N,GND*%
X48114000Y-36018000D03*
%TD*%
D18*
%TO.P,R1,1*%
%TO.N,VCC*%
X50934000Y-61418000D03*
%TO.P,R1,2*%
%TO.N,Net-(R1-Pad2)*%
X47834000Y-61418000D03*
%TD*%
D16*
%TO.P,SW1,1,1*%
%TO.N,Net-(SW1-Pad1)*%
X48114000Y-53793000D03*
D17*
%TO.P,SW1,2,2*%
%TO.N,GND*%
X48114000Y-56333000D03*
%TD*%
D16*
%TO.P,J6,1,Pin_1*%
%TO.N,VCC*%
X48114000Y-41098000D03*
D17*
%TO.P,J6,2,Pin_2*%
%TO.N,Net-(J6-Pad2)*%
X48114000Y-43638000D03*
%TO.P,J6,3,Pin_3*%
%TO.N,unconnected-(J6-Pad3)*%
X48114000Y-46178000D03*
%TO.P,J6,4,Pin_4*%
%TO.N,GND*%
X48114000Y-48718000D03*
%TD*%
D18*
%TO.P,R19,1*%
%TO.N,GND*%
X68714000Y-67260000D03*
%TO.P,R19,2*%
%TO.N,Q_TENS*%
X65614000Y-67260000D03*
%TD*%
%TO.P,R18,1*%
%TO.N,GND*%
X66428000Y-42114000D03*
%TO.P,R18,2*%
%TO.N,Q_ONES*%
X63328000Y-42114000D03*
%TD*%
D13*
%TO.P,R20,1*%
%TO.N,Net-(J6-Pad2)*%
X51162000Y-43903000D03*
%TO.P,R20,2*%
%TO.N,VCC*%
X51162000Y-40803000D03*
%TD*%
D19*
%TO.P,C4,1*%
%TO.N,VCC*%
X51162000Y-33564500D03*
%TO.P,C4,2*%
%TO.N,GND*%
X51162000Y-36439500D03*
%TD*%
D20*
%TO.P,C2,1*%
%TO.N,VCC*%
X84349500Y-36526000D03*
%TO.P,C2,2*%
%TO.N,GND*%
X81474500Y-36526000D03*
%TD*%
%TO.P,C3,1*%
%TO.N,VCC*%
X84349500Y-61926000D03*
%TO.P,C3,2*%
%TO.N,GND*%
X81474500Y-61926000D03*
%TD*%
D21*
%TO.P,C1,1*%
%TO.N,VCC*%
X53280500Y-61418000D03*
%TO.P,C1,2*%
%TO.N,GND*%
X56155500Y-61418000D03*
%TD*%
D22*
%TO.P,U1,1,~{RESET}/PB5*%
%TO.N,Net-(R1-Pad2)*%
X47432000Y-63958000D03*
%TO.P,U1,2,XTAL1/PB3*%
%TO.N,Net-(J6-Pad2)*%
X47432000Y-66498000D03*
%TO.P,U1,3,XTAL2/PB4*%
%TO.N,Net-(SW1-Pad1)*%
X47432000Y-69038000D03*
%TO.P,U1,4,GND*%
%TO.N,GND*%
X47432000Y-71578000D03*
%TO.P,U1,5,AREF/PB0*%
%TO.N,/SRCLK*%
X57432000Y-71578000D03*
%TO.P,U1,6,PB1*%
%TO.N,/DATA*%
X57432000Y-69038000D03*
%TO.P,U1,7,PB2*%
%TO.N,/RCLK*%
X57432000Y-66498000D03*
%TO.P,U1,8,VCC*%
%TO.N,VCC*%
X57432000Y-63958000D03*
%TD*%
D23*
%TO.P,U4,1,1E*%
%TO.N,E_tmp*%
X77070000Y-74245000D03*
D24*
%TO.P,U4,2,1D*%
%TO.N,D_tmp*%
X74530000Y-74245000D03*
%TO.P,U4,3,1C*%
%TO.N,C_tmp*%
X71990000Y-74245000D03*
%TO.P,U4,4,1DP*%
%TO.N,GND*%
X69450000Y-74245000D03*
%TO.P,U4,5,2E*%
%TO.N,E_tmp*%
X66910000Y-74245000D03*
%TO.P,U4,6,2D*%
%TO.N,D_tmp*%
X64370000Y-74245000D03*
%TO.P,U4,7,2G*%
%TO.N,G_tmp*%
X61830000Y-74245000D03*
%TO.P,U4,8,2C*%
%TO.N,C_tmp*%
X59290000Y-74245000D03*
%TO.P,U4,9,2DP*%
%TO.N,GND*%
X56750000Y-74245000D03*
%TO.P,U4,10,2B*%
%TO.N,B_tmp*%
X56750000Y-59005000D03*
%TO.P,U4,11,2A*%
%TO.N,A_tmp*%
X59290000Y-59005000D03*
%TO.P,U4,12,2F*%
%TO.N,F_tmp*%
X61830000Y-59005000D03*
%TO.P,U4,13,2CC*%
%TO.N,ONES*%
X64370000Y-59005000D03*
%TO.P,U4,14,1CC*%
%TO.N,TENS*%
X66910000Y-59005000D03*
%TO.P,U4,15,1B*%
%TO.N,B_tmp*%
X69450000Y-59005000D03*
%TO.P,U4,16,1A*%
%TO.N,A_tmp*%
X71990000Y-59005000D03*
%TO.P,U4,17,1G*%
%TO.N,G_tmp*%
X74530000Y-59005000D03*
%TO.P,U4,18,1F*%
%TO.N,F_tmp*%
X77070000Y-59005000D03*
%TD*%
D23*
%TO.P,U5,1,1E*%
%TO.N,E_hum*%
X77070000Y-49099000D03*
D24*
%TO.P,U5,2,1D*%
%TO.N,D_hum*%
X74530000Y-49099000D03*
%TO.P,U5,3,1C*%
%TO.N,C_hum*%
X71990000Y-49099000D03*
%TO.P,U5,4,1DP*%
%TO.N,GND*%
X69450000Y-49099000D03*
%TO.P,U5,5,2E*%
%TO.N,E_hum*%
X66910000Y-49099000D03*
%TO.P,U5,6,2D*%
%TO.N,D_hum*%
X64370000Y-49099000D03*
%TO.P,U5,7,2G*%
%TO.N,G_hum*%
X61830000Y-49099000D03*
%TO.P,U5,8,2C*%
%TO.N,C_hum*%
X59290000Y-49099000D03*
%TO.P,U5,9,2DP*%
%TO.N,GND*%
X56750000Y-49099000D03*
%TO.P,U5,10,2B*%
%TO.N,B_hum*%
X56750000Y-33859000D03*
%TO.P,U5,11,2A*%
%TO.N,A_hum*%
X59290000Y-33859000D03*
%TO.P,U5,12,2F*%
%TO.N,F_hum*%
X61830000Y-33859000D03*
%TO.P,U5,13,2CC*%
%TO.N,ONES*%
X64370000Y-33859000D03*
%TO.P,U5,14,1CC*%
%TO.N,TENS*%
X66910000Y-33859000D03*
%TO.P,U5,15,1B*%
%TO.N,B_hum*%
X69450000Y-33859000D03*
%TO.P,U5,16,1A*%
%TO.N,A_hum*%
X71990000Y-33859000D03*
%TO.P,U5,17,1G*%
%TO.N,G_hum*%
X74530000Y-33859000D03*
%TO.P,U5,18,1F*%
%TO.N,F_hum*%
X77070000Y-33859000D03*
%TD*%
D25*
%TO.N,*%
X48368000Y-76658000D03*
X85198000Y-30684000D03*
D26*
%TO.N,GND*%
X62338000Y-62180000D03*
X52178000Y-69800000D03*
X85198000Y-34240000D03*
X49638000Y-39320000D03*
X49638000Y-36780000D03*
X47098000Y-36780000D03*
X82658000Y-29160000D03*
X52178000Y-39320000D03*
X54718000Y-34240000D03*
X69958000Y-29160000D03*
X62338000Y-57100000D03*
X49638000Y-59640000D03*
X59798000Y-52020000D03*
X69958000Y-54560000D03*
X52178000Y-46940000D03*
X54718000Y-36780000D03*
X77578000Y-29160000D03*
X80118000Y-34240000D03*
X80118000Y-52020000D03*
X67418000Y-29160000D03*
X83928000Y-67768000D03*
X57258000Y-29160000D03*
X82658000Y-77420000D03*
X47098000Y-31700000D03*
X62338000Y-29160000D03*
X54718000Y-44400000D03*
X69958000Y-52020000D03*
X62338000Y-31700000D03*
X80118000Y-57100000D03*
X67418000Y-54560000D03*
X57258000Y-41860000D03*
X62338000Y-36780000D03*
X49638000Y-67260000D03*
X59798000Y-44400000D03*
X67291000Y-36780000D03*
X82658000Y-34240000D03*
X64878000Y-54560000D03*
X49638000Y-31700000D03*
X57258000Y-44400000D03*
X49638000Y-57100000D03*
X52178000Y-72340000D03*
X75038000Y-54560000D03*
X52178000Y-54560000D03*
X62338000Y-64720000D03*
X52178000Y-64720000D03*
X59798000Y-41860000D03*
X47098000Y-39320000D03*
X59798000Y-62180000D03*
X57258000Y-36780000D03*
X67418000Y-52020000D03*
X62338000Y-54560000D03*
X80118000Y-72340000D03*
X80118000Y-49480000D03*
X80118000Y-54560000D03*
X67291000Y-39320000D03*
X64878000Y-41860000D03*
X57258000Y-57100000D03*
X85198000Y-57100000D03*
X54718000Y-29160000D03*
X77578000Y-57100000D03*
X72498000Y-52020000D03*
X52178000Y-29160000D03*
X47098000Y-29160000D03*
X52178000Y-77420000D03*
X59798000Y-54560000D03*
X49638000Y-29160000D03*
X54718000Y-39320000D03*
X85198000Y-77420000D03*
X62338000Y-67260000D03*
X80118000Y-62180000D03*
X80118000Y-29160000D03*
X54718000Y-41860000D03*
X59798000Y-36780000D03*
X85198000Y-74880000D03*
X57258000Y-54560000D03*
X80118000Y-74880000D03*
X49638000Y-72340000D03*
X80118000Y-31700000D03*
X64878000Y-44400000D03*
X62338000Y-69800000D03*
X57258000Y-39320000D03*
X85198000Y-52020000D03*
X52178000Y-57100000D03*
X64878000Y-52020000D03*
X54718000Y-77420000D03*
X54718000Y-31700000D03*
X52178000Y-67260000D03*
X57258000Y-62180000D03*
X67418000Y-69800000D03*
X49638000Y-69800000D03*
X69958000Y-67260000D03*
X85198000Y-49480000D03*
X80118000Y-59640000D03*
X52178000Y-52020000D03*
X59798000Y-29160000D03*
X85198000Y-59640000D03*
X77578000Y-52020000D03*
X67418000Y-67260000D03*
X72498000Y-54560000D03*
X72498000Y-29160000D03*
X83928000Y-42622000D03*
X57258000Y-31700000D03*
X77578000Y-54560000D03*
X82658000Y-36780000D03*
X49638000Y-49480000D03*
X54718000Y-67260000D03*
X49638000Y-44400000D03*
X64878000Y-29160000D03*
X52178000Y-49480000D03*
X59798000Y-31700000D03*
X77578000Y-31700000D03*
X75038000Y-29160000D03*
X85198000Y-54560000D03*
X49638000Y-46940000D03*
X59798000Y-57100000D03*
X80118000Y-36780000D03*
X52178000Y-74880000D03*
X52178000Y-59640000D03*
X59798000Y-39320000D03*
X57258000Y-52020000D03*
X62338000Y-52020000D03*
X75038000Y-52020000D03*
%TO.N,Net-(R9-Pad2)*%
X80880000Y-60148000D03*
X81646185Y-65739367D03*
%TO.N,/SRCLK*%
X83153020Y-65748980D03*
X83166000Y-60148000D03*
%TO.N,/DATA*%
X81642000Y-60148000D03*
X82404000Y-65736000D03*
%TO.N,/RCLK*%
X82404000Y-60148000D03*
X82411788Y-64453020D03*
%TO.N,Net-(U2-Pad9)*%
X83938384Y-60158384D03*
X83928000Y-66498000D03*
%TO.N,TENS*%
X61830000Y-44908000D03*
X61830000Y-46686000D03*
%TO.N,ONES*%
X60814000Y-44908000D03*
X60814000Y-47448000D03*
%TD*%
D27*
%TO.N,TENS*%
X61830000Y-44400000D02*
X61830000Y-44908000D01*
X62338000Y-40590000D02*
X62338000Y-43892000D01*
X64751000Y-38177000D02*
X62338000Y-40590000D01*
X64751000Y-36018000D02*
X64751000Y-38177000D01*
X66910000Y-33859000D02*
X64751000Y-36018000D01*
X62338000Y-43892000D02*
X61830000Y-44400000D01*
%TO.N,G_tmp*%
X61830000Y-73356000D02*
X61830000Y-74245000D01*
X64370000Y-70816000D02*
X61830000Y-73356000D01*
X65005000Y-62688000D02*
X64370000Y-63323000D01*
X64370000Y-63323000D02*
X64370000Y-70816000D01*
X69196000Y-62180000D02*
X68688000Y-62688000D01*
X74276000Y-62180000D02*
X69196000Y-62180000D01*
X74530000Y-61926000D02*
X74276000Y-62180000D01*
X74530000Y-61138000D02*
X74530000Y-61926000D01*
X68688000Y-62688000D02*
X65005000Y-62688000D01*
%TO.N,TENS*%
X59163000Y-61418000D02*
X66402000Y-61418000D01*
X57893000Y-60148000D02*
X59163000Y-61418000D01*
X55988000Y-60148000D02*
X57893000Y-60148000D01*
X55988000Y-46686000D02*
X54972000Y-47702000D01*
X54972000Y-47702000D02*
X54972000Y-59132000D01*
X61830000Y-46686000D02*
X55988000Y-46686000D01*
X54972000Y-59132000D02*
X55988000Y-60148000D01*
X66910000Y-59894000D02*
X66910000Y-59005000D01*
X66402000Y-61418000D02*
X66402000Y-60402000D01*
X66402000Y-60402000D02*
X66910000Y-59894000D01*
%TO.N,Q_TENS*%
X65452000Y-65101000D02*
X65452000Y-64269000D01*
X65614000Y-69546000D02*
X65614000Y-65263000D01*
X65614000Y-65263000D02*
X65452000Y-65101000D01*
%TO.N,Q_ONES*%
X65198000Y-38619000D02*
X65951000Y-38619000D01*
X63328000Y-40489000D02*
X65198000Y-38619000D01*
X63328000Y-42114000D02*
X63328000Y-40489000D01*
%TO.N,ONES*%
X63551000Y-34678000D02*
X64370000Y-33859000D01*
X63551000Y-38361000D02*
X63551000Y-34678000D01*
X61830000Y-40082000D02*
X63551000Y-38361000D01*
X61830000Y-43384000D02*
X61830000Y-40082000D01*
X60814000Y-44908000D02*
X60814000Y-44400000D01*
X60814000Y-44400000D02*
X61830000Y-43384000D01*
%TO.N,GND*%
X85387000Y-42495000D02*
X84055000Y-42495000D01*
X84055000Y-42495000D02*
X83928000Y-42622000D01*
X85322000Y-67768000D02*
X83928000Y-67768000D01*
D28*
%TO.N,VCC*%
X51075500Y-33478000D02*
X51162000Y-33564500D01*
X52432000Y-30684000D02*
X81134000Y-30684000D01*
D27*
X87230000Y-64720000D02*
X86468000Y-63958000D01*
X85322000Y-71578000D02*
X86722000Y-71578000D01*
D28*
X48114000Y-33478000D02*
X46590000Y-33478000D01*
X50934000Y-61418000D02*
X53280500Y-61418000D01*
X54464000Y-63958000D02*
X57432000Y-63958000D01*
X81134000Y-30684000D02*
X84349500Y-33899500D01*
D27*
X86722000Y-71578000D02*
X87230000Y-71070000D01*
D28*
X87230000Y-37796000D02*
X87230000Y-60402000D01*
X84349500Y-33899500D02*
X84349500Y-36526000D01*
X84796750Y-38664750D02*
X85366750Y-38664750D01*
X46844000Y-41098000D02*
X48114000Y-41098000D01*
X48114000Y-41098000D02*
X48409000Y-40803000D01*
X84690000Y-63958000D02*
X85322000Y-63958000D01*
X87230000Y-60402000D02*
X85706000Y-61926000D01*
X53280500Y-62774500D02*
X54464000Y-63958000D01*
X46082000Y-33986000D02*
X46082000Y-40336000D01*
D27*
X86468000Y-63958000D02*
X85322000Y-63958000D01*
D28*
X46590000Y-33478000D02*
X46082000Y-33986000D01*
X46082000Y-40336000D02*
X46844000Y-41098000D01*
X52645000Y-40803000D02*
X53280500Y-41438500D01*
X51162000Y-40803000D02*
X52645000Y-40803000D01*
X51162000Y-33564500D02*
X51162000Y-31954000D01*
X84349500Y-36526000D02*
X85960000Y-36526000D01*
X84349500Y-63617500D02*
X84690000Y-63958000D01*
X48409000Y-40803000D02*
X51162000Y-40803000D01*
D27*
X87230000Y-71070000D02*
X87230000Y-64720000D01*
D28*
X84436000Y-36866500D02*
X84436000Y-38304000D01*
X48114000Y-33478000D02*
X51075500Y-33478000D01*
X53280500Y-61418000D02*
X53280500Y-62774500D01*
X51162000Y-31954000D02*
X52432000Y-30684000D01*
X85960000Y-36526000D02*
X87230000Y-37796000D01*
X85706000Y-61926000D02*
X84349500Y-61926000D01*
X53280500Y-41438500D02*
X53280500Y-61418000D01*
D27*
X85387000Y-46305000D02*
X87484000Y-46305000D01*
D28*
X84436000Y-38304000D02*
X84796750Y-38664750D01*
X84075250Y-36505750D02*
X84436000Y-36866500D01*
X84349500Y-61926000D02*
X84349500Y-63617500D01*
D27*
%TO.N,Net-(R1-Pad2)*%
X47834000Y-61418000D02*
X47834000Y-63556000D01*
X47834000Y-63556000D02*
X47432000Y-63958000D01*
%TO.N,Net-(R2-Pad2)*%
X78327480Y-37936000D02*
X72358000Y-37936000D01*
X85436000Y-39968000D02*
X84068000Y-39968000D01*
X78708000Y-38825000D02*
X78708000Y-38316520D01*
X72358000Y-37936000D02*
X72104000Y-38190000D01*
X84068000Y-39968000D02*
X83420000Y-39320000D01*
X72104000Y-38190000D02*
X72104000Y-38978000D01*
X79203000Y-39320000D02*
X78708000Y-38825000D01*
X83420000Y-39320000D02*
X79203000Y-39320000D01*
X78708000Y-38316520D02*
X78327480Y-37936000D01*
%TO.N,Net-(R3-Pad2)*%
X80486000Y-38190000D02*
X79724000Y-37428000D01*
X80486000Y-38698000D02*
X80486000Y-38190000D01*
X79724000Y-37428000D02*
X70326000Y-37428000D01*
X69564000Y-38190000D02*
X69564000Y-38978000D01*
X70326000Y-37428000D02*
X69564000Y-38190000D01*
%TO.N,Net-(R4-Pad2)*%
X80486000Y-39968000D02*
X78962000Y-39968000D01*
X71990000Y-42876000D02*
X71990000Y-43866000D01*
X78962000Y-39968000D02*
X76930000Y-42000000D01*
X76930000Y-42000000D02*
X72866000Y-42000000D01*
X72866000Y-42000000D02*
X71990000Y-42876000D01*
%TO.N,Net-(R5-Pad2)*%
X77692000Y-42508000D02*
X74898000Y-42508000D01*
X74530000Y-42876000D02*
X74530000Y-43866000D01*
X74898000Y-42508000D02*
X74530000Y-42876000D01*
X80486000Y-41238000D02*
X78962000Y-41238000D01*
X78962000Y-41238000D02*
X77692000Y-42508000D01*
%TO.N,Net-(R6-Pad2)*%
X80486000Y-42508000D02*
X79343000Y-42508000D01*
X79343000Y-42508000D02*
X78099000Y-43752000D01*
X78099000Y-43752000D02*
X77184000Y-43752000D01*
%TO.N,Net-(R7-Pad2)*%
X75660000Y-41492000D02*
X72358000Y-41492000D01*
X70834000Y-44794000D02*
X71088000Y-45048000D01*
X77070000Y-39092000D02*
X77070000Y-40082000D01*
X71088000Y-45048000D02*
X77946000Y-45048000D01*
X77946000Y-45048000D02*
X79216000Y-43778000D01*
X77070000Y-40082000D02*
X75660000Y-41492000D01*
X79216000Y-43778000D02*
X80486000Y-43778000D01*
X70834000Y-43016000D02*
X70834000Y-44794000D01*
X72358000Y-41492000D02*
X70834000Y-43016000D01*
%TO.N,Net-(R8-Pad2)*%
X70326000Y-45048000D02*
X70834000Y-45556000D01*
X70326000Y-42762000D02*
X70326000Y-45048000D01*
X78453169Y-45556000D02*
X78961169Y-45048000D01*
X78961169Y-45048000D02*
X80486000Y-45048000D01*
X72104000Y-40984000D02*
X70326000Y-42762000D01*
X73628000Y-40984000D02*
X72104000Y-40984000D01*
X74530000Y-40082000D02*
X73628000Y-40984000D01*
X70834000Y-45556000D02*
X78453169Y-45556000D01*
X74530000Y-39092000D02*
X74530000Y-40082000D01*
%TO.N,Net-(R9-Pad2)*%
X81646185Y-65739367D02*
X81646185Y-70579478D01*
X81646185Y-70579478D02*
X81201183Y-71024480D01*
X80880000Y-60148000D02*
X80880000Y-58497000D01*
X68896480Y-71024480D02*
X68460000Y-70588000D01*
X82150000Y-57227000D02*
X82150000Y-46686000D01*
X81769000Y-46305000D02*
X80437000Y-46305000D01*
X82150000Y-46686000D02*
X81769000Y-46305000D01*
X68460000Y-70588000D02*
X68460000Y-69546000D01*
X81201183Y-71024480D02*
X68896480Y-71024480D01*
X80880000Y-58497000D02*
X82150000Y-57227000D01*
%TO.N,Net-(R10-Pad2)*%
X72244000Y-63196000D02*
X71990000Y-63450000D01*
X79020520Y-64511520D02*
X78594000Y-64085000D01*
X78213480Y-63196000D02*
X72244000Y-63196000D01*
X78594000Y-63576520D02*
X78213480Y-63196000D01*
X81570504Y-64511520D02*
X79020520Y-64511520D01*
X78594000Y-64085000D02*
X78594000Y-63576520D01*
X83107509Y-63899509D02*
X82182515Y-63899509D01*
X82182515Y-63899509D02*
X81570504Y-64511520D01*
X84436000Y-65228000D02*
X83107509Y-63899509D01*
X71990000Y-63450000D02*
X71990000Y-64238000D01*
X85322000Y-65228000D02*
X84436000Y-65228000D01*
%TO.N,Net-(R11-Pad2)*%
X79610000Y-62688000D02*
X70212000Y-62688000D01*
X80372000Y-63450000D02*
X79610000Y-62688000D01*
X69450000Y-63450000D02*
X69450000Y-64238000D01*
X80372000Y-63958000D02*
X80372000Y-63450000D01*
X70212000Y-62688000D02*
X69450000Y-63450000D01*
%TO.N,Net-(R12-Pad2)*%
X79102000Y-65228000D02*
X77070000Y-67260000D01*
X77070000Y-67260000D02*
X72752000Y-67260000D01*
X71990000Y-68022000D02*
X71990000Y-69012000D01*
X80372000Y-65228000D02*
X79102000Y-65228000D01*
X72752000Y-67260000D02*
X71990000Y-68022000D01*
%TO.N,Net-(R13-Pad2)*%
X74784000Y-67768000D02*
X74530000Y-68022000D01*
X77832000Y-67768000D02*
X74784000Y-67768000D01*
X80372000Y-66498000D02*
X79102000Y-66498000D01*
X74530000Y-68022000D02*
X74530000Y-69012000D01*
X79102000Y-66498000D02*
X77832000Y-67768000D01*
%TO.N,Net-(R14-Pad2)*%
X79356000Y-67768000D02*
X78112000Y-69012000D01*
X78112000Y-69012000D02*
X77070000Y-69012000D01*
X80372000Y-67768000D02*
X79356000Y-67768000D01*
%TO.N,Net-(R15-Pad2)*%
X78052542Y-70054000D02*
X79068542Y-69038000D01*
X77070000Y-64238000D02*
X77070000Y-64974000D01*
X72244000Y-66752000D02*
X70720000Y-68276000D01*
X70720000Y-69800000D02*
X70974000Y-70054000D01*
X77070000Y-64974000D02*
X75292000Y-66752000D01*
X70720000Y-68276000D02*
X70720000Y-69800000D01*
X75292000Y-66752000D02*
X72244000Y-66752000D01*
X70974000Y-70054000D02*
X78052542Y-70054000D01*
X79068542Y-69038000D02*
X80372000Y-69038000D01*
%TO.N,Net-(R16-Pad2)*%
X79100339Y-70308000D02*
X80372000Y-70308000D01*
X71990000Y-66244000D02*
X70212000Y-68022000D01*
X73260000Y-66244000D02*
X71990000Y-66244000D01*
X74530000Y-64974000D02*
X73260000Y-66244000D01*
X70212000Y-70308000D02*
X70466000Y-70562000D01*
X70212000Y-68022000D02*
X70212000Y-70308000D01*
X74530000Y-64238000D02*
X74530000Y-64974000D01*
X78846339Y-70562000D02*
X79100339Y-70308000D01*
X70466000Y-70562000D02*
X78846339Y-70562000D01*
%TO.N,Net-(R17-Pad2)*%
X58782000Y-73102000D02*
X59798000Y-72086000D01*
X55480000Y-73864000D02*
X56242000Y-73102000D01*
X58782000Y-62942000D02*
X55226000Y-62942000D01*
X59798000Y-72086000D02*
X59798000Y-63958000D01*
X55226000Y-62942000D02*
X54464000Y-62180000D01*
X76816000Y-76658000D02*
X57258000Y-76658000D01*
X54464000Y-47448000D02*
X55988000Y-45924000D01*
X55988000Y-45924000D02*
X65894000Y-45924000D01*
X66428000Y-45390000D02*
X66428000Y-44400000D01*
X80372000Y-71578000D02*
X79102000Y-71578000D01*
X78198520Y-72481480D02*
X78198520Y-75275480D01*
X54464000Y-62180000D02*
X54464000Y-47448000D01*
X56242000Y-73102000D02*
X58782000Y-73102000D01*
X57258000Y-76658000D02*
X55480000Y-74880000D01*
X78198520Y-75275480D02*
X76816000Y-76658000D01*
X59798000Y-63958000D02*
X58782000Y-62942000D01*
X65894000Y-45924000D02*
X66428000Y-45390000D01*
X55480000Y-74880000D02*
X55480000Y-73864000D01*
X79102000Y-71578000D02*
X78198520Y-72481480D01*
%TO.N,Net-(SW1-Pad1)*%
X48114000Y-53793000D02*
X46595000Y-53793000D01*
X46595000Y-53793000D02*
X45320000Y-55068000D01*
X45320000Y-55068000D02*
X45320000Y-68276000D01*
X46082000Y-69038000D02*
X47432000Y-69038000D01*
X45320000Y-68276000D02*
X46082000Y-69038000D01*
%TO.N,/SRCLK*%
X83166000Y-65761960D02*
X83166000Y-70308000D01*
X83153020Y-65748980D02*
X83166000Y-65761960D01*
X83166000Y-74118000D02*
X83166000Y-70308000D01*
X83674000Y-45543000D02*
X84182000Y-45035000D01*
X83166000Y-70308000D02*
X85322000Y-70308000D01*
X79610000Y-77674000D02*
X83166000Y-74118000D01*
X54464000Y-75388000D02*
X56750000Y-77674000D01*
X83674000Y-58624000D02*
X83674000Y-45543000D01*
X55734000Y-71578000D02*
X54464000Y-72848000D01*
X83166000Y-60148000D02*
X83166000Y-59132000D01*
X56750000Y-77674000D02*
X79610000Y-77674000D01*
X83166000Y-59132000D02*
X83674000Y-58624000D01*
X57432000Y-71578000D02*
X55734000Y-71578000D01*
X84182000Y-45035000D02*
X85387000Y-45035000D01*
X54464000Y-72848000D02*
X54464000Y-75388000D01*
%TO.N,/DATA*%
X57019068Y-77166000D02*
X54972000Y-75118932D01*
X81642000Y-60148000D02*
X81642000Y-58624000D01*
X54972000Y-73356000D02*
X55622068Y-72705932D01*
X59036000Y-69038000D02*
X57432000Y-69038000D01*
X59290000Y-69292000D02*
X59036000Y-69038000D01*
X82658000Y-42622000D02*
X84055000Y-41225000D01*
X79356000Y-77166000D02*
X57019068Y-77166000D01*
X58639932Y-72705932D02*
X59290000Y-72055864D01*
X54972000Y-75118932D02*
X54972000Y-73356000D01*
X82404000Y-65736000D02*
X82404000Y-74118000D01*
X81642000Y-58624000D02*
X82658000Y-57608000D01*
X55622068Y-72705932D02*
X58639932Y-72705932D01*
X84055000Y-41225000D02*
X85387000Y-41225000D01*
X82658000Y-57608000D02*
X82658000Y-42622000D01*
X59290000Y-72055864D02*
X59290000Y-69292000D01*
X82404000Y-74118000D02*
X79356000Y-77166000D01*
%TO.N,/RCLK*%
X84390480Y-65944480D02*
X86422480Y-65944480D01*
X86422480Y-65944480D02*
X86722000Y-66244000D01*
X84227520Y-71024480D02*
X83928000Y-71324000D01*
X83928000Y-71324000D02*
X83928000Y-74372000D01*
X86483384Y-71024480D02*
X84227520Y-71024480D01*
X83928000Y-74372000D02*
X80118000Y-78182000D01*
X53956000Y-75642000D02*
X53956000Y-72467000D01*
X85322000Y-69038000D02*
X86722000Y-69038000D01*
X86722000Y-66244000D02*
X86722000Y-69546000D01*
X84055000Y-43765000D02*
X85387000Y-43765000D01*
X86722000Y-69546000D02*
X86722000Y-70785864D01*
X82899020Y-64453020D02*
X84390480Y-65944480D01*
X86722000Y-69038000D02*
X86722000Y-69546000D01*
X82404000Y-58878000D02*
X83166000Y-58116000D01*
X55480000Y-70943000D02*
X55480000Y-66752000D01*
X80118000Y-78182000D02*
X56496000Y-78182000D01*
X83166000Y-44654000D02*
X84055000Y-43765000D01*
X82411788Y-64453020D02*
X82899020Y-64453020D01*
X86722000Y-70785864D02*
X86483384Y-71024480D01*
X55734000Y-66498000D02*
X57432000Y-66498000D01*
X82404000Y-60148000D02*
X82404000Y-58878000D01*
X53956000Y-72467000D02*
X55480000Y-70943000D01*
X55480000Y-66752000D02*
X55734000Y-66498000D01*
X56496000Y-78182000D02*
X53956000Y-75642000D01*
X83166000Y-58116000D02*
X83166000Y-44654000D01*
%TO.N,Net-(U2-Pad9)*%
X83938384Y-59375616D02*
X84182000Y-59132000D01*
X84182000Y-49226000D02*
X85387000Y-48021000D01*
X84182000Y-59132000D02*
X84182000Y-49226000D01*
X85387000Y-48021000D02*
X85387000Y-47575000D01*
X83928000Y-66498000D02*
X85322000Y-66498000D01*
X83938384Y-60158384D02*
X83938384Y-59375616D01*
%TO.N,Net-(J6-Pad2)*%
X48368000Y-52274000D02*
X49638000Y-52274000D01*
X48114000Y-43638000D02*
X50897000Y-43638000D01*
X46590000Y-45162000D02*
X46590000Y-50496000D01*
X48442564Y-59640000D02*
X49384000Y-60581436D01*
X49638000Y-52274000D02*
X50019000Y-52655000D01*
X48368000Y-66498000D02*
X47432000Y-66498000D01*
X50019000Y-52655000D02*
X50019000Y-54749022D01*
X46483480Y-55428520D02*
X46483480Y-59279480D01*
X46590000Y-50496000D02*
X48368000Y-52274000D01*
X49384000Y-65482000D02*
X48368000Y-66498000D01*
X50897000Y-43638000D02*
X51162000Y-43903000D01*
X49384000Y-60581436D02*
X49384000Y-65482000D01*
X46844000Y-55068000D02*
X46483480Y-55428520D01*
X46483480Y-59279480D02*
X46844000Y-59640000D01*
X49700022Y-55068000D02*
X46844000Y-55068000D01*
X50019000Y-54749022D02*
X49700022Y-55068000D01*
X46844000Y-59640000D02*
X48442564Y-59640000D01*
X48114000Y-43638000D02*
X46590000Y-45162000D01*
%TO.N,G_hum*%
X68180000Y-45670000D02*
X67418000Y-46432000D01*
X74276000Y-37034000D02*
X68688000Y-37034000D01*
X64116000Y-46432000D02*
X61830000Y-48718000D01*
X67418000Y-46432000D02*
X64116000Y-46432000D01*
X74530000Y-36780000D02*
X74276000Y-37034000D01*
X61830000Y-48718000D02*
X61830000Y-49099000D01*
X74530000Y-35992000D02*
X74530000Y-33859000D01*
X74530000Y-35992000D02*
X74530000Y-36780000D01*
X68180000Y-37542000D02*
X68180000Y-45670000D01*
X68688000Y-37034000D02*
X68180000Y-37542000D01*
%TO.N,F_hum*%
X77070000Y-35992000D02*
X77070000Y-33859000D01*
X74911000Y-31700000D02*
X63608000Y-31700000D01*
X63608000Y-31700000D02*
X61830000Y-33478000D01*
X77070000Y-33859000D02*
X74911000Y-31700000D01*
X61830000Y-33478000D02*
X61830000Y-33859000D01*
%TO.N,E_hum*%
X77070000Y-46966000D02*
X77070000Y-49099000D01*
X66910000Y-49480000D02*
X66910000Y-49099000D01*
X75800000Y-51258000D02*
X68688000Y-51258000D01*
X77070000Y-49099000D02*
X77070000Y-49988000D01*
X68688000Y-51258000D02*
X66910000Y-49480000D01*
X77070000Y-49988000D02*
X75800000Y-51258000D01*
%TO.N,D_hum*%
X69024742Y-50496000D02*
X68180000Y-49651258D01*
X67418000Y-47702000D02*
X65767000Y-47702000D01*
X68180000Y-49651258D02*
X68180000Y-48464000D01*
X65767000Y-47702000D02*
X64370000Y-49099000D01*
X68180000Y-48464000D02*
X67418000Y-47702000D01*
X73133000Y-50496000D02*
X69024742Y-50496000D01*
X74530000Y-49099000D02*
X73133000Y-50496000D01*
X74530000Y-46966000D02*
X74530000Y-49099000D01*
%TO.N,C_hum*%
X71990000Y-46966000D02*
X71964000Y-46940000D01*
X71964000Y-46940000D02*
X64624000Y-46940000D01*
X63100000Y-49988000D02*
X62592000Y-50496000D01*
X64624000Y-46940000D02*
X63100000Y-48464000D01*
X71990000Y-46966000D02*
X71990000Y-49099000D01*
X62592000Y-50496000D02*
X60687000Y-50496000D01*
X63100000Y-48464000D02*
X63100000Y-49988000D01*
X60687000Y-50496000D02*
X59290000Y-49099000D01*
%TO.N,B_hum*%
X69450000Y-35992000D02*
X69450000Y-33859000D01*
%TO.N,A_hum*%
X63100000Y-34748000D02*
X62592000Y-35256000D01*
X70593000Y-32462000D02*
X63862000Y-32462000D01*
X60687000Y-35256000D02*
X59290000Y-33859000D01*
X71990000Y-35992000D02*
X71990000Y-33859000D01*
X71990000Y-33859000D02*
X70593000Y-32462000D01*
X62592000Y-35256000D02*
X60687000Y-35256000D01*
X63862000Y-32462000D02*
X63100000Y-33224000D01*
X63100000Y-33224000D02*
X63100000Y-34748000D01*
%TO.N,G_tmp*%
X74530000Y-59005000D02*
X74530000Y-61138000D01*
%TO.N,F_tmp*%
X61830000Y-58624000D02*
X61830000Y-59005000D01*
X63608000Y-56846000D02*
X61830000Y-58624000D01*
X77070000Y-59005000D02*
X74911000Y-56846000D01*
X74911000Y-56846000D02*
X63608000Y-56846000D01*
X77070000Y-61138000D02*
X77070000Y-59005000D01*
%TO.N,E_tmp*%
X77070000Y-72112000D02*
X77070000Y-74245000D01*
X68434000Y-76150000D02*
X66910000Y-74626000D01*
X76054000Y-76150000D02*
X68434000Y-76150000D01*
X66910000Y-74626000D02*
X66910000Y-74245000D01*
X77070000Y-75134000D02*
X76054000Y-76150000D01*
X77070000Y-74245000D02*
X77070000Y-75134000D01*
%TO.N,D_tmp*%
X69024742Y-75642000D02*
X68180000Y-74797258D01*
X74530000Y-72112000D02*
X74530000Y-74245000D01*
X74530000Y-74245000D02*
X73133000Y-75642000D01*
X73133000Y-75642000D02*
X69024742Y-75642000D01*
X68180000Y-74797258D02*
X68180000Y-73610000D01*
X65767000Y-72848000D02*
X64370000Y-74245000D01*
X67418000Y-72848000D02*
X65767000Y-72848000D01*
X68180000Y-73610000D02*
X67418000Y-72848000D01*
%TO.N,C_tmp*%
X62592000Y-75642000D02*
X60687000Y-75642000D01*
X63100000Y-73610000D02*
X63100000Y-75134000D01*
X71990000Y-72112000D02*
X71990000Y-74245000D01*
X63100000Y-75134000D02*
X62592000Y-75642000D01*
X64624000Y-72086000D02*
X63100000Y-73610000D01*
X71990000Y-72112000D02*
X71964000Y-72086000D01*
X71964000Y-72086000D02*
X64624000Y-72086000D01*
X60687000Y-75642000D02*
X59290000Y-74245000D01*
%TO.N,B_tmp*%
X69450000Y-61138000D02*
X69450000Y-59005000D01*
%TO.N,A_tmp*%
X62592000Y-60148000D02*
X60433000Y-60148000D01*
X60433000Y-60148000D02*
X59290000Y-59005000D01*
X70339000Y-57354000D02*
X64116000Y-57354000D01*
X63100000Y-58370000D02*
X63100000Y-59640000D01*
X71990000Y-59005000D02*
X70339000Y-57354000D01*
X63100000Y-59640000D02*
X62592000Y-60148000D01*
X71990000Y-61138000D02*
X71990000Y-59005000D01*
X64116000Y-57354000D02*
X63100000Y-58370000D01*
%TO.N,ONES*%
X59290000Y-60656000D02*
X62719000Y-60656000D01*
X57390545Y-57862000D02*
X58020000Y-58491455D01*
X60814000Y-47448000D02*
X55988000Y-47448000D01*
X58020000Y-59386000D02*
X59290000Y-60656000D01*
X58020000Y-58491455D02*
X58020000Y-59386000D01*
X55988000Y-47448000D02*
X55480000Y-47956000D01*
X56242000Y-57862000D02*
X57390545Y-57862000D01*
X55480000Y-57100000D02*
X56242000Y-57862000D01*
X62719000Y-60656000D02*
X64370000Y-59005000D01*
X55480000Y-47956000D02*
X55480000Y-57100000D01*
%TO.N,Q_ONES*%
X63328000Y-44400000D02*
X63328000Y-42114000D01*
%TD*%
%TA.AperFunction,Conductor*%
%TO.N,GND*%
G36*
X52194086Y-62367536D02*
G01*
X52202395Y-62375121D01*
X52247317Y-62419964D01*
X52269697Y-62442305D01*
X52275929Y-62446147D01*
X52275931Y-62446148D01*
X52331117Y-62480166D01*
X52378610Y-62532938D01*
X52391000Y-62587425D01*
X52391000Y-62694575D01*
X52389449Y-62714285D01*
X52387326Y-62727690D01*
X52387671Y-62734278D01*
X52387671Y-62734282D01*
X52390827Y-62794499D01*
X52391000Y-62801093D01*
X52391000Y-62821120D01*
X52391344Y-62824391D01*
X52391344Y-62824395D01*
X52393093Y-62841039D01*
X52393610Y-62847613D01*
X52395269Y-62879265D01*
X52397111Y-62914415D01*
X52400618Y-62927499D01*
X52400624Y-62927523D01*
X52404228Y-62946971D01*
X52404908Y-62953440D01*
X52405645Y-62960456D01*
X52415462Y-62990669D01*
X52426318Y-63024082D01*
X52428191Y-63030406D01*
X52445506Y-63095024D01*
X52451667Y-63107116D01*
X52459230Y-63125375D01*
X52463425Y-63138285D01*
X52472633Y-63154233D01*
X52496876Y-63196224D01*
X52500023Y-63202020D01*
X52530393Y-63261625D01*
X52538932Y-63272170D01*
X52550125Y-63288455D01*
X52553616Y-63294502D01*
X52553619Y-63294505D01*
X52556915Y-63300215D01*
X52561327Y-63305115D01*
X52561330Y-63305119D01*
X52584364Y-63330700D01*
X52599092Y-63347056D01*
X52601675Y-63349925D01*
X52605963Y-63354946D01*
X52612024Y-63362431D01*
X52618563Y-63370506D01*
X52632710Y-63384653D01*
X52637251Y-63389437D01*
X52676086Y-63432567D01*
X52682030Y-63439169D01*
X52693018Y-63447152D01*
X52708046Y-63459989D01*
X53778511Y-64530454D01*
X53791348Y-64545482D01*
X53799331Y-64556470D01*
X53804233Y-64560883D01*
X53804234Y-64560885D01*
X53849063Y-64601249D01*
X53853847Y-64605790D01*
X53867994Y-64619937D01*
X53870559Y-64622014D01*
X53883554Y-64632537D01*
X53888575Y-64636825D01*
X53933381Y-64677170D01*
X53933385Y-64677173D01*
X53938285Y-64681585D01*
X53943995Y-64684881D01*
X53943998Y-64684884D01*
X53950045Y-64688375D01*
X53966330Y-64699568D01*
X53976875Y-64708107D01*
X54036137Y-64738302D01*
X54036480Y-64738477D01*
X54042276Y-64741624D01*
X54100215Y-64775075D01*
X54113125Y-64779270D01*
X54131384Y-64786833D01*
X54143476Y-64792994D01*
X54199197Y-64807925D01*
X54208094Y-64810309D01*
X54214419Y-64812182D01*
X54278044Y-64832855D01*
X54284611Y-64833545D01*
X54284615Y-64833546D01*
X54290288Y-64834142D01*
X54291530Y-64834272D01*
X54310972Y-64837875D01*
X54324085Y-64841389D01*
X54330682Y-64841735D01*
X54330684Y-64841735D01*
X54390887Y-64844890D01*
X54397461Y-64845407D01*
X54414105Y-64847156D01*
X54414109Y-64847156D01*
X54417380Y-64847500D01*
X54437407Y-64847500D01*
X54444001Y-64847673D01*
X54504218Y-64850829D01*
X54504222Y-64850829D01*
X54510810Y-64851174D01*
X54517325Y-64850142D01*
X54517327Y-64850142D01*
X54524214Y-64849051D01*
X54543925Y-64847500D01*
X55828896Y-64847500D01*
X55897243Y-64867648D01*
X56019549Y-64946620D01*
X56057166Y-64961780D01*
X56210169Y-65023442D01*
X56210172Y-65023443D01*
X56215738Y-65025686D01*
X56423338Y-65066228D01*
X56428900Y-65066500D01*
X58384845Y-65066500D01*
X58542565Y-65051452D01*
X58745533Y-64991908D01*
X58750861Y-64989164D01*
X58928248Y-64897804D01*
X58928251Y-64897802D01*
X58933579Y-64895058D01*
X58958667Y-64875351D01*
X59024592Y-64849001D01*
X59094298Y-64862476D01*
X59145654Y-64911497D01*
X59162500Y-64974437D01*
X59162500Y-65483401D01*
X59142498Y-65551522D01*
X59088842Y-65598015D01*
X59018568Y-65608119D01*
X58968152Y-65589253D01*
X58849489Y-65512633D01*
X58844451Y-65509380D01*
X58784353Y-65485160D01*
X58653831Y-65432558D01*
X58653828Y-65432557D01*
X58648262Y-65430314D01*
X58440662Y-65389772D01*
X58435100Y-65389500D01*
X56479155Y-65389500D01*
X56321435Y-65404548D01*
X56118467Y-65464092D01*
X56113140Y-65466836D01*
X56113139Y-65466836D01*
X55935752Y-65558196D01*
X55935749Y-65558198D01*
X55930421Y-65560942D01*
X55764081Y-65691604D01*
X55635348Y-65839956D01*
X55574661Y-65877473D01*
X55574700Y-65877573D01*
X55574225Y-65877761D01*
X55567331Y-65880491D01*
X55533444Y-65893907D01*
X55522215Y-65897752D01*
X55514912Y-65899874D01*
X55479607Y-65910131D01*
X55472781Y-65914168D01*
X55462091Y-65920490D01*
X55444341Y-65929187D01*
X55425412Y-65936681D01*
X55418996Y-65941342D01*
X55418995Y-65941343D01*
X55389519Y-65962759D01*
X55379595Y-65969278D01*
X55348224Y-65987830D01*
X55348219Y-65987834D01*
X55341401Y-65991866D01*
X55327014Y-66006253D01*
X55311980Y-66019094D01*
X55295513Y-66031058D01*
X55290460Y-66037166D01*
X55267228Y-66065249D01*
X55259238Y-66074029D01*
X55086517Y-66246750D01*
X55078191Y-66254326D01*
X55071697Y-66258447D01*
X55066274Y-66264222D01*
X55024915Y-66308265D01*
X55022160Y-66311107D01*
X55002361Y-66330906D01*
X54999937Y-66334031D01*
X54999929Y-66334040D01*
X54999863Y-66334126D01*
X54992155Y-66343151D01*
X54961783Y-66375494D01*
X54957965Y-66382438D01*
X54957964Y-66382440D01*
X54951978Y-66393329D01*
X54941127Y-66409847D01*
X54928650Y-66425933D01*
X54911024Y-66466666D01*
X54905807Y-66477314D01*
X54904018Y-66480568D01*
X54884431Y-66516197D01*
X54882460Y-66523872D01*
X54882458Y-66523878D01*
X54879369Y-66535911D01*
X54872966Y-66554613D01*
X54864883Y-66573292D01*
X54862575Y-66587866D01*
X54857940Y-66617127D01*
X54855535Y-66628740D01*
X54844500Y-66671718D01*
X54844500Y-66692065D01*
X54842949Y-66711776D01*
X54839765Y-66731879D01*
X54840511Y-66739771D01*
X54843941Y-66776056D01*
X54844500Y-66787914D01*
X54844500Y-70627577D01*
X54824498Y-70695698D01*
X54807595Y-70716672D01*
X53562517Y-71961750D01*
X53554191Y-71969326D01*
X53547697Y-71973447D01*
X53542274Y-71979222D01*
X53500915Y-72023265D01*
X53498160Y-72026107D01*
X53478361Y-72045906D01*
X53475937Y-72049031D01*
X53475929Y-72049040D01*
X53475863Y-72049126D01*
X53468155Y-72058151D01*
X53437783Y-72090494D01*
X53433965Y-72097438D01*
X53433964Y-72097440D01*
X53427978Y-72108329D01*
X53417127Y-72124847D01*
X53404650Y-72140933D01*
X53387024Y-72181666D01*
X53381807Y-72192314D01*
X53377901Y-72199420D01*
X53360431Y-72231197D01*
X53358460Y-72238872D01*
X53358458Y-72238878D01*
X53355369Y-72250911D01*
X53348966Y-72269613D01*
X53340883Y-72288292D01*
X53339644Y-72296117D01*
X53333940Y-72332127D01*
X53331535Y-72343740D01*
X53320500Y-72386718D01*
X53320500Y-72407065D01*
X53318949Y-72426776D01*
X53315765Y-72446879D01*
X53316511Y-72454771D01*
X53319941Y-72491056D01*
X53320500Y-72502914D01*
X53320500Y-75562980D01*
X53319970Y-75574214D01*
X53318292Y-75581719D01*
X53318541Y-75589638D01*
X53320438Y-75650012D01*
X53320500Y-75653969D01*
X53320500Y-75681983D01*
X53320996Y-75685908D01*
X53320996Y-75685909D01*
X53321008Y-75686004D01*
X53321941Y-75697849D01*
X53323335Y-75742205D01*
X53325547Y-75749817D01*
X53329013Y-75761748D01*
X53333023Y-75781112D01*
X53335573Y-75801299D01*
X53338489Y-75808663D01*
X53338490Y-75808668D01*
X53351907Y-75842556D01*
X53355752Y-75853785D01*
X53368131Y-75896393D01*
X53372169Y-75903220D01*
X53372170Y-75903223D01*
X53378488Y-75913906D01*
X53387188Y-75931664D01*
X53391761Y-75943215D01*
X53391765Y-75943221D01*
X53394681Y-75950588D01*
X53399339Y-75956999D01*
X53399340Y-75957001D01*
X53420764Y-75986488D01*
X53427281Y-75996410D01*
X53445826Y-76027768D01*
X53445829Y-76027772D01*
X53449866Y-76034598D01*
X53464250Y-76048982D01*
X53477091Y-76064016D01*
X53489058Y-76080487D01*
X53495166Y-76085540D01*
X53523255Y-76108777D01*
X53532035Y-76116767D01*
X55990745Y-78575477D01*
X55998322Y-78583803D01*
X56002447Y-78590303D01*
X56008225Y-78595729D01*
X56008226Y-78595730D01*
X56052281Y-78637100D01*
X56055123Y-78639855D01*
X56074906Y-78659638D01*
X56078114Y-78662126D01*
X56087143Y-78669837D01*
X56119494Y-78700217D01*
X56126443Y-78704037D01*
X56137329Y-78710022D01*
X56153853Y-78720876D01*
X56169933Y-78733349D01*
X56177210Y-78736498D01*
X56210650Y-78750969D01*
X56221311Y-78756192D01*
X56253247Y-78773749D01*
X56253252Y-78773751D01*
X56260197Y-78777569D01*
X56267871Y-78779539D01*
X56267878Y-78779542D01*
X56279913Y-78782632D01*
X56298618Y-78789036D01*
X56310013Y-78793967D01*
X56317292Y-78797117D01*
X56332401Y-78799510D01*
X56361127Y-78804060D01*
X56372740Y-78806465D01*
X56415718Y-78817500D01*
X56436065Y-78817500D01*
X56455777Y-78819051D01*
X56475879Y-78822235D01*
X56483771Y-78821489D01*
X56520056Y-78818059D01*
X56531914Y-78817500D01*
X80038980Y-78817500D01*
X80050214Y-78818030D01*
X80057719Y-78819708D01*
X80126012Y-78817562D01*
X80129969Y-78817500D01*
X80157983Y-78817500D01*
X80161908Y-78817004D01*
X80161909Y-78817004D01*
X80162004Y-78816992D01*
X80173849Y-78816059D01*
X80203670Y-78815122D01*
X80210282Y-78814914D01*
X80210283Y-78814914D01*
X80218205Y-78814665D01*
X80237749Y-78808987D01*
X80257112Y-78804977D01*
X80269440Y-78803420D01*
X80269442Y-78803420D01*
X80277299Y-78802427D01*
X80284663Y-78799511D01*
X80284668Y-78799510D01*
X80318556Y-78786093D01*
X80329785Y-78782248D01*
X80346465Y-78777402D01*
X80372393Y-78769869D01*
X80379220Y-78765831D01*
X80379223Y-78765830D01*
X80389906Y-78759512D01*
X80407664Y-78750812D01*
X80419215Y-78746239D01*
X80419221Y-78746235D01*
X80426588Y-78743319D01*
X80435977Y-78736498D01*
X80462488Y-78717236D01*
X80472410Y-78710719D01*
X80503768Y-78692174D01*
X80503772Y-78692171D01*
X80510598Y-78688134D01*
X80524982Y-78673750D01*
X80540016Y-78660909D01*
X80550073Y-78653602D01*
X80556487Y-78648942D01*
X80584778Y-78614744D01*
X80592767Y-78605965D01*
X84321483Y-74877250D01*
X84329809Y-74869674D01*
X84336303Y-74865553D01*
X84383086Y-74815734D01*
X84385840Y-74812893D01*
X84405639Y-74793094D01*
X84408063Y-74789969D01*
X84408071Y-74789960D01*
X84408137Y-74789874D01*
X84415845Y-74780849D01*
X84440790Y-74754285D01*
X84446217Y-74748506D01*
X84456023Y-74730669D01*
X84466873Y-74714153D01*
X84479350Y-74698067D01*
X84496976Y-74657334D01*
X84502193Y-74646686D01*
X84519749Y-74614751D01*
X84523569Y-74607803D01*
X84525540Y-74600128D01*
X84525542Y-74600122D01*
X84528631Y-74588089D01*
X84535034Y-74569387D01*
X84543117Y-74550708D01*
X84544357Y-74542882D01*
X84544358Y-74542877D01*
X84550060Y-74506880D01*
X84552466Y-74495260D01*
X84561528Y-74459963D01*
X84561528Y-74459962D01*
X84563500Y-74452282D01*
X84563500Y-74431934D01*
X84565051Y-74412223D01*
X84566995Y-74399949D01*
X84568235Y-74392120D01*
X84564059Y-74347944D01*
X84563500Y-74336086D01*
X84563500Y-73782500D01*
X84583502Y-73714379D01*
X84637158Y-73667886D01*
X84689500Y-73656500D01*
X86213502Y-73656500D01*
X86215950Y-73656307D01*
X86215958Y-73656307D01*
X86244421Y-73654067D01*
X86244426Y-73654066D01*
X86250831Y-73653562D01*
X86372088Y-73618334D01*
X86402988Y-73609357D01*
X86402990Y-73609356D01*
X86410601Y-73607145D01*
X86439411Y-73590107D01*
X86546980Y-73526491D01*
X86546983Y-73526489D01*
X86553807Y-73522453D01*
X86671453Y-73404807D01*
X86675489Y-73397983D01*
X86675491Y-73397980D01*
X86752108Y-73268427D01*
X86756145Y-73261601D01*
X86762099Y-73241109D01*
X86787376Y-73154101D01*
X86802562Y-73101831D01*
X86804587Y-73076112D01*
X86805307Y-73066958D01*
X86805307Y-73066950D01*
X86805500Y-73064502D01*
X86805500Y-72631498D01*
X86802562Y-72594169D01*
X86756145Y-72434399D01*
X86734651Y-72398055D01*
X86717193Y-72329242D01*
X86739710Y-72261911D01*
X86795054Y-72217441D01*
X86818765Y-72210773D01*
X86822205Y-72210665D01*
X86841749Y-72204987D01*
X86861112Y-72200977D01*
X86873440Y-72199420D01*
X86873442Y-72199420D01*
X86881299Y-72198427D01*
X86888663Y-72195511D01*
X86888668Y-72195510D01*
X86922556Y-72182093D01*
X86933785Y-72178248D01*
X86950465Y-72173402D01*
X86976393Y-72165869D01*
X86983220Y-72161831D01*
X86983223Y-72161830D01*
X86993906Y-72155512D01*
X87011664Y-72146812D01*
X87023215Y-72142239D01*
X87023221Y-72142235D01*
X87030588Y-72139319D01*
X87066491Y-72113234D01*
X87076410Y-72106719D01*
X87107768Y-72088174D01*
X87107772Y-72088171D01*
X87114598Y-72084134D01*
X87128982Y-72069750D01*
X87144016Y-72056909D01*
X87154073Y-72049602D01*
X87160487Y-72044942D01*
X87188778Y-72010744D01*
X87196767Y-72001965D01*
X87623477Y-71575255D01*
X87631803Y-71567678D01*
X87638303Y-71563553D01*
X87685101Y-71513718D01*
X87687855Y-71510877D01*
X87707638Y-71491094D01*
X87710129Y-71487883D01*
X87717838Y-71478856D01*
X87742789Y-71452286D01*
X87748217Y-71446506D01*
X87755761Y-71432783D01*
X87758022Y-71428671D01*
X87768863Y-71412164D01*
X87769891Y-71410838D01*
X87771336Y-71408975D01*
X87828885Y-71367399D01*
X87899776Y-71363537D01*
X87961502Y-71398614D01*
X87994465Y-71461494D01*
X87996908Y-71486146D01*
X87999305Y-79325461D01*
X87979324Y-79393588D01*
X87925682Y-79440098D01*
X87873305Y-79451500D01*
X49466582Y-79451500D01*
X49398461Y-79431498D01*
X49351968Y-79377842D01*
X49341864Y-79307568D01*
X49371358Y-79242988D01*
X49416844Y-79209732D01*
X49606228Y-79128366D01*
X49606230Y-79128365D01*
X49609712Y-79126869D01*
X49897321Y-78959813D01*
X49900343Y-78957532D01*
X49900347Y-78957529D01*
X50159753Y-78761697D01*
X50159754Y-78761696D01*
X50162777Y-78759414D01*
X50344474Y-78584257D01*
X50399508Y-78531204D01*
X50399509Y-78531203D01*
X50402235Y-78528575D01*
X50612227Y-78270641D01*
X50789710Y-77989347D01*
X50932114Y-77688767D01*
X51037377Y-77373257D01*
X51103972Y-77047386D01*
X51130936Y-76715875D01*
X51131542Y-76658000D01*
X51130026Y-76632853D01*
X51111755Y-76329772D01*
X51111754Y-76329765D01*
X51111527Y-76325997D01*
X51062216Y-76055997D01*
X51052451Y-76002530D01*
X51052450Y-76002525D01*
X51051770Y-75998803D01*
X51047947Y-75986488D01*
X50956952Y-75693438D01*
X50953139Y-75681157D01*
X50817061Y-75377662D01*
X50715429Y-75208852D01*
X50647466Y-75095966D01*
X50647462Y-75095960D01*
X50645507Y-75092713D01*
X50643180Y-75089729D01*
X50643175Y-75089722D01*
X50443294Y-74833425D01*
X50443288Y-74833418D01*
X50440963Y-74830437D01*
X50206392Y-74594634D01*
X49945191Y-74388720D01*
X49661144Y-74215677D01*
X49540046Y-74160617D01*
X49361817Y-74079580D01*
X49361809Y-74079577D01*
X49358365Y-74078011D01*
X49041240Y-73977718D01*
X48767531Y-73926247D01*
X48718087Y-73916949D01*
X48718085Y-73916949D01*
X48714364Y-73916249D01*
X48382470Y-73894496D01*
X48378690Y-73894704D01*
X48378689Y-73894704D01*
X48280918Y-73900085D01*
X48050366Y-73912773D01*
X48046639Y-73913434D01*
X48046635Y-73913434D01*
X47787510Y-73959358D01*
X47722864Y-73970815D01*
X47719239Y-73971920D01*
X47719234Y-73971921D01*
X47525044Y-74031106D01*
X47404707Y-74067782D01*
X47401243Y-74069313D01*
X47401236Y-74069316D01*
X47214051Y-74152070D01*
X47100503Y-74202269D01*
X47097249Y-74204205D01*
X47097243Y-74204208D01*
X46855645Y-74347944D01*
X46814659Y-74372328D01*
X46811658Y-74374643D01*
X46811654Y-74374646D01*
X46737399Y-74431934D01*
X46551316Y-74575496D01*
X46548617Y-74578152D01*
X46548618Y-74578152D01*
X46406118Y-74718431D01*
X46314288Y-74808829D01*
X46107009Y-75068949D01*
X45932481Y-75352086D01*
X45793232Y-75654140D01*
X45792073Y-75657740D01*
X45792070Y-75657747D01*
X45703862Y-75931664D01*
X45691280Y-75970735D01*
X45690561Y-75974451D01*
X45690559Y-75974459D01*
X45663026Y-76116767D01*
X45628100Y-76297285D01*
X45627833Y-76301061D01*
X45627832Y-76301066D01*
X45616803Y-76456842D01*
X45604610Y-76629061D01*
X45621147Y-76961255D01*
X45621788Y-76964986D01*
X45621789Y-76964994D01*
X45636586Y-77051103D01*
X45677474Y-77289057D01*
X45772774Y-77607718D01*
X45774287Y-77611189D01*
X45774289Y-77611195D01*
X45865458Y-77820370D01*
X45905666Y-77912622D01*
X46074226Y-78199352D01*
X46076527Y-78202367D01*
X46273712Y-78460742D01*
X46273717Y-78460748D01*
X46276012Y-78463755D01*
X46278656Y-78466469D01*
X46469257Y-78662126D01*
X46508102Y-78702002D01*
X46767132Y-78910640D01*
X47049352Y-79086648D01*
X47052800Y-79088260D01*
X47052801Y-79088260D01*
X47316172Y-79211352D01*
X47369417Y-79258315D01*
X47388818Y-79326609D01*
X47368217Y-79394551D01*
X47314154Y-79440570D01*
X47262823Y-79451500D01*
X45192500Y-79451500D01*
X45124379Y-79431498D01*
X45077886Y-79377842D01*
X45066500Y-79325500D01*
X45066500Y-69225424D01*
X45086502Y-69157303D01*
X45140158Y-69110810D01*
X45210432Y-69100706D01*
X45275012Y-69130200D01*
X45281595Y-69136329D01*
X45432869Y-69287603D01*
X45466267Y-69347177D01*
X45479126Y-69400534D01*
X45481608Y-69405992D01*
X45481609Y-69405996D01*
X45525054Y-69501546D01*
X45566675Y-69593087D01*
X45689055Y-69765611D01*
X45841851Y-69911881D01*
X46019549Y-70026620D01*
X46025115Y-70028863D01*
X46210169Y-70103442D01*
X46210172Y-70103443D01*
X46215738Y-70105686D01*
X46423338Y-70146228D01*
X46428900Y-70146500D01*
X48384845Y-70146500D01*
X48542565Y-70131452D01*
X48745533Y-70071908D01*
X48829110Y-70028863D01*
X48928248Y-69977804D01*
X48928251Y-69977802D01*
X48933579Y-69975058D01*
X49099919Y-69844396D01*
X49103851Y-69839865D01*
X49103854Y-69839862D01*
X49234620Y-69689167D01*
X49238551Y-69684637D01*
X49241551Y-69679451D01*
X49241554Y-69679447D01*
X49341466Y-69506742D01*
X49344472Y-69501546D01*
X49413860Y-69301729D01*
X49444212Y-69092396D01*
X49434432Y-68881101D01*
X49384874Y-68675466D01*
X49297325Y-68482913D01*
X49174945Y-68310389D01*
X49022149Y-68164119D01*
X48844451Y-68049380D01*
X48784353Y-68025160D01*
X48653831Y-67972558D01*
X48653828Y-67972557D01*
X48648262Y-67970314D01*
X48440662Y-67929772D01*
X48435100Y-67929500D01*
X46479155Y-67929500D01*
X46321435Y-67944548D01*
X46118467Y-68004092D01*
X46117788Y-68001777D01*
X46057604Y-68007499D01*
X45994513Y-67974941D01*
X45959040Y-67913442D01*
X45955500Y-67883786D01*
X45955500Y-67647434D01*
X45975502Y-67579313D01*
X46029158Y-67532820D01*
X46099432Y-67522716D01*
X46128592Y-67530565D01*
X46215738Y-67565686D01*
X46423338Y-67606228D01*
X46428900Y-67606500D01*
X48384845Y-67606500D01*
X48542565Y-67591452D01*
X48745533Y-67531908D01*
X48759451Y-67524740D01*
X48928248Y-67437804D01*
X48928251Y-67437802D01*
X48933579Y-67435058D01*
X49099919Y-67304396D01*
X49103851Y-67299865D01*
X49103854Y-67299862D01*
X49234620Y-67149167D01*
X49238551Y-67144637D01*
X49241551Y-67139451D01*
X49241554Y-67139447D01*
X49341466Y-66966742D01*
X49344472Y-66961546D01*
X49413860Y-66761729D01*
X49428024Y-66664044D01*
X49443351Y-66558336D01*
X49443351Y-66558333D01*
X49444212Y-66552396D01*
X49437898Y-66415988D01*
X49436527Y-66386357D01*
X49453358Y-66317384D01*
X49473297Y-66291436D01*
X49777483Y-65987250D01*
X49785809Y-65979674D01*
X49792303Y-65975553D01*
X49839086Y-65925734D01*
X49841840Y-65922893D01*
X49861639Y-65903094D01*
X49864063Y-65899969D01*
X49864071Y-65899960D01*
X49864137Y-65899874D01*
X49871845Y-65890849D01*
X49896790Y-65864285D01*
X49902217Y-65858506D01*
X49912023Y-65840669D01*
X49922873Y-65824153D01*
X49935350Y-65808067D01*
X49952976Y-65767334D01*
X49958193Y-65756686D01*
X49975749Y-65724751D01*
X49979569Y-65717803D01*
X49981540Y-65710128D01*
X49981542Y-65710122D01*
X49984631Y-65698089D01*
X49991034Y-65679387D01*
X49999117Y-65660708D01*
X50004999Y-65623573D01*
X50006060Y-65616873D01*
X50008467Y-65605251D01*
X50019500Y-65562282D01*
X50019500Y-65541935D01*
X50021051Y-65522224D01*
X50022995Y-65509950D01*
X50024235Y-65502121D01*
X50022465Y-65483401D01*
X50020059Y-65457944D01*
X50019500Y-65446086D01*
X50019500Y-62842540D01*
X50039502Y-62774419D01*
X50093158Y-62727926D01*
X50163432Y-62717822D01*
X50198749Y-62728345D01*
X50205031Y-62731274D01*
X50211262Y-62735115D01*
X50326417Y-62773310D01*
X50372611Y-62788632D01*
X50372613Y-62788632D01*
X50379139Y-62790797D01*
X50385975Y-62791497D01*
X50385978Y-62791498D01*
X50415270Y-62794499D01*
X50483600Y-62801500D01*
X51384400Y-62801500D01*
X51387646Y-62801163D01*
X51387650Y-62801163D01*
X51483308Y-62791238D01*
X51483312Y-62791237D01*
X51490166Y-62790526D01*
X51496702Y-62788345D01*
X51496704Y-62788345D01*
X51642291Y-62739773D01*
X51657946Y-62734550D01*
X51808348Y-62641478D01*
X51933305Y-62516303D01*
X51966863Y-62461863D01*
X52006118Y-62398179D01*
X52058890Y-62350686D01*
X52128962Y-62339262D01*
X52194086Y-62367536D01*
G37*
%TD.AperFunction*%
%TA.AperFunction,Conductor*%
G36*
X81714508Y-72272559D02*
G01*
X81758978Y-72327903D01*
X81768500Y-72375955D01*
X81768500Y-73802578D01*
X81748498Y-73870699D01*
X81731595Y-73891673D01*
X79129672Y-76493595D01*
X79067360Y-76527621D01*
X79040577Y-76530500D01*
X78146423Y-76530500D01*
X78078302Y-76510498D01*
X78031809Y-76456842D01*
X78021705Y-76386568D01*
X78051199Y-76321988D01*
X78057328Y-76315404D01*
X78255966Y-76116767D01*
X78592008Y-75780725D01*
X78600327Y-75773155D01*
X78606823Y-75769033D01*
X78653606Y-75719214D01*
X78656360Y-75716373D01*
X78676159Y-75696574D01*
X78678588Y-75693443D01*
X78678592Y-75693438D01*
X78678659Y-75693352D01*
X78686367Y-75684327D01*
X78711312Y-75657763D01*
X78716737Y-75651986D01*
X78720555Y-75645041D01*
X78720558Y-75645037D01*
X78726546Y-75634146D01*
X78737398Y-75617625D01*
X78745012Y-75607809D01*
X78745012Y-75607808D01*
X78749870Y-75601546D01*
X78767494Y-75560818D01*
X78772716Y-75550161D01*
X78790268Y-75518234D01*
X78790269Y-75518231D01*
X78794089Y-75511283D01*
X78799152Y-75491565D01*
X78805554Y-75472866D01*
X78813637Y-75454187D01*
X78814876Y-75446363D01*
X78814878Y-75446357D01*
X78820580Y-75410360D01*
X78822986Y-75398740D01*
X78832048Y-75363443D01*
X78832048Y-75363442D01*
X78834020Y-75355762D01*
X78834020Y-75335414D01*
X78835571Y-75315703D01*
X78837515Y-75303429D01*
X78838755Y-75295600D01*
X78834579Y-75251424D01*
X78834020Y-75239566D01*
X78834020Y-72796903D01*
X78854022Y-72728782D01*
X78870925Y-72707807D01*
X79198310Y-72380423D01*
X79260622Y-72346398D01*
X79322557Y-72348522D01*
X79436989Y-72381767D01*
X79436993Y-72381768D01*
X79443169Y-72383562D01*
X79449574Y-72384066D01*
X79449579Y-72384067D01*
X79478042Y-72386307D01*
X79478050Y-72386307D01*
X79480498Y-72386500D01*
X81263502Y-72386500D01*
X81265950Y-72386307D01*
X81265958Y-72386307D01*
X81294421Y-72384067D01*
X81294426Y-72384066D01*
X81300831Y-72383562D01*
X81437870Y-72343749D01*
X81452988Y-72339357D01*
X81452990Y-72339356D01*
X81460601Y-72337145D01*
X81578363Y-72267500D01*
X81647177Y-72250042D01*
X81714508Y-72272559D01*
G37*
%TD.AperFunction*%
%TA.AperFunction,Conductor*%
G36*
X58027004Y-73757502D02*
G01*
X58073497Y-73811158D01*
X58083601Y-73881432D01*
X58080589Y-73896112D01*
X58047310Y-74020309D01*
X58047309Y-74020315D01*
X58045885Y-74025629D01*
X58026693Y-74245000D01*
X58045885Y-74464371D01*
X58102880Y-74677076D01*
X58120166Y-74714145D01*
X58193618Y-74871666D01*
X58193621Y-74871671D01*
X58195944Y-74876653D01*
X58199100Y-74881160D01*
X58199101Y-74881162D01*
X58310123Y-75039717D01*
X58322251Y-75057038D01*
X58477962Y-75212749D01*
X58482471Y-75215906D01*
X58482473Y-75215908D01*
X58529578Y-75248891D01*
X58658346Y-75339056D01*
X58857924Y-75432120D01*
X59070629Y-75489115D01*
X59290000Y-75508307D01*
X59509371Y-75489115D01*
X59532181Y-75483003D01*
X59538488Y-75481313D01*
X59609465Y-75483003D01*
X59660193Y-75513925D01*
X59953673Y-75807405D01*
X59987699Y-75869717D01*
X59982634Y-75940532D01*
X59940087Y-75997368D01*
X59873567Y-76022179D01*
X59864578Y-76022500D01*
X57573423Y-76022500D01*
X57505302Y-76002498D01*
X57484328Y-75985595D01*
X56152405Y-74653672D01*
X56118379Y-74591360D01*
X56115500Y-74564577D01*
X56115500Y-74179423D01*
X56135502Y-74111302D01*
X56152405Y-74090327D01*
X56468329Y-73774404D01*
X56530641Y-73740379D01*
X56557424Y-73737500D01*
X57958883Y-73737500D01*
X58027004Y-73757502D01*
G37*
%TD.AperFunction*%
%TA.AperFunction,Conductor*%
G36*
X70612598Y-72741502D02*
G01*
X70659091Y-72795158D01*
X70664001Y-72807624D01*
X70673450Y-72835946D01*
X70766522Y-72986348D01*
X70891697Y-73111305D01*
X70897927Y-73115145D01*
X70897928Y-73115146D01*
X71035767Y-73200112D01*
X71083261Y-73252885D01*
X71094683Y-73322956D01*
X71066409Y-73388080D01*
X71058746Y-73396467D01*
X71022251Y-73432962D01*
X71019094Y-73437470D01*
X71019092Y-73437473D01*
X70899101Y-73608838D01*
X70895944Y-73613347D01*
X70893621Y-73618329D01*
X70893618Y-73618334D01*
X70848832Y-73714379D01*
X70802880Y-73812924D01*
X70745885Y-74025629D01*
X70726693Y-74245000D01*
X70745885Y-74464371D01*
X70802880Y-74677076D01*
X70834195Y-74744231D01*
X70872907Y-74827250D01*
X70883568Y-74897442D01*
X70854588Y-74962255D01*
X70795168Y-75001111D01*
X70758712Y-75006500D01*
X69340165Y-75006500D01*
X69272044Y-74986498D01*
X69251070Y-74969595D01*
X68852405Y-74570930D01*
X68818379Y-74508618D01*
X68815500Y-74481835D01*
X68815500Y-73689032D01*
X68816030Y-73677793D01*
X68817709Y-73670281D01*
X68815562Y-73601969D01*
X68815500Y-73598012D01*
X68815500Y-73570017D01*
X68814992Y-73565994D01*
X68814059Y-73554152D01*
X68813915Y-73549545D01*
X68812665Y-73509795D01*
X68806987Y-73490251D01*
X68802977Y-73470888D01*
X68801420Y-73458560D01*
X68801420Y-73458558D01*
X68800427Y-73450701D01*
X68797511Y-73443337D01*
X68797510Y-73443332D01*
X68784093Y-73409444D01*
X68780248Y-73398215D01*
X68770081Y-73363222D01*
X68767869Y-73355607D01*
X68763830Y-73348777D01*
X68757512Y-73338094D01*
X68748812Y-73320336D01*
X68744239Y-73308785D01*
X68744235Y-73308779D01*
X68741319Y-73301412D01*
X68715234Y-73265509D01*
X68708719Y-73255590D01*
X68690174Y-73224232D01*
X68690171Y-73224228D01*
X68686134Y-73217402D01*
X68671750Y-73203018D01*
X68658909Y-73187984D01*
X68651602Y-73177927D01*
X68646942Y-73171513D01*
X68612750Y-73143227D01*
X68603970Y-73135237D01*
X68405328Y-72936595D01*
X68371302Y-72874283D01*
X68376367Y-72803468D01*
X68418914Y-72746632D01*
X68485434Y-72721821D01*
X68494423Y-72721500D01*
X70544477Y-72721500D01*
X70612598Y-72741502D01*
G37*
%TD.AperFunction*%
%TA.AperFunction,Conductor*%
G36*
X55308012Y-60367199D02*
G01*
X55314595Y-60373328D01*
X55482750Y-60541483D01*
X55490326Y-60549809D01*
X55494447Y-60556303D01*
X55512706Y-60573449D01*
X55544265Y-60603085D01*
X55547107Y-60605840D01*
X55566906Y-60625639D01*
X55570031Y-60628063D01*
X55570040Y-60628071D01*
X55570126Y-60628137D01*
X55579151Y-60635845D01*
X55611494Y-60666217D01*
X55618438Y-60670035D01*
X55618440Y-60670036D01*
X55629329Y-60676022D01*
X55645847Y-60686873D01*
X55661933Y-60699350D01*
X55702666Y-60716976D01*
X55713314Y-60722193D01*
X55752197Y-60743569D01*
X55759872Y-60745540D01*
X55759878Y-60745542D01*
X55771911Y-60748631D01*
X55790613Y-60755034D01*
X55809292Y-60763117D01*
X55843128Y-60768476D01*
X55853127Y-60770060D01*
X55864740Y-60772465D01*
X55907718Y-60783500D01*
X55928065Y-60783500D01*
X55947777Y-60785051D01*
X55967879Y-60788235D01*
X55975771Y-60787489D01*
X56012056Y-60784059D01*
X56023914Y-60783500D01*
X57577578Y-60783500D01*
X57645699Y-60803502D01*
X57666673Y-60820405D01*
X58657745Y-61811477D01*
X58665322Y-61819803D01*
X58669447Y-61826303D01*
X58675225Y-61831729D01*
X58675226Y-61831730D01*
X58719281Y-61873100D01*
X58722123Y-61875855D01*
X58741906Y-61895638D01*
X58745114Y-61898126D01*
X58754143Y-61905837D01*
X58786494Y-61936217D01*
X58793443Y-61940037D01*
X58804329Y-61946022D01*
X58820853Y-61956876D01*
X58836933Y-61969349D01*
X58844210Y-61972498D01*
X58877650Y-61986969D01*
X58888311Y-61992192D01*
X58920247Y-62009749D01*
X58920252Y-62009751D01*
X58927197Y-62013569D01*
X58934871Y-62015539D01*
X58934878Y-62015542D01*
X58946913Y-62018632D01*
X58965618Y-62025036D01*
X58973198Y-62028316D01*
X58984292Y-62033117D01*
X59011342Y-62037401D01*
X59028127Y-62040060D01*
X59039740Y-62042465D01*
X59082718Y-62053500D01*
X59103065Y-62053500D01*
X59122777Y-62055051D01*
X59142879Y-62058235D01*
X59150771Y-62057489D01*
X59187056Y-62054059D01*
X59198914Y-62053500D01*
X64436577Y-62053500D01*
X64504698Y-62073502D01*
X64551191Y-62127158D01*
X64561295Y-62197432D01*
X64531801Y-62262012D01*
X64525672Y-62268595D01*
X63976517Y-62817750D01*
X63968191Y-62825326D01*
X63961697Y-62829447D01*
X63956274Y-62835222D01*
X63914915Y-62879265D01*
X63912160Y-62882107D01*
X63892361Y-62901906D01*
X63889937Y-62905031D01*
X63889929Y-62905040D01*
X63889863Y-62905126D01*
X63882155Y-62914151D01*
X63851783Y-62946494D01*
X63847965Y-62953438D01*
X63847964Y-62953440D01*
X63841978Y-62964329D01*
X63831127Y-62980847D01*
X63818650Y-62996933D01*
X63801024Y-63037666D01*
X63795807Y-63048314D01*
X63774431Y-63087197D01*
X63772460Y-63094872D01*
X63772458Y-63094878D01*
X63769369Y-63106911D01*
X63762966Y-63125613D01*
X63754883Y-63144292D01*
X63751112Y-63168099D01*
X63747940Y-63188127D01*
X63745535Y-63199740D01*
X63734500Y-63242718D01*
X63734500Y-63263065D01*
X63732949Y-63282776D01*
X63732827Y-63283547D01*
X63729765Y-63302879D01*
X63730511Y-63310771D01*
X63733941Y-63347056D01*
X63734500Y-63358914D01*
X63734500Y-70500577D01*
X63714498Y-70568698D01*
X63697595Y-70589672D01*
X61436517Y-72850750D01*
X61428191Y-72858326D01*
X61421697Y-72862447D01*
X61416274Y-72868222D01*
X61374915Y-72912265D01*
X61372160Y-72915107D01*
X61352361Y-72934906D01*
X61349937Y-72938031D01*
X61349929Y-72938040D01*
X61349863Y-72938126D01*
X61342155Y-72947151D01*
X61311783Y-72979494D01*
X61307965Y-72986438D01*
X61307964Y-72986440D01*
X61301978Y-72997329D01*
X61291127Y-73013847D01*
X61278650Y-73029933D01*
X61261024Y-73070666D01*
X61255808Y-73081312D01*
X61242949Y-73104703D01*
X61198062Y-73150537D01*
X61198347Y-73150944D01*
X61159811Y-73177927D01*
X61022473Y-73274092D01*
X61022470Y-73274094D01*
X61017962Y-73277251D01*
X60862251Y-73432962D01*
X60859094Y-73437470D01*
X60859092Y-73437473D01*
X60739101Y-73608838D01*
X60735944Y-73613347D01*
X60733621Y-73618329D01*
X60733618Y-73618334D01*
X60674195Y-73745769D01*
X60627278Y-73799054D01*
X60559001Y-73818515D01*
X60491041Y-73797973D01*
X60445805Y-73745769D01*
X60386382Y-73618334D01*
X60386379Y-73618329D01*
X60384056Y-73613347D01*
X60380899Y-73608838D01*
X60260908Y-73437473D01*
X60260906Y-73437470D01*
X60257749Y-73432962D01*
X60102038Y-73277251D01*
X60089437Y-73268427D01*
X60008552Y-73211791D01*
X59921654Y-73150944D01*
X59916672Y-73148621D01*
X59916667Y-73148618D01*
X59887057Y-73134811D01*
X59833772Y-73087893D01*
X59814311Y-73019616D01*
X59834853Y-72951656D01*
X59851212Y-72931521D01*
X60191483Y-72591250D01*
X60199809Y-72583674D01*
X60206303Y-72579553D01*
X60253086Y-72529734D01*
X60255840Y-72526893D01*
X60275639Y-72507094D01*
X60278063Y-72503969D01*
X60278071Y-72503960D01*
X60278137Y-72503874D01*
X60285845Y-72494849D01*
X60310790Y-72468285D01*
X60316217Y-72462506D01*
X60326023Y-72444669D01*
X60336873Y-72428153D01*
X60349350Y-72412067D01*
X60366976Y-72371334D01*
X60372193Y-72360686D01*
X60381504Y-72343749D01*
X60393569Y-72321803D01*
X60395540Y-72314128D01*
X60395542Y-72314122D01*
X60398631Y-72302089D01*
X60405034Y-72283387D01*
X60413117Y-72264708D01*
X60420060Y-72220873D01*
X60422467Y-72209251D01*
X60423562Y-72204987D01*
X60433500Y-72166282D01*
X60433500Y-72145935D01*
X60435051Y-72126224D01*
X60436995Y-72113950D01*
X60438235Y-72106121D01*
X60436758Y-72090494D01*
X60434059Y-72061944D01*
X60433500Y-72050086D01*
X60433500Y-64037032D01*
X60434030Y-64025793D01*
X60435709Y-64018281D01*
X60433562Y-63949969D01*
X60433500Y-63946012D01*
X60433500Y-63918017D01*
X60432992Y-63913994D01*
X60432059Y-63902152D01*
X60430914Y-63865720D01*
X60430665Y-63857795D01*
X60424987Y-63838251D01*
X60420977Y-63818888D01*
X60419420Y-63806560D01*
X60419420Y-63806558D01*
X60418427Y-63798701D01*
X60415511Y-63791337D01*
X60415510Y-63791332D01*
X60402093Y-63757444D01*
X60398248Y-63746215D01*
X60388081Y-63711222D01*
X60385869Y-63703607D01*
X60381830Y-63696777D01*
X60375512Y-63686094D01*
X60366812Y-63668336D01*
X60362239Y-63656785D01*
X60362235Y-63656779D01*
X60359319Y-63649412D01*
X60333234Y-63613509D01*
X60326719Y-63603590D01*
X60308174Y-63572232D01*
X60308171Y-63572228D01*
X60304134Y-63565402D01*
X60289750Y-63551018D01*
X60276909Y-63535984D01*
X60269602Y-63525927D01*
X60264942Y-63519513D01*
X60230750Y-63491227D01*
X60221969Y-63483237D01*
X59287245Y-62548512D01*
X59279675Y-62540193D01*
X59275553Y-62533697D01*
X59262547Y-62521483D01*
X59225735Y-62486915D01*
X59222893Y-62484160D01*
X59203094Y-62464361D01*
X59199969Y-62461937D01*
X59199960Y-62461929D01*
X59199874Y-62461863D01*
X59190849Y-62454155D01*
X59164285Y-62429210D01*
X59158506Y-62423783D01*
X59140669Y-62413977D01*
X59124153Y-62403127D01*
X59108067Y-62390650D01*
X59067334Y-62373024D01*
X59056686Y-62367807D01*
X59042481Y-62359998D01*
X59017803Y-62346431D01*
X59010128Y-62344460D01*
X59010122Y-62344458D01*
X58998089Y-62341369D01*
X58979387Y-62334966D01*
X58960708Y-62326883D01*
X58926872Y-62321524D01*
X58916873Y-62319940D01*
X58905260Y-62317535D01*
X58862282Y-62306500D01*
X58841935Y-62306500D01*
X58822224Y-62304949D01*
X58809950Y-62303005D01*
X58802121Y-62301765D01*
X58794229Y-62302511D01*
X58757944Y-62305941D01*
X58746086Y-62306500D01*
X55541423Y-62306500D01*
X55473302Y-62286498D01*
X55452327Y-62269595D01*
X55136404Y-61953671D01*
X55102379Y-61891359D01*
X55099500Y-61864576D01*
X55099500Y-60462423D01*
X55119502Y-60394302D01*
X55173158Y-60347809D01*
X55243432Y-60337705D01*
X55308012Y-60367199D01*
G37*
%TD.AperFunction*%
%TA.AperFunction,Conductor*%
G36*
X68093581Y-63343502D02*
G01*
X68140074Y-63397158D01*
X68150178Y-63467432D01*
X68139655Y-63502749D01*
X68136726Y-63509031D01*
X68132885Y-63515262D01*
X68077203Y-63683139D01*
X68076503Y-63689975D01*
X68076502Y-63689978D01*
X68072091Y-63733031D01*
X68066500Y-63787600D01*
X68066500Y-64688400D01*
X68066837Y-64691646D01*
X68066837Y-64691650D01*
X68076714Y-64786838D01*
X68077474Y-64794166D01*
X68079655Y-64800702D01*
X68079655Y-64800704D01*
X68111134Y-64895058D01*
X68133450Y-64961946D01*
X68226522Y-65112348D01*
X68351697Y-65237305D01*
X68357927Y-65241145D01*
X68357928Y-65241146D01*
X68495090Y-65325694D01*
X68502262Y-65330115D01*
X68538191Y-65342032D01*
X68663611Y-65383632D01*
X68663613Y-65383632D01*
X68670139Y-65385797D01*
X68676975Y-65386497D01*
X68676978Y-65386498D01*
X68717426Y-65390642D01*
X68774600Y-65396500D01*
X70125400Y-65396500D01*
X70128646Y-65396163D01*
X70128650Y-65396163D01*
X70224308Y-65386238D01*
X70224312Y-65386237D01*
X70231166Y-65385526D01*
X70237702Y-65383345D01*
X70237704Y-65383345D01*
X70369806Y-65339272D01*
X70398946Y-65329550D01*
X70549348Y-65236478D01*
X70580307Y-65205465D01*
X70630793Y-65154891D01*
X70693076Y-65120812D01*
X70763896Y-65125815D01*
X70808984Y-65154736D01*
X70891697Y-65237305D01*
X70897927Y-65241145D01*
X70897928Y-65241146D01*
X71035090Y-65325694D01*
X71042262Y-65330115D01*
X71078191Y-65342032D01*
X71203611Y-65383632D01*
X71203613Y-65383632D01*
X71210139Y-65385797D01*
X71216975Y-65386497D01*
X71216978Y-65386498D01*
X71257426Y-65390642D01*
X71314600Y-65396500D01*
X71743707Y-65396500D01*
X71811828Y-65416502D01*
X71858321Y-65470158D01*
X71868425Y-65540432D01*
X71838931Y-65605012D01*
X71789971Y-65639700D01*
X71789792Y-65639770D01*
X71789324Y-65639955D01*
X71778215Y-65643752D01*
X71764241Y-65647812D01*
X71735607Y-65656131D01*
X71728781Y-65660168D01*
X71718091Y-65666490D01*
X71700341Y-65675187D01*
X71681412Y-65682681D01*
X71674998Y-65687341D01*
X71645514Y-65708762D01*
X71635594Y-65715278D01*
X71604229Y-65733827D01*
X71604226Y-65733829D01*
X71597402Y-65737865D01*
X71583014Y-65752253D01*
X71567980Y-65765094D01*
X71551513Y-65777058D01*
X71531880Y-65800791D01*
X71523228Y-65811249D01*
X71515238Y-65820029D01*
X69818517Y-67516750D01*
X69810191Y-67524326D01*
X69803697Y-67528447D01*
X69759574Y-67575433D01*
X69756915Y-67578265D01*
X69754160Y-67581107D01*
X69734361Y-67600906D01*
X69731937Y-67604031D01*
X69731929Y-67604040D01*
X69731863Y-67604126D01*
X69724155Y-67613151D01*
X69693783Y-67645494D01*
X69689965Y-67652438D01*
X69689964Y-67652440D01*
X69683978Y-67663329D01*
X69673127Y-67679847D01*
X69660650Y-67695933D01*
X69643024Y-67736666D01*
X69637807Y-67747314D01*
X69616431Y-67786197D01*
X69614460Y-67793872D01*
X69614458Y-67793878D01*
X69611369Y-67805911D01*
X69604966Y-67824613D01*
X69596883Y-67843292D01*
X69595644Y-67851117D01*
X69589940Y-67887127D01*
X69587535Y-67898740D01*
X69576500Y-67941718D01*
X69576500Y-67962065D01*
X69574949Y-67981776D01*
X69571765Y-68001879D01*
X69572511Y-68009771D01*
X69575941Y-68046056D01*
X69576500Y-68057914D01*
X69576500Y-68100700D01*
X69556498Y-68168821D01*
X69502842Y-68215314D01*
X69432568Y-68225418D01*
X69410836Y-68220294D01*
X69268861Y-68173203D01*
X69262025Y-68172503D01*
X69262022Y-68172502D01*
X69218969Y-68168091D01*
X69164400Y-68162500D01*
X68263600Y-68162500D01*
X68260354Y-68162837D01*
X68260350Y-68162837D01*
X68164692Y-68172762D01*
X68164688Y-68172763D01*
X68157834Y-68173474D01*
X68151298Y-68175655D01*
X68151296Y-68175655D01*
X68039873Y-68212829D01*
X67990054Y-68229450D01*
X67839652Y-68322522D01*
X67714695Y-68447697D01*
X67621885Y-68598262D01*
X67566203Y-68766139D01*
X67565503Y-68772975D01*
X67565502Y-68772978D01*
X67561091Y-68816031D01*
X67555500Y-68870600D01*
X67555500Y-70221400D01*
X67566474Y-70327166D01*
X67622450Y-70494946D01*
X67715522Y-70645348D01*
X67786971Y-70716672D01*
X67832536Y-70762158D01*
X67864515Y-70816179D01*
X67872131Y-70842393D01*
X67876169Y-70849220D01*
X67876170Y-70849223D01*
X67882488Y-70859906D01*
X67891188Y-70877664D01*
X67895761Y-70889215D01*
X67895765Y-70889221D01*
X67898681Y-70896588D01*
X67903339Y-70902999D01*
X67903340Y-70903001D01*
X67924764Y-70932488D01*
X67931281Y-70942410D01*
X67949826Y-70973768D01*
X67949829Y-70973772D01*
X67953866Y-70980598D01*
X67968250Y-70994982D01*
X67981091Y-71010016D01*
X67993058Y-71026487D01*
X67999166Y-71031540D01*
X68027255Y-71054777D01*
X68036035Y-71062767D01*
X68208673Y-71235405D01*
X68242699Y-71297717D01*
X68237634Y-71368532D01*
X68195087Y-71425368D01*
X68128567Y-71450179D01*
X68119578Y-71450500D01*
X64938222Y-71450500D01*
X64870101Y-71430498D01*
X64823608Y-71376842D01*
X64813504Y-71306568D01*
X64843710Y-71241173D01*
X64844835Y-71239897D01*
X64847638Y-71237094D01*
X64850129Y-71233883D01*
X64857838Y-71224856D01*
X64882789Y-71198286D01*
X64888217Y-71192506D01*
X64898022Y-71174671D01*
X64908876Y-71158147D01*
X64916491Y-71148330D01*
X64916492Y-71148329D01*
X64921349Y-71142067D01*
X64938969Y-71101350D01*
X64944192Y-71090689D01*
X64961749Y-71058753D01*
X64961751Y-71058748D01*
X64965569Y-71051803D01*
X64967539Y-71044129D01*
X64967542Y-71044122D01*
X64970632Y-71032087D01*
X64977035Y-71013383D01*
X64978492Y-71010016D01*
X64983057Y-70999469D01*
X65028465Y-70944896D01*
X65096172Y-70923535D01*
X65111535Y-70924166D01*
X65158018Y-70928928D01*
X65163600Y-70929500D01*
X66064400Y-70929500D01*
X66067646Y-70929163D01*
X66067650Y-70929163D01*
X66163308Y-70919238D01*
X66163312Y-70919237D01*
X66170166Y-70918526D01*
X66176702Y-70916345D01*
X66176704Y-70916345D01*
X66330998Y-70864868D01*
X66337946Y-70862550D01*
X66488348Y-70769478D01*
X66613305Y-70644303D01*
X66669729Y-70552767D01*
X66702275Y-70499968D01*
X66702276Y-70499966D01*
X66706115Y-70493738D01*
X66761797Y-70325861D01*
X66772500Y-70221400D01*
X66772500Y-68870600D01*
X66772163Y-68867350D01*
X66762238Y-68771692D01*
X66762237Y-68771688D01*
X66761526Y-68764834D01*
X66733657Y-68681299D01*
X66707868Y-68604002D01*
X66705550Y-68597054D01*
X66626559Y-68469406D01*
X66607722Y-68400955D01*
X66626444Y-68336988D01*
X66702275Y-68213968D01*
X66702276Y-68213966D01*
X66706115Y-68207738D01*
X66761797Y-68039861D01*
X66763484Y-68023401D01*
X66768923Y-67970314D01*
X66772500Y-67935400D01*
X66772500Y-66584600D01*
X66771327Y-66573292D01*
X66762238Y-66485692D01*
X66762237Y-66485688D01*
X66761526Y-66478834D01*
X66759284Y-66472112D01*
X66707868Y-66318002D01*
X66705550Y-66311054D01*
X66612478Y-66160652D01*
X66487303Y-66035695D01*
X66481072Y-66031854D01*
X66342968Y-65946725D01*
X66342966Y-65946724D01*
X66336738Y-65942885D01*
X66329791Y-65940581D01*
X66323156Y-65937487D01*
X66324456Y-65934699D01*
X66277487Y-65902171D01*
X66250238Y-65836612D01*
X66249500Y-65822992D01*
X66249500Y-65342032D01*
X66250030Y-65330793D01*
X66251709Y-65323281D01*
X66249562Y-65254969D01*
X66249500Y-65251012D01*
X66249500Y-65223017D01*
X66248992Y-65218994D01*
X66248059Y-65207152D01*
X66246914Y-65170720D01*
X66246665Y-65162795D01*
X66240987Y-65143251D01*
X66236977Y-65123888D01*
X66235420Y-65111560D01*
X66235420Y-65111558D01*
X66234427Y-65103701D01*
X66231511Y-65096337D01*
X66231510Y-65096332D01*
X66218093Y-65062444D01*
X66214248Y-65051215D01*
X66206831Y-65025686D01*
X66201869Y-65008607D01*
X66192990Y-64993594D01*
X66191510Y-64991091D01*
X66182813Y-64973341D01*
X66175319Y-64954412D01*
X66149238Y-64918514D01*
X66142722Y-64908594D01*
X66124174Y-64877232D01*
X66120501Y-64871021D01*
X66120500Y-64871018D01*
X66120135Y-64870402D01*
X66120234Y-64870343D01*
X66095722Y-64807925D01*
X66109618Y-64738302D01*
X66145663Y-64695949D01*
X66158080Y-64686643D01*
X66165261Y-64681261D01*
X66252615Y-64564705D01*
X66303745Y-64428316D01*
X66310500Y-64366134D01*
X66310500Y-63449500D01*
X66330502Y-63381379D01*
X66384158Y-63334886D01*
X66436500Y-63323500D01*
X68025460Y-63323500D01*
X68093581Y-63343502D01*
G37*
%TD.AperFunction*%
%TA.AperFunction,Conductor*%
G36*
X84386989Y-67301767D02*
G01*
X84386993Y-67301768D01*
X84393169Y-67303562D01*
X84399574Y-67304066D01*
X84399579Y-67304067D01*
X84428042Y-67306307D01*
X84428050Y-67306307D01*
X84430498Y-67306500D01*
X85960500Y-67306500D01*
X86028621Y-67326502D01*
X86075114Y-67380158D01*
X86086500Y-67432500D01*
X86086500Y-68103500D01*
X86066498Y-68171621D01*
X86012842Y-68218114D01*
X85960500Y-68229500D01*
X84430498Y-68229500D01*
X84428050Y-68229693D01*
X84428042Y-68229693D01*
X84399579Y-68231933D01*
X84399574Y-68231934D01*
X84393169Y-68232438D01*
X84293231Y-68261472D01*
X84241012Y-68276643D01*
X84241010Y-68276644D01*
X84233399Y-68278855D01*
X84226572Y-68282892D01*
X84226573Y-68282892D01*
X84097020Y-68359509D01*
X84097017Y-68359511D01*
X84090193Y-68363547D01*
X84016595Y-68437145D01*
X83954283Y-68471171D01*
X83883468Y-68466106D01*
X83826632Y-68423559D01*
X83801821Y-68357039D01*
X83801500Y-68348050D01*
X83801500Y-67436453D01*
X83821502Y-67368332D01*
X83875158Y-67321839D01*
X83916079Y-67310972D01*
X84091600Y-67294998D01*
X84098302Y-67292820D01*
X84098304Y-67292820D01*
X84183177Y-67265243D01*
X84257265Y-67264079D01*
X84386989Y-67301767D01*
G37*
%TD.AperFunction*%
%TA.AperFunction,Conductor*%
G36*
X78902720Y-46122744D02*
G01*
X78945429Y-46179458D01*
X78953500Y-46223828D01*
X78953500Y-46521502D01*
X78953693Y-46523950D01*
X78953693Y-46523958D01*
X78955591Y-46548066D01*
X78956438Y-46558831D01*
X78958233Y-46565008D01*
X78991586Y-46679811D01*
X79002855Y-46718601D01*
X79006892Y-46725427D01*
X79083509Y-46854980D01*
X79083511Y-46854983D01*
X79087547Y-46861807D01*
X79205193Y-46979453D01*
X79212017Y-46983489D01*
X79212020Y-46983491D01*
X79319589Y-47047107D01*
X79348399Y-47064145D01*
X79356010Y-47066356D01*
X79356012Y-47066357D01*
X79408231Y-47081528D01*
X79508169Y-47110562D01*
X79514574Y-47111066D01*
X79514579Y-47111067D01*
X79543042Y-47113307D01*
X79543050Y-47113307D01*
X79545498Y-47113500D01*
X81328502Y-47113500D01*
X81330950Y-47113307D01*
X81330958Y-47113307D01*
X81359416Y-47111067D01*
X81359417Y-47111067D01*
X81365831Y-47110562D01*
X81367536Y-47110067D01*
X81436465Y-47117326D01*
X81491843Y-47161754D01*
X81514500Y-47233839D01*
X81514500Y-56911577D01*
X81494498Y-56979698D01*
X81477595Y-57000672D01*
X80486517Y-57991750D01*
X80478191Y-57999326D01*
X80471697Y-58003447D01*
X80424915Y-58053265D01*
X80422160Y-58056107D01*
X80402361Y-58075906D01*
X80399937Y-58079031D01*
X80399929Y-58079040D01*
X80399863Y-58079126D01*
X80392155Y-58088151D01*
X80361783Y-58120494D01*
X80357965Y-58127438D01*
X80357964Y-58127440D01*
X80351978Y-58138329D01*
X80341127Y-58154847D01*
X80328650Y-58170933D01*
X80311024Y-58211666D01*
X80305807Y-58222314D01*
X80284431Y-58261197D01*
X80282460Y-58268872D01*
X80282458Y-58268878D01*
X80279369Y-58280911D01*
X80272966Y-58299613D01*
X80264883Y-58318292D01*
X80263644Y-58326117D01*
X80257940Y-58362127D01*
X80255535Y-58373740D01*
X80244500Y-58416718D01*
X80244500Y-58437065D01*
X80242949Y-58456776D01*
X80239765Y-58476879D01*
X80240511Y-58484771D01*
X80243941Y-58521056D01*
X80244500Y-58532914D01*
X80244500Y-59604436D01*
X80224411Y-59672691D01*
X80151235Y-59786238D01*
X80148826Y-59792858D01*
X80148824Y-59792861D01*
X80091606Y-59950066D01*
X80089197Y-59956685D01*
X80066463Y-60136640D01*
X80084163Y-60317160D01*
X80141418Y-60489273D01*
X80145065Y-60495295D01*
X80145066Y-60495297D01*
X80231574Y-60638139D01*
X80235380Y-60644424D01*
X80240269Y-60649487D01*
X80240270Y-60649488D01*
X80288422Y-60699350D01*
X80361382Y-60774902D01*
X80409793Y-60806581D01*
X80496785Y-60863507D01*
X80513159Y-60874222D01*
X80519763Y-60876678D01*
X80519765Y-60876679D01*
X80676558Y-60934990D01*
X80676560Y-60934990D01*
X80683168Y-60937448D01*
X80765525Y-60948437D01*
X80855980Y-60960507D01*
X80855984Y-60960507D01*
X80862961Y-60961438D01*
X80869972Y-60960800D01*
X80869976Y-60960800D01*
X81012459Y-60947832D01*
X81043600Y-60944998D01*
X81050302Y-60942820D01*
X81050304Y-60942820D01*
X81129854Y-60916972D01*
X81216108Y-60888947D01*
X81216219Y-60889288D01*
X81282503Y-60879927D01*
X81308174Y-60886500D01*
X81445168Y-60937448D01*
X81527525Y-60948437D01*
X81617980Y-60960507D01*
X81617984Y-60960507D01*
X81624961Y-60961438D01*
X81631972Y-60960800D01*
X81631976Y-60960800D01*
X81774459Y-60947832D01*
X81805600Y-60944998D01*
X81812302Y-60942820D01*
X81812304Y-60942820D01*
X81891854Y-60916972D01*
X81978108Y-60888947D01*
X81978219Y-60889288D01*
X82044503Y-60879927D01*
X82070174Y-60886500D01*
X82207168Y-60937448D01*
X82289525Y-60948437D01*
X82379980Y-60960507D01*
X82379984Y-60960507D01*
X82386961Y-60961438D01*
X82393972Y-60960800D01*
X82393976Y-60960800D01*
X82536459Y-60947832D01*
X82567600Y-60944998D01*
X82574302Y-60942820D01*
X82574304Y-60942820D01*
X82653854Y-60916972D01*
X82740108Y-60888947D01*
X82740219Y-60889288D01*
X82806503Y-60879927D01*
X82832174Y-60886500D01*
X82969168Y-60937448D01*
X83013103Y-60943310D01*
X83053088Y-60948646D01*
X83117965Y-60977482D01*
X83156953Y-61036816D01*
X83157673Y-61107809D01*
X83143685Y-61139651D01*
X83119885Y-61178262D01*
X83064203Y-61346139D01*
X83053500Y-61450600D01*
X83053500Y-62401400D01*
X83053837Y-62404646D01*
X83053837Y-62404650D01*
X83062373Y-62486915D01*
X83064474Y-62507166D01*
X83066655Y-62513702D01*
X83066655Y-62513704D01*
X83091421Y-62587937D01*
X83120450Y-62674946D01*
X83213522Y-62825348D01*
X83338697Y-62950305D01*
X83344929Y-62954147D01*
X83344931Y-62954148D01*
X83400117Y-62988166D01*
X83447610Y-63040938D01*
X83460000Y-63095425D01*
X83460000Y-63168099D01*
X83439998Y-63236220D01*
X83386342Y-63282713D01*
X83316068Y-63292817D01*
X83298846Y-63289096D01*
X83293494Y-63287541D01*
X83286217Y-63284392D01*
X83275616Y-63282713D01*
X83242382Y-63277449D01*
X83230769Y-63275044D01*
X83187791Y-63264009D01*
X83167444Y-63264009D01*
X83147733Y-63262458D01*
X83135459Y-63260514D01*
X83127630Y-63259274D01*
X83119738Y-63260020D01*
X83083453Y-63263450D01*
X83071595Y-63264009D01*
X82261535Y-63264009D01*
X82250301Y-63263479D01*
X82242796Y-63261801D01*
X82175086Y-63263929D01*
X82174503Y-63263947D01*
X82170546Y-63264009D01*
X82142532Y-63264009D01*
X82138607Y-63264505D01*
X82138606Y-63264505D01*
X82138511Y-63264517D01*
X82126666Y-63265450D01*
X82096845Y-63266387D01*
X82090233Y-63266595D01*
X82090232Y-63266595D01*
X82082310Y-63266844D01*
X82062767Y-63272522D01*
X82043403Y-63276532D01*
X82031075Y-63278089D01*
X82031073Y-63278089D01*
X82023216Y-63279082D01*
X82015852Y-63281998D01*
X82015847Y-63281999D01*
X81981959Y-63295416D01*
X81970730Y-63299261D01*
X81967447Y-63300215D01*
X81928122Y-63311640D01*
X81921296Y-63315677D01*
X81910606Y-63321999D01*
X81892856Y-63330696D01*
X81873927Y-63338190D01*
X81867511Y-63342851D01*
X81867510Y-63342852D01*
X81838034Y-63364268D01*
X81828105Y-63370790D01*
X81826101Y-63371975D01*
X81757283Y-63389431D01*
X81689953Y-63366910D01*
X81672873Y-63352613D01*
X81603807Y-63283547D01*
X81596983Y-63279511D01*
X81596980Y-63279509D01*
X81467427Y-63202892D01*
X81467428Y-63202892D01*
X81460601Y-63198855D01*
X81452990Y-63196644D01*
X81452988Y-63196643D01*
X81400769Y-63181472D01*
X81300831Y-63152438D01*
X81294426Y-63151934D01*
X81294421Y-63151933D01*
X81265958Y-63149693D01*
X81265950Y-63149693D01*
X81263502Y-63149500D01*
X81004470Y-63149500D01*
X80936349Y-63129498D01*
X80896017Y-63087640D01*
X80882172Y-63064229D01*
X80882170Y-63064226D01*
X80878134Y-63057402D01*
X80863750Y-63043018D01*
X80850909Y-63027984D01*
X80843602Y-63017927D01*
X80838942Y-63011513D01*
X80804750Y-62983227D01*
X80795969Y-62975237D01*
X80115245Y-62294512D01*
X80107675Y-62286193D01*
X80103553Y-62279697D01*
X80092796Y-62269595D01*
X80053735Y-62232915D01*
X80050893Y-62230160D01*
X80031094Y-62210361D01*
X80027969Y-62207937D01*
X80027960Y-62207929D01*
X80027874Y-62207863D01*
X80018849Y-62200155D01*
X79992285Y-62175210D01*
X79986506Y-62169783D01*
X79968669Y-62159977D01*
X79952153Y-62149127D01*
X79936067Y-62136650D01*
X79895334Y-62119024D01*
X79884686Y-62113807D01*
X79853477Y-62096650D01*
X79845803Y-62092431D01*
X79838128Y-62090460D01*
X79838122Y-62090458D01*
X79826089Y-62087369D01*
X79807387Y-62080966D01*
X79788708Y-62072883D01*
X79754872Y-62067524D01*
X79744873Y-62065940D01*
X79733260Y-62063535D01*
X79690282Y-62052500D01*
X79669935Y-62052500D01*
X79650224Y-62050949D01*
X79637950Y-62049005D01*
X79630121Y-62047765D01*
X79622229Y-62048511D01*
X79585944Y-62051941D01*
X79574086Y-62052500D01*
X78494540Y-62052500D01*
X78426419Y-62032498D01*
X78379926Y-61978842D01*
X78369822Y-61908568D01*
X78380345Y-61873251D01*
X78383274Y-61866969D01*
X78387115Y-61860738D01*
X78442797Y-61692861D01*
X78453500Y-61588400D01*
X78453500Y-60687600D01*
X78452681Y-60679703D01*
X78443238Y-60588692D01*
X78443237Y-60588688D01*
X78442526Y-60581834D01*
X78439909Y-60573988D01*
X78388868Y-60421002D01*
X78386550Y-60414054D01*
X78293478Y-60263652D01*
X78168303Y-60138695D01*
X78138088Y-60120070D01*
X78024233Y-60049888D01*
X77976739Y-59997115D01*
X77965317Y-59927044D01*
X77993591Y-59861920D01*
X78001254Y-59853533D01*
X78037749Y-59817038D01*
X78044896Y-59806832D01*
X78160899Y-59641162D01*
X78160900Y-59641160D01*
X78164056Y-59636653D01*
X78166379Y-59631671D01*
X78166382Y-59631666D01*
X78239834Y-59474145D01*
X78257120Y-59437076D01*
X78314115Y-59224371D01*
X78333307Y-59005000D01*
X78314115Y-58785629D01*
X78257120Y-58572924D01*
X78208683Y-58469050D01*
X78166382Y-58378334D01*
X78166379Y-58378329D01*
X78164056Y-58373347D01*
X78054659Y-58217112D01*
X78040908Y-58197473D01*
X78040903Y-58197467D01*
X78037749Y-58192962D01*
X77882038Y-58037251D01*
X77811050Y-57987544D01*
X77783171Y-57968023D01*
X77701654Y-57910944D01*
X77502076Y-57817880D01*
X77289371Y-57760885D01*
X77070000Y-57741693D01*
X76850629Y-57760885D01*
X76821512Y-57768687D01*
X76750535Y-57766997D01*
X76699807Y-57736075D01*
X75416250Y-56452517D01*
X75408674Y-56444191D01*
X75404553Y-56437697D01*
X75354734Y-56390914D01*
X75351893Y-56388160D01*
X75332094Y-56368361D01*
X75328969Y-56365937D01*
X75328960Y-56365929D01*
X75328874Y-56365863D01*
X75319849Y-56358155D01*
X75293285Y-56333210D01*
X75287506Y-56327783D01*
X75269669Y-56317977D01*
X75253153Y-56307127D01*
X75237067Y-56294650D01*
X75196334Y-56277024D01*
X75185686Y-56271807D01*
X75156787Y-56255920D01*
X75146803Y-56250431D01*
X75139128Y-56248460D01*
X75139122Y-56248458D01*
X75127089Y-56245369D01*
X75108387Y-56238966D01*
X75089708Y-56230883D01*
X75049913Y-56224580D01*
X75045873Y-56223940D01*
X75034260Y-56221535D01*
X74991282Y-56210500D01*
X74970935Y-56210500D01*
X74951224Y-56208949D01*
X74938950Y-56207005D01*
X74931121Y-56205765D01*
X74923229Y-56206511D01*
X74886944Y-56209941D01*
X74875086Y-56210500D01*
X63687032Y-56210500D01*
X63675793Y-56209970D01*
X63668281Y-56208291D01*
X63660356Y-56208540D01*
X63660355Y-56208540D01*
X63599970Y-56210438D01*
X63596012Y-56210500D01*
X63568017Y-56210500D01*
X63564083Y-56210997D01*
X63564081Y-56210997D01*
X63563994Y-56211008D01*
X63552160Y-56211940D01*
X63507795Y-56213335D01*
X63500182Y-56215547D01*
X63500181Y-56215547D01*
X63488252Y-56219013D01*
X63468888Y-56223023D01*
X63456560Y-56224580D01*
X63456558Y-56224580D01*
X63448701Y-56225573D01*
X63441337Y-56228489D01*
X63441332Y-56228490D01*
X63407444Y-56241907D01*
X63396215Y-56245752D01*
X63386902Y-56248458D01*
X63353607Y-56258131D01*
X63346781Y-56262168D01*
X63336091Y-56268490D01*
X63318341Y-56277187D01*
X63299412Y-56284681D01*
X63292998Y-56289341D01*
X63263514Y-56310762D01*
X63253594Y-56317278D01*
X63222229Y-56335827D01*
X63222226Y-56335829D01*
X63215402Y-56339865D01*
X63201014Y-56354253D01*
X63185980Y-56367094D01*
X63169513Y-56379058D01*
X63164460Y-56385166D01*
X63141228Y-56413249D01*
X63133238Y-56422029D01*
X61844428Y-57710839D01*
X61782116Y-57744865D01*
X61766317Y-57747264D01*
X61610629Y-57760885D01*
X61397924Y-57817880D01*
X61304562Y-57861415D01*
X61203334Y-57908618D01*
X61203329Y-57908621D01*
X61198347Y-57910944D01*
X61193840Y-57914100D01*
X61193838Y-57914101D01*
X61022473Y-58034092D01*
X61022470Y-58034094D01*
X61017962Y-58037251D01*
X60862251Y-58192962D01*
X60859097Y-58197467D01*
X60859092Y-58197473D01*
X60845341Y-58217112D01*
X60735944Y-58373347D01*
X60733621Y-58378329D01*
X60733618Y-58378334D01*
X60674195Y-58505769D01*
X60627278Y-58559054D01*
X60559001Y-58578515D01*
X60491041Y-58557973D01*
X60445805Y-58505769D01*
X60386382Y-58378334D01*
X60386379Y-58378329D01*
X60384056Y-58373347D01*
X60274659Y-58217112D01*
X60260908Y-58197473D01*
X60260903Y-58197467D01*
X60257749Y-58192962D01*
X60102038Y-58037251D01*
X60031050Y-57987544D01*
X60003171Y-57968023D01*
X59921654Y-57910944D01*
X59722076Y-57817880D01*
X59509371Y-57760885D01*
X59290000Y-57741693D01*
X59070629Y-57760885D01*
X58857924Y-57817880D01*
X58764562Y-57861415D01*
X58663334Y-57908618D01*
X58663329Y-57908621D01*
X58658347Y-57910944D01*
X58653840Y-57914100D01*
X58653838Y-57914101D01*
X58556667Y-57982141D01*
X58489393Y-58004829D01*
X58420532Y-57987544D01*
X58395300Y-57968023D01*
X58163353Y-57736075D01*
X57895790Y-57468512D01*
X57888220Y-57460193D01*
X57884098Y-57453697D01*
X57834279Y-57406914D01*
X57831438Y-57404160D01*
X57811639Y-57384361D01*
X57808514Y-57381937D01*
X57808505Y-57381929D01*
X57808419Y-57381863D01*
X57799394Y-57374155D01*
X57772830Y-57349210D01*
X57767051Y-57343783D01*
X57749214Y-57333977D01*
X57732698Y-57323127D01*
X57716612Y-57310650D01*
X57675879Y-57293024D01*
X57665231Y-57287807D01*
X57653603Y-57281415D01*
X57626348Y-57266431D01*
X57618673Y-57264460D01*
X57618667Y-57264458D01*
X57606634Y-57261369D01*
X57587932Y-57254966D01*
X57569253Y-57246883D01*
X57535417Y-57241524D01*
X57525418Y-57239940D01*
X57513805Y-57237535D01*
X57470827Y-57226500D01*
X57450480Y-57226500D01*
X57430769Y-57224949D01*
X57418495Y-57223005D01*
X57410666Y-57221765D01*
X57402774Y-57222511D01*
X57366489Y-57225941D01*
X57354631Y-57226500D01*
X56557423Y-57226500D01*
X56489302Y-57206498D01*
X56468327Y-57189595D01*
X56152404Y-56873671D01*
X56118379Y-56811359D01*
X56115500Y-56784576D01*
X56115500Y-48271422D01*
X56135502Y-48203301D01*
X56152405Y-48182327D01*
X56214327Y-48120405D01*
X56276639Y-48086379D01*
X56303422Y-48083500D01*
X58223394Y-48083500D01*
X58291515Y-48103502D01*
X58338008Y-48157158D01*
X58348112Y-48227432D01*
X58321673Y-48286557D01*
X58322251Y-48286962D01*
X58288805Y-48334728D01*
X58199101Y-48462838D01*
X58199100Y-48462840D01*
X58195944Y-48467347D01*
X58193621Y-48472329D01*
X58193618Y-48472334D01*
X58146415Y-48573562D01*
X58102880Y-48666924D01*
X58045885Y-48879629D01*
X58026693Y-49099000D01*
X58045885Y-49318371D01*
X58102880Y-49531076D01*
X58109348Y-49544946D01*
X58193618Y-49725666D01*
X58193621Y-49725671D01*
X58195944Y-49730653D01*
X58199100Y-49735160D01*
X58199101Y-49735162D01*
X58310123Y-49893717D01*
X58322251Y-49911038D01*
X58477962Y-50066749D01*
X58658346Y-50193056D01*
X58857924Y-50286120D01*
X59070629Y-50343115D01*
X59290000Y-50362307D01*
X59509371Y-50343115D01*
X59538488Y-50335313D01*
X59609465Y-50337003D01*
X59660193Y-50367925D01*
X60181745Y-50889477D01*
X60189322Y-50897803D01*
X60193447Y-50904303D01*
X60199225Y-50909729D01*
X60199226Y-50909730D01*
X60243281Y-50951100D01*
X60246123Y-50953855D01*
X60265906Y-50973638D01*
X60269114Y-50976126D01*
X60278143Y-50983837D01*
X60310494Y-51014217D01*
X60317443Y-51018037D01*
X60328329Y-51024022D01*
X60344853Y-51034876D01*
X60360933Y-51047349D01*
X60368210Y-51050498D01*
X60401650Y-51064969D01*
X60412311Y-51070192D01*
X60444247Y-51087749D01*
X60444252Y-51087751D01*
X60451197Y-51091569D01*
X60458871Y-51093539D01*
X60458878Y-51093542D01*
X60470913Y-51096632D01*
X60489618Y-51103036D01*
X60501013Y-51107967D01*
X60508292Y-51111117D01*
X60523401Y-51113510D01*
X60552127Y-51118060D01*
X60563740Y-51120465D01*
X60606718Y-51131500D01*
X60627065Y-51131500D01*
X60646777Y-51133051D01*
X60666879Y-51136235D01*
X60674771Y-51135489D01*
X60711056Y-51132059D01*
X60722914Y-51131500D01*
X62512980Y-51131500D01*
X62524214Y-51132030D01*
X62531719Y-51133708D01*
X62600012Y-51131562D01*
X62603969Y-51131500D01*
X62631983Y-51131500D01*
X62635908Y-51131004D01*
X62635909Y-51131004D01*
X62636004Y-51130992D01*
X62647849Y-51130059D01*
X62677670Y-51129122D01*
X62684282Y-51128914D01*
X62684283Y-51128914D01*
X62692205Y-51128665D01*
X62711749Y-51122987D01*
X62731112Y-51118977D01*
X62743440Y-51117420D01*
X62743442Y-51117420D01*
X62751299Y-51116427D01*
X62758663Y-51113511D01*
X62758668Y-51113510D01*
X62792556Y-51100093D01*
X62803785Y-51096248D01*
X62820465Y-51091402D01*
X62846393Y-51083869D01*
X62853220Y-51079831D01*
X62853223Y-51079830D01*
X62863906Y-51073512D01*
X62881664Y-51064812D01*
X62893215Y-51060239D01*
X62893221Y-51060235D01*
X62900588Y-51057319D01*
X62909977Y-51050498D01*
X62936488Y-51031236D01*
X62946410Y-51024719D01*
X62977768Y-51006174D01*
X62977772Y-51006171D01*
X62984598Y-51002134D01*
X62998982Y-50987750D01*
X63014016Y-50974909D01*
X63024073Y-50967602D01*
X63030487Y-50962942D01*
X63058778Y-50928744D01*
X63066767Y-50919965D01*
X63493477Y-50493255D01*
X63501803Y-50485678D01*
X63508303Y-50481553D01*
X63555101Y-50431718D01*
X63557855Y-50428877D01*
X63577638Y-50409094D01*
X63580129Y-50405883D01*
X63587838Y-50396856D01*
X63612789Y-50370286D01*
X63618217Y-50364506D01*
X63628022Y-50346671D01*
X63638876Y-50330147D01*
X63646491Y-50320330D01*
X63646492Y-50320329D01*
X63651349Y-50314067D01*
X63654496Y-50306796D01*
X63654499Y-50306790D01*
X63658072Y-50298532D01*
X63703483Y-50243957D01*
X63771190Y-50222597D01*
X63826958Y-50234377D01*
X63932934Y-50283794D01*
X63932942Y-50283797D01*
X63937924Y-50286120D01*
X64150629Y-50343115D01*
X64370000Y-50362307D01*
X64589371Y-50343115D01*
X64802076Y-50286120D01*
X65001654Y-50193056D01*
X65182038Y-50066749D01*
X65337749Y-49911038D01*
X65349878Y-49893717D01*
X65460899Y-49735162D01*
X65460900Y-49735160D01*
X65464056Y-49730653D01*
X65466379Y-49725671D01*
X65466382Y-49725666D01*
X65525805Y-49598231D01*
X65572722Y-49544946D01*
X65640999Y-49525485D01*
X65708959Y-49546027D01*
X65754195Y-49598231D01*
X65813618Y-49725666D01*
X65813621Y-49725671D01*
X65815944Y-49730653D01*
X65819100Y-49735160D01*
X65819101Y-49735162D01*
X65930123Y-49893717D01*
X65942251Y-49911038D01*
X66097962Y-50066749D01*
X66278346Y-50193056D01*
X66477924Y-50286120D01*
X66690629Y-50343115D01*
X66846316Y-50356735D01*
X66912433Y-50382598D01*
X66924429Y-50393161D01*
X67555289Y-51024022D01*
X68182750Y-51651483D01*
X68190326Y-51659809D01*
X68194447Y-51666303D01*
X68200222Y-51671726D01*
X68244265Y-51713085D01*
X68247107Y-51715840D01*
X68266906Y-51735639D01*
X68270031Y-51738063D01*
X68270040Y-51738071D01*
X68270126Y-51738137D01*
X68279151Y-51745845D01*
X68311494Y-51776217D01*
X68318438Y-51780035D01*
X68318440Y-51780036D01*
X68329329Y-51786022D01*
X68345847Y-51796873D01*
X68361933Y-51809350D01*
X68402666Y-51826976D01*
X68413314Y-51832193D01*
X68424942Y-51838585D01*
X68452197Y-51853569D01*
X68459872Y-51855540D01*
X68459878Y-51855542D01*
X68471911Y-51858631D01*
X68490613Y-51865034D01*
X68509292Y-51873117D01*
X68542818Y-51878427D01*
X68553127Y-51880060D01*
X68564740Y-51882465D01*
X68607718Y-51893500D01*
X68628065Y-51893500D01*
X68647777Y-51895051D01*
X68667879Y-51898235D01*
X68675771Y-51897489D01*
X68712056Y-51894059D01*
X68723914Y-51893500D01*
X75720980Y-51893500D01*
X75732214Y-51894030D01*
X75739719Y-51895708D01*
X75808012Y-51893562D01*
X75811969Y-51893500D01*
X75839983Y-51893500D01*
X75843908Y-51893004D01*
X75843909Y-51893004D01*
X75844004Y-51892992D01*
X75855849Y-51892059D01*
X75885670Y-51891122D01*
X75892282Y-51890914D01*
X75892283Y-51890914D01*
X75900205Y-51890665D01*
X75919749Y-51884987D01*
X75939112Y-51880977D01*
X75951440Y-51879420D01*
X75951442Y-51879420D01*
X75959299Y-51878427D01*
X75966663Y-51875511D01*
X75966668Y-51875510D01*
X76000556Y-51862093D01*
X76011785Y-51858248D01*
X76028465Y-51853402D01*
X76054393Y-51845869D01*
X76061220Y-51841831D01*
X76061223Y-51841830D01*
X76071906Y-51835512D01*
X76089664Y-51826812D01*
X76101215Y-51822239D01*
X76101221Y-51822235D01*
X76108588Y-51819319D01*
X76117977Y-51812498D01*
X76144488Y-51793236D01*
X76154410Y-51786719D01*
X76185768Y-51768174D01*
X76185772Y-51768171D01*
X76192598Y-51764134D01*
X76206982Y-51749750D01*
X76222016Y-51736909D01*
X76232073Y-51729602D01*
X76238487Y-51724942D01*
X76266778Y-51690744D01*
X76274767Y-51681965D01*
X77463477Y-50493255D01*
X77471803Y-50485678D01*
X77478303Y-50481553D01*
X77525101Y-50431718D01*
X77527855Y-50428877D01*
X77547638Y-50409094D01*
X77550072Y-50405956D01*
X77552686Y-50402991D01*
X77553444Y-50403660D01*
X77607385Y-50364706D01*
X77649385Y-50357500D01*
X77868134Y-50357500D01*
X77930316Y-50350745D01*
X78066705Y-50299615D01*
X78183261Y-50212261D01*
X78270615Y-50095705D01*
X78321745Y-49959316D01*
X78328500Y-49897134D01*
X78328500Y-48300866D01*
X78321745Y-48238684D01*
X78270615Y-48102295D01*
X78233650Y-48052973D01*
X78208802Y-47986467D01*
X78223855Y-47917084D01*
X78245303Y-47888390D01*
X78247436Y-47886254D01*
X78294305Y-47839303D01*
X78372362Y-47712672D01*
X78383275Y-47694968D01*
X78383276Y-47694966D01*
X78387115Y-47688738D01*
X78436594Y-47539564D01*
X78440632Y-47527389D01*
X78440632Y-47527387D01*
X78442797Y-47520861D01*
X78443703Y-47512025D01*
X78449864Y-47451888D01*
X78453500Y-47416400D01*
X78453500Y-46515600D01*
X78442526Y-46409834D01*
X78440345Y-46403297D01*
X78440344Y-46403292D01*
X78424201Y-46354905D01*
X78421617Y-46283956D01*
X78457801Y-46222872D01*
X78521266Y-46191048D01*
X78539769Y-46189092D01*
X78543992Y-46188960D01*
X78545452Y-46188914D01*
X78545453Y-46188914D01*
X78553374Y-46188665D01*
X78572918Y-46182987D01*
X78592281Y-46178977D01*
X78604609Y-46177420D01*
X78604611Y-46177420D01*
X78612468Y-46176427D01*
X78619832Y-46173511D01*
X78619837Y-46173510D01*
X78653725Y-46160093D01*
X78664954Y-46156248D01*
X78681634Y-46151402D01*
X78707562Y-46143869D01*
X78714389Y-46139831D01*
X78714392Y-46139830D01*
X78725075Y-46133512D01*
X78742833Y-46124812D01*
X78754384Y-46120239D01*
X78754390Y-46120235D01*
X78761757Y-46117319D01*
X78767277Y-46113308D01*
X78836129Y-46098124D01*
X78902720Y-46122744D01*
G37*
%TD.AperFunction*%
%TA.AperFunction,Conductor*%
G36*
X86282621Y-48403502D02*
G01*
X86329114Y-48457158D01*
X86340500Y-48509500D01*
X86340500Y-59981367D01*
X86320498Y-60049488D01*
X86303595Y-60070463D01*
X85500055Y-60874002D01*
X85437743Y-60908027D01*
X85366927Y-60902962D01*
X85344844Y-60892166D01*
X85335656Y-60886502D01*
X85228427Y-60820405D01*
X85215968Y-60812725D01*
X85215966Y-60812724D01*
X85209738Y-60808885D01*
X85127262Y-60781529D01*
X85048389Y-60755368D01*
X85048387Y-60755368D01*
X85041861Y-60753203D01*
X85035025Y-60752503D01*
X85035022Y-60752502D01*
X84991969Y-60748091D01*
X84937400Y-60742500D01*
X84756021Y-60742500D01*
X84687900Y-60722498D01*
X84641407Y-60668842D01*
X84631303Y-60598568D01*
X84651072Y-60546775D01*
X84662027Y-60530286D01*
X84708088Y-60409032D01*
X84723939Y-60367304D01*
X84723940Y-60367302D01*
X84726439Y-60360722D01*
X84733292Y-60311958D01*
X84751132Y-60185023D01*
X84751132Y-60185020D01*
X84751683Y-60181101D01*
X84752000Y-60158384D01*
X84731781Y-59978129D01*
X84729464Y-59971475D01*
X84674448Y-59813490D01*
X84674446Y-59813487D01*
X84672129Y-59806832D01*
X84622857Y-59727979D01*
X84603722Y-59659610D01*
X84624588Y-59591749D01*
X84640617Y-59572116D01*
X84659639Y-59553094D01*
X84662063Y-59549969D01*
X84662071Y-59549960D01*
X84662137Y-59549874D01*
X84669845Y-59540849D01*
X84694790Y-59514285D01*
X84700217Y-59508506D01*
X84710023Y-59490669D01*
X84720873Y-59474153D01*
X84733350Y-59458067D01*
X84750976Y-59417334D01*
X84756193Y-59406686D01*
X84773749Y-59374751D01*
X84777569Y-59367803D01*
X84779540Y-59360128D01*
X84779542Y-59360122D01*
X84782631Y-59348089D01*
X84789034Y-59329387D01*
X84797117Y-59310708D01*
X84804060Y-59266873D01*
X84806467Y-59255251D01*
X84817500Y-59212282D01*
X84817500Y-59191935D01*
X84819051Y-59172224D01*
X84820995Y-59159950D01*
X84822235Y-59152121D01*
X84818059Y-59107944D01*
X84817500Y-59096086D01*
X84817500Y-49541422D01*
X84837502Y-49473301D01*
X84854405Y-49452327D01*
X85780477Y-48526255D01*
X85788803Y-48518678D01*
X85795303Y-48514553D01*
X85842101Y-48464718D01*
X85844855Y-48461877D01*
X85864638Y-48442094D01*
X85867129Y-48438883D01*
X85874836Y-48429858D01*
X85880321Y-48424017D01*
X85881043Y-48423248D01*
X85942254Y-48387282D01*
X85972894Y-48383500D01*
X86214500Y-48383500D01*
X86282621Y-48403502D01*
G37*
%TD.AperFunction*%
%TA.AperFunction,Conductor*%
G36*
X49724728Y-44293502D02*
G01*
X49771221Y-44347158D01*
X49781934Y-44386496D01*
X49787289Y-44438105D01*
X49789474Y-44459166D01*
X49845450Y-44626946D01*
X49938522Y-44777348D01*
X50063697Y-44902305D01*
X50069927Y-44906145D01*
X50069928Y-44906146D01*
X50207090Y-44990694D01*
X50214262Y-44995115D01*
X50288676Y-45019797D01*
X50375611Y-45048632D01*
X50375613Y-45048632D01*
X50382139Y-45050797D01*
X50388975Y-45051497D01*
X50388978Y-45051498D01*
X50432031Y-45055909D01*
X50486600Y-45061500D01*
X51837400Y-45061500D01*
X51840646Y-45061163D01*
X51840650Y-45061163D01*
X51936308Y-45051238D01*
X51936312Y-45051237D01*
X51943166Y-45050526D01*
X51949702Y-45048345D01*
X51949704Y-45048345D01*
X52081806Y-45004272D01*
X52110946Y-44994550D01*
X52151646Y-44969364D01*
X52198697Y-44940248D01*
X52267149Y-44921410D01*
X52334919Y-44942571D01*
X52380490Y-44997012D01*
X52391000Y-45047392D01*
X52391000Y-60248608D01*
X52370998Y-60316729D01*
X52331303Y-60355752D01*
X52268652Y-60394522D01*
X52263479Y-60399704D01*
X52202621Y-60460668D01*
X52140338Y-60494747D01*
X52069518Y-60489744D01*
X52012646Y-60447247D01*
X52006304Y-60437953D01*
X51936332Y-60324880D01*
X51932478Y-60318652D01*
X51807303Y-60193695D01*
X51794675Y-60185911D01*
X51662968Y-60104725D01*
X51662966Y-60104724D01*
X51656738Y-60100885D01*
X51533036Y-60059855D01*
X51495389Y-60047368D01*
X51495387Y-60047368D01*
X51488861Y-60045203D01*
X51482025Y-60044503D01*
X51482022Y-60044502D01*
X51435669Y-60039753D01*
X51384400Y-60034500D01*
X50483600Y-60034500D01*
X50480354Y-60034837D01*
X50480350Y-60034837D01*
X50384692Y-60044762D01*
X50384688Y-60044763D01*
X50377834Y-60045474D01*
X50371298Y-60047655D01*
X50371296Y-60047655D01*
X50264729Y-60083209D01*
X50210054Y-60101450D01*
X50097100Y-60171349D01*
X50067291Y-60189795D01*
X50059652Y-60194522D01*
X50056013Y-60198167D01*
X49991031Y-60224471D01*
X49921267Y-60211301D01*
X49889480Y-60188183D01*
X49875747Y-60174450D01*
X49862906Y-60159416D01*
X49855602Y-60149363D01*
X49850942Y-60142949D01*
X49816750Y-60114663D01*
X49807971Y-60106674D01*
X48947814Y-59246517D01*
X48940238Y-59238191D01*
X48936117Y-59231697D01*
X48886298Y-59184914D01*
X48883457Y-59182160D01*
X48863658Y-59162361D01*
X48860533Y-59159937D01*
X48860524Y-59159929D01*
X48860438Y-59159863D01*
X48851413Y-59152155D01*
X48824849Y-59127210D01*
X48819070Y-59121783D01*
X48801233Y-59111977D01*
X48784717Y-59101127D01*
X48768631Y-59088650D01*
X48727898Y-59071024D01*
X48717250Y-59065807D01*
X48705622Y-59059415D01*
X48678367Y-59044431D01*
X48670692Y-59042460D01*
X48670686Y-59042458D01*
X48658653Y-59039369D01*
X48639951Y-59032966D01*
X48621272Y-59024883D01*
X48587436Y-59019524D01*
X48577437Y-59017940D01*
X48565824Y-59015535D01*
X48522846Y-59004500D01*
X48502499Y-59004500D01*
X48482788Y-59002949D01*
X48470514Y-59001005D01*
X48462685Y-58999765D01*
X48454793Y-59000511D01*
X48418508Y-59003941D01*
X48406650Y-59004500D01*
X47244980Y-59004500D01*
X47176859Y-58984498D01*
X47130366Y-58930842D01*
X47118980Y-58878500D01*
X47118980Y-55829500D01*
X47138982Y-55761379D01*
X47192638Y-55714886D01*
X47244980Y-55703500D01*
X49621002Y-55703500D01*
X49632236Y-55704030D01*
X49639741Y-55705708D01*
X49708034Y-55703562D01*
X49711991Y-55703500D01*
X49740005Y-55703500D01*
X49743930Y-55703004D01*
X49743931Y-55703004D01*
X49744026Y-55702992D01*
X49755871Y-55702059D01*
X49785692Y-55701122D01*
X49792304Y-55700914D01*
X49792305Y-55700914D01*
X49800227Y-55700665D01*
X49819771Y-55694987D01*
X49839134Y-55690977D01*
X49851462Y-55689420D01*
X49851464Y-55689420D01*
X49859321Y-55688427D01*
X49866685Y-55685511D01*
X49866690Y-55685510D01*
X49900578Y-55672093D01*
X49911807Y-55668248D01*
X49928487Y-55663402D01*
X49954415Y-55655869D01*
X49961242Y-55651831D01*
X49961245Y-55651830D01*
X49971928Y-55645512D01*
X49989686Y-55636812D01*
X50001237Y-55632239D01*
X50001243Y-55632235D01*
X50008610Y-55629319D01*
X50044513Y-55603234D01*
X50054432Y-55596719D01*
X50085790Y-55578174D01*
X50085794Y-55578171D01*
X50092620Y-55574134D01*
X50107004Y-55559750D01*
X50122038Y-55546909D01*
X50132095Y-55539602D01*
X50138509Y-55534942D01*
X50166794Y-55500751D01*
X50174784Y-55491970D01*
X50412483Y-55254272D01*
X50420805Y-55246699D01*
X50427303Y-55242575D01*
X50474087Y-55192755D01*
X50476841Y-55189914D01*
X50496639Y-55170116D01*
X50499063Y-55166991D01*
X50499071Y-55166982D01*
X50499137Y-55166896D01*
X50506845Y-55157871D01*
X50531790Y-55131307D01*
X50537217Y-55125528D01*
X50547023Y-55107691D01*
X50557873Y-55091175D01*
X50570350Y-55075089D01*
X50587976Y-55034356D01*
X50593193Y-55023708D01*
X50610749Y-54991773D01*
X50614569Y-54984825D01*
X50616540Y-54977150D01*
X50616542Y-54977144D01*
X50619631Y-54965111D01*
X50626034Y-54946409D01*
X50634117Y-54927730D01*
X50641060Y-54883895D01*
X50643467Y-54872273D01*
X50654500Y-54829304D01*
X50654500Y-54808957D01*
X50656051Y-54789246D01*
X50657995Y-54776972D01*
X50659235Y-54769143D01*
X50655059Y-54724966D01*
X50654500Y-54713108D01*
X50654500Y-52734020D01*
X50655029Y-52722791D01*
X50656708Y-52715281D01*
X50655886Y-52689109D01*
X50654562Y-52647002D01*
X50654500Y-52643044D01*
X50654500Y-52615017D01*
X50653989Y-52610971D01*
X50653057Y-52599136D01*
X50651913Y-52562722D01*
X50651664Y-52554795D01*
X50645987Y-52535254D01*
X50641978Y-52515894D01*
X50640421Y-52503566D01*
X50640420Y-52503563D01*
X50639427Y-52495701D01*
X50636510Y-52488335D01*
X50636509Y-52488329D01*
X50623091Y-52454439D01*
X50619246Y-52443210D01*
X50616823Y-52434869D01*
X50606869Y-52400607D01*
X50602836Y-52393788D01*
X50602834Y-52393783D01*
X50596510Y-52383091D01*
X50587813Y-52365341D01*
X50580319Y-52346412D01*
X50554240Y-52310517D01*
X50547722Y-52300595D01*
X50529170Y-52269224D01*
X50529166Y-52269219D01*
X50525134Y-52262401D01*
X50510747Y-52248014D01*
X50497906Y-52232980D01*
X50490602Y-52222927D01*
X50485942Y-52216513D01*
X50451750Y-52188227D01*
X50442971Y-52180238D01*
X50143250Y-51880517D01*
X50135674Y-51872191D01*
X50131553Y-51865697D01*
X50081734Y-51818914D01*
X50078893Y-51816160D01*
X50059094Y-51796361D01*
X50055969Y-51793937D01*
X50055960Y-51793929D01*
X50055874Y-51793863D01*
X50046849Y-51786155D01*
X50020285Y-51761210D01*
X50014506Y-51755783D01*
X50003533Y-51749750D01*
X49996671Y-51745978D01*
X49980153Y-51735127D01*
X49964067Y-51722650D01*
X49923334Y-51705024D01*
X49912686Y-51699807D01*
X49887882Y-51686171D01*
X49873803Y-51678431D01*
X49866128Y-51676460D01*
X49866122Y-51676458D01*
X49854089Y-51673369D01*
X49835387Y-51666966D01*
X49816708Y-51658883D01*
X49782872Y-51653524D01*
X49772873Y-51651940D01*
X49761260Y-51649535D01*
X49718282Y-51638500D01*
X49697935Y-51638500D01*
X49678224Y-51636949D01*
X49665950Y-51635005D01*
X49658121Y-51633765D01*
X49650229Y-51634511D01*
X49613944Y-51637941D01*
X49602086Y-51638500D01*
X48683423Y-51638500D01*
X48615302Y-51618498D01*
X48594328Y-51601595D01*
X47262405Y-50269672D01*
X47228379Y-50207360D01*
X47225500Y-50180577D01*
X47225500Y-47451888D01*
X47245502Y-47383767D01*
X47299158Y-47337274D01*
X47369432Y-47327170D01*
X47415067Y-47343099D01*
X47525000Y-47407338D01*
X47529825Y-47409180D01*
X47529826Y-47409181D01*
X47576351Y-47426947D01*
X47733692Y-47487030D01*
X47738760Y-47488061D01*
X47738763Y-47488062D01*
X47846017Y-47509883D01*
X47952597Y-47531567D01*
X47957772Y-47531757D01*
X47957774Y-47531757D01*
X48170673Y-47539564D01*
X48170677Y-47539564D01*
X48175837Y-47539753D01*
X48180957Y-47539097D01*
X48180959Y-47539097D01*
X48392288Y-47512025D01*
X48392289Y-47512025D01*
X48397416Y-47511368D01*
X48402366Y-47509883D01*
X48606429Y-47448661D01*
X48606434Y-47448659D01*
X48611384Y-47447174D01*
X48811994Y-47348896D01*
X48993860Y-47219173D01*
X49152096Y-47061489D01*
X49282453Y-46880077D01*
X49288711Y-46867416D01*
X49379136Y-46684453D01*
X49379137Y-46684451D01*
X49381430Y-46679811D01*
X49446370Y-46466069D01*
X49475529Y-46244590D01*
X49476060Y-46222872D01*
X49477074Y-46181365D01*
X49477074Y-46181361D01*
X49477156Y-46178000D01*
X49458852Y-45955361D01*
X49404431Y-45738702D01*
X49315354Y-45533840D01*
X49268877Y-45461997D01*
X49196822Y-45350617D01*
X49196820Y-45350614D01*
X49194014Y-45346277D01*
X49043670Y-45181051D01*
X49039619Y-45177852D01*
X49039615Y-45177848D01*
X48872414Y-45045800D01*
X48872410Y-45045798D01*
X48868359Y-45042598D01*
X48827053Y-45019796D01*
X48777084Y-44969364D01*
X48762312Y-44899921D01*
X48787428Y-44833516D01*
X48814780Y-44806909D01*
X48896219Y-44748819D01*
X48993860Y-44679173D01*
X48998829Y-44674222D01*
X49148435Y-44525137D01*
X49152096Y-44521489D01*
X49192182Y-44465704D01*
X49279438Y-44344273D01*
X49279439Y-44344272D01*
X49282453Y-44340077D01*
X49284742Y-44335445D01*
X49285247Y-44334605D01*
X49337477Y-44286516D01*
X49393250Y-44273500D01*
X49656607Y-44273500D01*
X49724728Y-44293502D01*
G37*
%TD.AperFunction*%
%TA.AperFunction,Conductor*%
G36*
X70612598Y-47595502D02*
G01*
X70659091Y-47649158D01*
X70664001Y-47661624D01*
X70673450Y-47689946D01*
X70766522Y-47840348D01*
X70891697Y-47965305D01*
X70897927Y-47969145D01*
X70897928Y-47969146D01*
X71035767Y-48054112D01*
X71083261Y-48106885D01*
X71094683Y-48176956D01*
X71066409Y-48242080D01*
X71058746Y-48250467D01*
X71022251Y-48286962D01*
X71019097Y-48291467D01*
X71019092Y-48291473D01*
X70899101Y-48462838D01*
X70899100Y-48462840D01*
X70895944Y-48467347D01*
X70893621Y-48472329D01*
X70893618Y-48472334D01*
X70846415Y-48573562D01*
X70802880Y-48666924D01*
X70745885Y-48879629D01*
X70726693Y-49099000D01*
X70745885Y-49318371D01*
X70802880Y-49531076D01*
X70809348Y-49544946D01*
X70872907Y-49681250D01*
X70883568Y-49751442D01*
X70854588Y-49816255D01*
X70795168Y-49855111D01*
X70758712Y-49860500D01*
X69340165Y-49860500D01*
X69272044Y-49840498D01*
X69251070Y-49823595D01*
X68852405Y-49424930D01*
X68818379Y-49362618D01*
X68815500Y-49335835D01*
X68815500Y-48543032D01*
X68816030Y-48531793D01*
X68817709Y-48524281D01*
X68817245Y-48509500D01*
X68815562Y-48455970D01*
X68815500Y-48452012D01*
X68815500Y-48424017D01*
X68814992Y-48419994D01*
X68814059Y-48408152D01*
X68813915Y-48403545D01*
X68812665Y-48363795D01*
X68806987Y-48344251D01*
X68802977Y-48324888D01*
X68801420Y-48312560D01*
X68801420Y-48312558D01*
X68800427Y-48304701D01*
X68797511Y-48297337D01*
X68797510Y-48297332D01*
X68784093Y-48263444D01*
X68780248Y-48252215D01*
X68774167Y-48231285D01*
X68767869Y-48209607D01*
X68763830Y-48202777D01*
X68757512Y-48192094D01*
X68748812Y-48174336D01*
X68744239Y-48162785D01*
X68744235Y-48162779D01*
X68741319Y-48155412D01*
X68715234Y-48119509D01*
X68708719Y-48109590D01*
X68690174Y-48078232D01*
X68690171Y-48078228D01*
X68686134Y-48071402D01*
X68671750Y-48057018D01*
X68658909Y-48041984D01*
X68651602Y-48031927D01*
X68646942Y-48025513D01*
X68612750Y-47997227D01*
X68603970Y-47989237D01*
X68405328Y-47790595D01*
X68371302Y-47728283D01*
X68376367Y-47657468D01*
X68418914Y-47600632D01*
X68485434Y-47575821D01*
X68494423Y-47575500D01*
X70544477Y-47575500D01*
X70612598Y-47595502D01*
G37*
%TD.AperFunction*%
%TA.AperFunction,Conductor*%
G36*
X62599698Y-31593502D02*
G01*
X62646191Y-31647158D01*
X62656295Y-31717432D01*
X62626801Y-31782012D01*
X62620672Y-31788595D01*
X61844428Y-32564839D01*
X61782116Y-32598865D01*
X61766317Y-32601264D01*
X61610629Y-32614885D01*
X61397924Y-32671880D01*
X61342941Y-32697519D01*
X61203334Y-32762618D01*
X61203329Y-32762621D01*
X61198347Y-32764944D01*
X61193840Y-32768100D01*
X61193838Y-32768101D01*
X61022473Y-32888092D01*
X61022470Y-32888094D01*
X61017962Y-32891251D01*
X60862251Y-33046962D01*
X60735944Y-33227347D01*
X60733621Y-33232329D01*
X60733618Y-33232334D01*
X60674195Y-33359769D01*
X60627278Y-33413054D01*
X60559001Y-33432515D01*
X60491041Y-33411973D01*
X60445805Y-33359769D01*
X60386382Y-33232334D01*
X60386379Y-33232329D01*
X60384056Y-33227347D01*
X60257749Y-33046962D01*
X60102038Y-32891251D01*
X59921654Y-32764944D01*
X59722076Y-32671880D01*
X59509371Y-32614885D01*
X59290000Y-32595693D01*
X59070629Y-32614885D01*
X58857924Y-32671880D01*
X58802941Y-32697519D01*
X58663334Y-32762618D01*
X58663329Y-32762621D01*
X58658347Y-32764944D01*
X58653840Y-32768100D01*
X58653838Y-32768101D01*
X58482473Y-32888092D01*
X58482470Y-32888094D01*
X58477962Y-32891251D01*
X58322251Y-33046962D01*
X58195944Y-33227347D01*
X58193621Y-33232329D01*
X58193618Y-33232334D01*
X58134195Y-33359769D01*
X58087278Y-33413054D01*
X58019001Y-33432515D01*
X57951041Y-33411973D01*
X57905805Y-33359769D01*
X57846382Y-33232334D01*
X57846379Y-33232329D01*
X57844056Y-33227347D01*
X57717749Y-33046962D01*
X57562038Y-32891251D01*
X57381654Y-32764944D01*
X57182076Y-32671880D01*
X56969371Y-32614885D01*
X56750000Y-32595693D01*
X56530629Y-32614885D01*
X56317924Y-32671880D01*
X56262941Y-32697519D01*
X56123334Y-32762618D01*
X56123329Y-32762621D01*
X56118347Y-32764944D01*
X56113840Y-32768100D01*
X56113838Y-32768101D01*
X55942473Y-32888092D01*
X55942470Y-32888094D01*
X55937962Y-32891251D01*
X55782251Y-33046962D01*
X55655944Y-33227347D01*
X55653621Y-33232329D01*
X55653618Y-33232334D01*
X55630145Y-33282673D01*
X55562880Y-33426924D01*
X55505885Y-33639629D01*
X55486693Y-33859000D01*
X55505885Y-34078371D01*
X55562880Y-34291076D01*
X55582164Y-34332431D01*
X55653618Y-34485666D01*
X55653621Y-34485671D01*
X55655944Y-34490653D01*
X55659100Y-34495160D01*
X55659101Y-34495162D01*
X55719830Y-34581891D01*
X55782251Y-34671038D01*
X55937962Y-34826749D01*
X55942471Y-34829906D01*
X55942473Y-34829908D01*
X55986163Y-34860500D01*
X56118346Y-34953056D01*
X56317924Y-35046120D01*
X56530629Y-35103115D01*
X56750000Y-35122307D01*
X56969371Y-35103115D01*
X57182076Y-35046120D01*
X57381654Y-34953056D01*
X57513837Y-34860500D01*
X57557527Y-34829908D01*
X57557529Y-34829906D01*
X57562038Y-34826749D01*
X57717749Y-34671038D01*
X57780171Y-34581891D01*
X57840899Y-34495162D01*
X57840900Y-34495160D01*
X57844056Y-34490653D01*
X57846379Y-34485671D01*
X57846382Y-34485666D01*
X57905805Y-34358231D01*
X57952722Y-34304946D01*
X58020999Y-34285485D01*
X58088959Y-34306027D01*
X58134195Y-34358231D01*
X58193618Y-34485666D01*
X58193621Y-34485671D01*
X58195944Y-34490653D01*
X58199100Y-34495160D01*
X58199101Y-34495162D01*
X58259830Y-34581891D01*
X58322251Y-34671038D01*
X58477962Y-34826749D01*
X58482471Y-34829906D01*
X58482473Y-34829908D01*
X58526163Y-34860500D01*
X58658346Y-34953056D01*
X58857924Y-35046120D01*
X59070629Y-35103115D01*
X59290000Y-35122307D01*
X59509371Y-35103115D01*
X59538488Y-35095313D01*
X59609465Y-35097003D01*
X59660193Y-35127925D01*
X60181745Y-35649477D01*
X60189322Y-35657803D01*
X60193447Y-35664303D01*
X60199225Y-35669729D01*
X60199226Y-35669730D01*
X60243281Y-35711100D01*
X60246123Y-35713855D01*
X60265906Y-35733638D01*
X60269114Y-35736126D01*
X60278143Y-35743837D01*
X60310494Y-35774217D01*
X60317443Y-35778037D01*
X60328329Y-35784022D01*
X60344853Y-35794876D01*
X60360933Y-35807349D01*
X60368210Y-35810498D01*
X60401650Y-35824969D01*
X60412311Y-35830192D01*
X60444247Y-35847749D01*
X60444252Y-35847751D01*
X60451197Y-35851569D01*
X60458871Y-35853539D01*
X60458878Y-35853542D01*
X60470913Y-35856632D01*
X60489618Y-35863036D01*
X60497387Y-35866398D01*
X60508292Y-35871117D01*
X60535342Y-35875401D01*
X60552127Y-35878060D01*
X60563740Y-35880465D01*
X60606718Y-35891500D01*
X60627065Y-35891500D01*
X60646777Y-35893051D01*
X60666879Y-35896235D01*
X60674771Y-35895489D01*
X60711056Y-35892059D01*
X60722914Y-35891500D01*
X62512980Y-35891500D01*
X62524214Y-35892030D01*
X62531719Y-35893708D01*
X62600012Y-35891562D01*
X62603969Y-35891500D01*
X62631983Y-35891500D01*
X62635908Y-35891004D01*
X62635909Y-35891004D01*
X62636004Y-35890992D01*
X62647849Y-35890059D01*
X62677670Y-35889122D01*
X62684282Y-35888914D01*
X62684283Y-35888914D01*
X62692205Y-35888665D01*
X62711749Y-35882987D01*
X62731112Y-35878977D01*
X62743440Y-35877420D01*
X62743442Y-35877420D01*
X62751299Y-35876427D01*
X62758327Y-35873645D01*
X62829120Y-35876071D01*
X62887496Y-35916479D01*
X62914759Y-35982032D01*
X62915500Y-35995680D01*
X62915500Y-36739368D01*
X62895498Y-36807489D01*
X62841842Y-36853982D01*
X62833733Y-36857349D01*
X62804295Y-36868385D01*
X62687739Y-36955739D01*
X62600385Y-37072295D01*
X62549255Y-37208684D01*
X62542500Y-37270866D01*
X62542500Y-38067134D01*
X62549255Y-38129316D01*
X62552029Y-38136715D01*
X62584857Y-38224283D01*
X62600385Y-38265705D01*
X62605767Y-38272886D01*
X62608043Y-38277043D01*
X62623213Y-38346400D01*
X62598477Y-38412948D01*
X62586619Y-38426648D01*
X61436517Y-39576750D01*
X61428191Y-39584326D01*
X61421697Y-39588447D01*
X61416274Y-39594222D01*
X61374915Y-39638265D01*
X61372160Y-39641107D01*
X61352361Y-39660906D01*
X61349937Y-39664031D01*
X61349929Y-39664040D01*
X61349863Y-39664126D01*
X61342155Y-39673151D01*
X61311783Y-39705494D01*
X61307965Y-39712438D01*
X61307964Y-39712440D01*
X61301978Y-39723329D01*
X61291127Y-39739847D01*
X61278650Y-39755933D01*
X61261024Y-39796666D01*
X61255807Y-39807314D01*
X61234431Y-39846197D01*
X61232460Y-39853872D01*
X61232458Y-39853878D01*
X61229369Y-39865911D01*
X61222966Y-39884613D01*
X61214883Y-39903292D01*
X61212028Y-39921320D01*
X61207940Y-39947127D01*
X61205535Y-39958740D01*
X61194500Y-40001718D01*
X61194500Y-40022065D01*
X61192949Y-40041776D01*
X61189765Y-40061879D01*
X61190511Y-40069771D01*
X61193941Y-40106056D01*
X61194500Y-40117914D01*
X61194500Y-43068577D01*
X61174498Y-43136698D01*
X61157595Y-43157673D01*
X60766769Y-43548498D01*
X60420512Y-43894755D01*
X60412193Y-43902325D01*
X60405697Y-43906447D01*
X60400271Y-43912225D01*
X60400270Y-43912226D01*
X60358915Y-43956265D01*
X60356160Y-43959107D01*
X60336361Y-43978906D01*
X60333937Y-43982031D01*
X60333929Y-43982040D01*
X60333863Y-43982126D01*
X60326155Y-43991151D01*
X60295783Y-44023494D01*
X60291965Y-44030438D01*
X60291964Y-44030440D01*
X60285978Y-44041329D01*
X60275127Y-44057847D01*
X60262650Y-44073933D01*
X60245024Y-44114666D01*
X60239807Y-44125314D01*
X60218431Y-44164197D01*
X60216460Y-44171872D01*
X60216458Y-44171878D01*
X60213369Y-44183911D01*
X60206966Y-44202613D01*
X60198883Y-44221292D01*
X60197644Y-44229117D01*
X60191940Y-44265127D01*
X60189535Y-44276740D01*
X60178500Y-44319718D01*
X60178500Y-44340065D01*
X60176949Y-44359776D01*
X60173765Y-44379879D01*
X60173091Y-44379772D01*
X60154924Y-44438102D01*
X60085235Y-44546238D01*
X60082826Y-44552858D01*
X60082824Y-44552861D01*
X60036850Y-44679173D01*
X60023197Y-44716685D01*
X60000463Y-44896640D01*
X60018163Y-45077160D01*
X60033322Y-45122729D01*
X60035845Y-45193679D01*
X59999609Y-45254731D01*
X59936117Y-45286501D01*
X59913764Y-45288500D01*
X56067020Y-45288500D01*
X56055791Y-45287971D01*
X56048281Y-45286292D01*
X56040355Y-45286541D01*
X56040354Y-45286541D01*
X55980002Y-45288438D01*
X55976044Y-45288500D01*
X55948017Y-45288500D01*
X55943971Y-45289011D01*
X55932143Y-45289942D01*
X55887795Y-45291336D01*
X55880178Y-45293549D01*
X55868253Y-45297013D01*
X55848894Y-45301022D01*
X55847633Y-45301181D01*
X55828701Y-45303573D01*
X55821337Y-45306489D01*
X55821332Y-45306490D01*
X55799421Y-45315166D01*
X55787428Y-45319914D01*
X55776224Y-45323751D01*
X55733607Y-45336132D01*
X55722912Y-45342457D01*
X55716094Y-45346489D01*
X55698343Y-45355185D01*
X55686785Y-45359761D01*
X55686780Y-45359764D01*
X55679412Y-45362681D01*
X55672997Y-45367342D01*
X55643507Y-45388767D01*
X55633585Y-45395284D01*
X55602228Y-45413828D01*
X55602225Y-45413830D01*
X55595401Y-45417866D01*
X55581014Y-45432253D01*
X55565980Y-45445094D01*
X55549513Y-45457058D01*
X55544460Y-45463166D01*
X55521228Y-45491249D01*
X55513238Y-45500029D01*
X54385095Y-46628172D01*
X54322783Y-46662198D01*
X54251968Y-46657133D01*
X54195132Y-46614586D01*
X54170321Y-46548066D01*
X54170000Y-46539077D01*
X54170000Y-41518425D01*
X54171551Y-41498714D01*
X54172642Y-41491827D01*
X54172642Y-41491825D01*
X54173674Y-41485310D01*
X54171398Y-41441866D01*
X54170173Y-41418501D01*
X54170000Y-41411907D01*
X54170000Y-41391880D01*
X54167907Y-41371961D01*
X54167390Y-41365387D01*
X54164235Y-41305184D01*
X54164235Y-41305182D01*
X54163889Y-41298585D01*
X54160375Y-41285472D01*
X54156772Y-41266029D01*
X54156046Y-41259115D01*
X54156045Y-41259111D01*
X54155355Y-41252544D01*
X54134682Y-41188918D01*
X54132809Y-41182594D01*
X54128109Y-41165054D01*
X54115494Y-41117976D01*
X54109333Y-41105884D01*
X54101769Y-41087623D01*
X54099616Y-41080997D01*
X54097575Y-41074715D01*
X54064124Y-41016776D01*
X54060977Y-41010980D01*
X54040692Y-40971169D01*
X54030607Y-40951375D01*
X54022068Y-40940830D01*
X54010875Y-40924545D01*
X54007384Y-40918498D01*
X54007381Y-40918495D01*
X54004085Y-40912785D01*
X53999673Y-40907885D01*
X53999670Y-40907881D01*
X53959325Y-40863075D01*
X53955037Y-40858054D01*
X53944514Y-40845059D01*
X53942437Y-40842494D01*
X53928290Y-40828347D01*
X53923749Y-40823563D01*
X53883385Y-40778734D01*
X53883383Y-40778733D01*
X53878970Y-40773831D01*
X53867982Y-40765848D01*
X53852954Y-40753011D01*
X53330489Y-40230546D01*
X53317652Y-40215518D01*
X53309669Y-40204530D01*
X53286369Y-40183550D01*
X53259937Y-40159751D01*
X53255153Y-40155210D01*
X53241006Y-40141063D01*
X53225446Y-40128463D01*
X53220425Y-40124175D01*
X53175619Y-40083830D01*
X53175615Y-40083827D01*
X53170715Y-40079415D01*
X53165005Y-40076119D01*
X53165002Y-40076116D01*
X53158955Y-40072625D01*
X53142670Y-40061432D01*
X53132125Y-40052893D01*
X53072520Y-40022523D01*
X53066724Y-40019376D01*
X53048563Y-40008891D01*
X53008785Y-39985925D01*
X52995875Y-39981730D01*
X52977616Y-39974167D01*
X52965524Y-39968006D01*
X52900906Y-39950691D01*
X52894582Y-39948818D01*
X52885981Y-39946023D01*
X52830956Y-39928145D01*
X52824389Y-39927455D01*
X52824385Y-39927454D01*
X52818712Y-39926858D01*
X52817470Y-39926728D01*
X52798028Y-39923125D01*
X52784915Y-39919611D01*
X52778318Y-39919265D01*
X52778316Y-39919265D01*
X52718113Y-39916110D01*
X52711539Y-39915593D01*
X52694895Y-39913844D01*
X52694891Y-39913844D01*
X52691620Y-39913500D01*
X52671593Y-39913500D01*
X52664999Y-39913327D01*
X52604782Y-39910171D01*
X52604778Y-39910171D01*
X52598190Y-39909826D01*
X52591675Y-39910858D01*
X52591673Y-39910858D01*
X52584786Y-39911949D01*
X52565075Y-39913500D01*
X52422427Y-39913500D01*
X52354306Y-39893498D01*
X52333410Y-39876673D01*
X52265488Y-39808870D01*
X52265483Y-39808866D01*
X52260303Y-39803695D01*
X52254072Y-39799854D01*
X52115968Y-39714725D01*
X52115966Y-39714724D01*
X52109738Y-39710885D01*
X51995973Y-39673151D01*
X51948389Y-39657368D01*
X51948387Y-39657368D01*
X51941861Y-39655203D01*
X51935025Y-39654503D01*
X51935022Y-39654502D01*
X51891969Y-39650091D01*
X51837400Y-39644500D01*
X50486600Y-39644500D01*
X50483354Y-39644837D01*
X50483350Y-39644837D01*
X50387692Y-39654762D01*
X50387688Y-39654763D01*
X50380834Y-39655474D01*
X50374298Y-39657655D01*
X50374296Y-39657655D01*
X50248228Y-39699715D01*
X50213054Y-39711450D01*
X50062652Y-39804522D01*
X50057479Y-39809704D01*
X50057474Y-39809708D01*
X49990782Y-39876517D01*
X49928500Y-39910597D01*
X49901609Y-39913500D01*
X49406413Y-39913500D01*
X49338292Y-39893498D01*
X49327322Y-39884657D01*
X49327261Y-39884739D01*
X49210705Y-39797385D01*
X49074316Y-39746255D01*
X49012134Y-39739500D01*
X47215866Y-39739500D01*
X47153684Y-39746255D01*
X47146285Y-39749029D01*
X47146280Y-39749030D01*
X47141726Y-39750737D01*
X47070919Y-39755918D01*
X47008551Y-39721996D01*
X46974424Y-39659739D01*
X46971500Y-39632754D01*
X46971500Y-34943246D01*
X46991502Y-34875125D01*
X47045158Y-34828632D01*
X47115432Y-34818528D01*
X47141726Y-34825263D01*
X47146280Y-34826970D01*
X47146285Y-34826971D01*
X47153684Y-34829745D01*
X47215866Y-34836500D01*
X49012134Y-34836500D01*
X49074316Y-34829745D01*
X49210705Y-34778615D01*
X49327261Y-34691261D01*
X49414615Y-34574705D01*
X49419654Y-34561263D01*
X49461639Y-34449270D01*
X49504281Y-34392506D01*
X49570843Y-34367806D01*
X49579621Y-34367500D01*
X49939080Y-34367500D01*
X50007201Y-34387502D01*
X50046224Y-34427197D01*
X50138522Y-34576348D01*
X50263697Y-34701305D01*
X50269927Y-34705145D01*
X50269928Y-34705146D01*
X50407090Y-34789694D01*
X50414262Y-34794115D01*
X50487865Y-34818528D01*
X50575611Y-34847632D01*
X50575613Y-34847632D01*
X50582139Y-34849797D01*
X50588975Y-34850497D01*
X50588978Y-34850498D01*
X50632031Y-34854909D01*
X50686600Y-34860500D01*
X51637400Y-34860500D01*
X51640646Y-34860163D01*
X51640650Y-34860163D01*
X51736308Y-34850238D01*
X51736312Y-34850237D01*
X51743166Y-34849526D01*
X51749702Y-34847345D01*
X51749704Y-34847345D01*
X51881806Y-34803272D01*
X51910946Y-34793550D01*
X52061348Y-34700478D01*
X52186305Y-34575303D01*
X52190146Y-34569072D01*
X52275275Y-34430968D01*
X52275276Y-34430966D01*
X52279115Y-34424738D01*
X52313811Y-34320133D01*
X52332632Y-34263389D01*
X52332632Y-34263387D01*
X52334797Y-34256861D01*
X52345500Y-34152400D01*
X52345500Y-32976600D01*
X52337049Y-32895148D01*
X52335238Y-32877692D01*
X52335237Y-32877688D01*
X52334526Y-32870834D01*
X52300252Y-32768101D01*
X52280868Y-32710002D01*
X52278550Y-32703054D01*
X52185478Y-32552652D01*
X52092476Y-32459812D01*
X52058397Y-32397530D01*
X52063400Y-32326709D01*
X52092399Y-32281544D01*
X52763538Y-31610405D01*
X52825850Y-31576379D01*
X52852633Y-31573500D01*
X62531577Y-31573500D01*
X62599698Y-31593502D01*
G37*
%TD.AperFunction*%
%TA.AperFunction,Conductor*%
G36*
X68248959Y-34306027D02*
G01*
X68294195Y-34358231D01*
X68353618Y-34485666D01*
X68353621Y-34485671D01*
X68355944Y-34490653D01*
X68359100Y-34495160D01*
X68359101Y-34495162D01*
X68419830Y-34581891D01*
X68482251Y-34671038D01*
X68518643Y-34707430D01*
X68552669Y-34769742D01*
X68547604Y-34840557D01*
X68505057Y-34897393D01*
X68495852Y-34903669D01*
X68350652Y-34993522D01*
X68225695Y-35118697D01*
X68221855Y-35124927D01*
X68221854Y-35124928D01*
X68190597Y-35175637D01*
X68132885Y-35269262D01*
X68077203Y-35437139D01*
X68066500Y-35541600D01*
X68066500Y-36442400D01*
X68077474Y-36548166D01*
X68079655Y-36554703D01*
X68079656Y-36554708D01*
X68102261Y-36622465D01*
X68104845Y-36693414D01*
X68071832Y-36751435D01*
X67786517Y-37036750D01*
X67778191Y-37044326D01*
X67771697Y-37048447D01*
X67766274Y-37054222D01*
X67724915Y-37098265D01*
X67722160Y-37101107D01*
X67702361Y-37120906D01*
X67699937Y-37124031D01*
X67699929Y-37124040D01*
X67699863Y-37124126D01*
X67692155Y-37133151D01*
X67661783Y-37165494D01*
X67657965Y-37172438D01*
X67657964Y-37172440D01*
X67651978Y-37183329D01*
X67641127Y-37199847D01*
X67628650Y-37215933D01*
X67611024Y-37256666D01*
X67605807Y-37267314D01*
X67584431Y-37306197D01*
X67582460Y-37313872D01*
X67582458Y-37313878D01*
X67579369Y-37325911D01*
X67572966Y-37344613D01*
X67564883Y-37363292D01*
X67563644Y-37371117D01*
X67557940Y-37407127D01*
X67555535Y-37418740D01*
X67544500Y-37461718D01*
X67544500Y-37482065D01*
X67542949Y-37501776D01*
X67539765Y-37521879D01*
X67540511Y-37529771D01*
X67543941Y-37566056D01*
X67544500Y-37577914D01*
X67544500Y-43114652D01*
X67524498Y-43182773D01*
X67470842Y-43229266D01*
X67400568Y-43239370D01*
X67335988Y-43209876D01*
X67329482Y-43203825D01*
X67306483Y-43180866D01*
X67301303Y-43175695D01*
X67283550Y-43164752D01*
X67156968Y-43086725D01*
X67156966Y-43086724D01*
X67150738Y-43082885D01*
X66990254Y-43029655D01*
X66989389Y-43029368D01*
X66989387Y-43029368D01*
X66982861Y-43027203D01*
X66976025Y-43026503D01*
X66976022Y-43026502D01*
X66932969Y-43022091D01*
X66878400Y-43016500D01*
X65977600Y-43016500D01*
X65974354Y-43016837D01*
X65974350Y-43016837D01*
X65878692Y-43026762D01*
X65878688Y-43026763D01*
X65871834Y-43027474D01*
X65865298Y-43029655D01*
X65865296Y-43029655D01*
X65753873Y-43066829D01*
X65704054Y-43083450D01*
X65553652Y-43176522D01*
X65428695Y-43301697D01*
X65424855Y-43307927D01*
X65424854Y-43307928D01*
X65368663Y-43399087D01*
X65335885Y-43452262D01*
X65333581Y-43459209D01*
X65285326Y-43604695D01*
X65280203Y-43620139D01*
X65269500Y-43724600D01*
X65269500Y-45075400D01*
X65269837Y-45078646D01*
X65269837Y-45078650D01*
X65277188Y-45149496D01*
X65264323Y-45219318D01*
X65215752Y-45271100D01*
X65151861Y-45288500D01*
X64604236Y-45288500D01*
X64536115Y-45268498D01*
X64489622Y-45214842D01*
X64478892Y-45149658D01*
X64486172Y-45078601D01*
X64486500Y-45075400D01*
X64486500Y-43724600D01*
X64475526Y-43618834D01*
X64469097Y-43599562D01*
X64421868Y-43458002D01*
X64419550Y-43451054D01*
X64340559Y-43323406D01*
X64321722Y-43254955D01*
X64340444Y-43190988D01*
X64416275Y-43067968D01*
X64416276Y-43067966D01*
X64420115Y-43061738D01*
X64475797Y-42893861D01*
X64478314Y-42869301D01*
X64482289Y-42830500D01*
X64486500Y-42789400D01*
X64486500Y-41438600D01*
X64484072Y-41415200D01*
X64476238Y-41339692D01*
X64476237Y-41339688D01*
X64475526Y-41332834D01*
X64459727Y-41285477D01*
X64421868Y-41172002D01*
X64419550Y-41165054D01*
X64326478Y-41014652D01*
X64201303Y-40889695D01*
X64142781Y-40853621D01*
X64104835Y-40830231D01*
X64057342Y-40777459D01*
X64045918Y-40707387D01*
X64074192Y-40642263D01*
X64081856Y-40633876D01*
X65214421Y-39501311D01*
X65276733Y-39467285D01*
X65332663Y-39467824D01*
X65333290Y-39467973D01*
X65340684Y-39470745D01*
X65348532Y-39471598D01*
X65348534Y-39471598D01*
X65399469Y-39477131D01*
X65402866Y-39477500D01*
X66499134Y-39477500D01*
X66561316Y-39470745D01*
X66697705Y-39419615D01*
X66814261Y-39332261D01*
X66901615Y-39215705D01*
X66952745Y-39079316D01*
X66959500Y-39017134D01*
X66959500Y-38220866D01*
X66952745Y-38158684D01*
X66901615Y-38022295D01*
X66814261Y-37905739D01*
X66697705Y-37818385D01*
X66561316Y-37767255D01*
X66499134Y-37760500D01*
X65512500Y-37760500D01*
X65444379Y-37740498D01*
X65397886Y-37686842D01*
X65386500Y-37634500D01*
X65386500Y-36333422D01*
X65406502Y-36265301D01*
X65423405Y-36244327D01*
X66539807Y-35127925D01*
X66602119Y-35093899D01*
X66661512Y-35095313D01*
X66690629Y-35103115D01*
X66910000Y-35122307D01*
X67129371Y-35103115D01*
X67342076Y-35046120D01*
X67541654Y-34953056D01*
X67673837Y-34860500D01*
X67717527Y-34829908D01*
X67717529Y-34829906D01*
X67722038Y-34826749D01*
X67877749Y-34671038D01*
X67940171Y-34581891D01*
X68000899Y-34495162D01*
X68000900Y-34495160D01*
X68004056Y-34490653D01*
X68006379Y-34485671D01*
X68006382Y-34485666D01*
X68065805Y-34358231D01*
X68112722Y-34304946D01*
X68180999Y-34285485D01*
X68248959Y-34306027D01*
G37*
%TD.AperFunction*%
%TA.AperFunction,Conductor*%
G36*
X84298053Y-41985337D02*
G01*
X84298399Y-41984145D01*
X84306005Y-41986355D01*
X84306008Y-41986356D01*
X84376370Y-42006797D01*
X84458169Y-42030562D01*
X84464574Y-42031066D01*
X84464579Y-42031067D01*
X84493042Y-42033307D01*
X84493050Y-42033307D01*
X84495498Y-42033500D01*
X86214500Y-42033500D01*
X86282621Y-42053502D01*
X86329114Y-42107158D01*
X86340500Y-42159500D01*
X86340500Y-42830500D01*
X86320498Y-42898621D01*
X86266842Y-42945114D01*
X86214500Y-42956500D01*
X84495498Y-42956500D01*
X84493050Y-42956693D01*
X84493042Y-42956693D01*
X84464579Y-42958933D01*
X84464574Y-42958934D01*
X84458169Y-42959438D01*
X84393641Y-42978185D01*
X84306012Y-43003643D01*
X84306010Y-43003644D01*
X84298399Y-43005855D01*
X84269589Y-43022893D01*
X84162020Y-43086509D01*
X84162017Y-43086511D01*
X84155193Y-43090547D01*
X84149585Y-43096155D01*
X84143325Y-43101011D01*
X84141492Y-43098648D01*
X84091516Y-43125938D01*
X84068693Y-43128755D01*
X84052009Y-43129280D01*
X84046967Y-43129438D01*
X84043012Y-43129500D01*
X84015017Y-43129500D01*
X84011083Y-43129997D01*
X84011081Y-43129997D01*
X84010994Y-43130008D01*
X83999160Y-43130940D01*
X83954795Y-43132335D01*
X83947182Y-43134547D01*
X83947181Y-43134547D01*
X83935252Y-43138013D01*
X83915888Y-43142023D01*
X83903560Y-43143580D01*
X83903558Y-43143580D01*
X83895701Y-43144573D01*
X83888337Y-43147489D01*
X83888332Y-43147490D01*
X83854444Y-43160907D01*
X83843215Y-43164752D01*
X83826535Y-43169598D01*
X83800607Y-43177131D01*
X83793780Y-43181169D01*
X83793777Y-43181170D01*
X83783094Y-43187488D01*
X83765336Y-43196188D01*
X83753785Y-43200761D01*
X83753779Y-43200765D01*
X83746412Y-43203681D01*
X83740001Y-43208339D01*
X83739999Y-43208340D01*
X83710512Y-43229764D01*
X83700590Y-43236281D01*
X83669232Y-43254826D01*
X83669228Y-43254829D01*
X83662402Y-43258866D01*
X83648018Y-43273250D01*
X83632984Y-43286091D01*
X83616513Y-43298058D01*
X83611460Y-43304166D01*
X83588223Y-43332255D01*
X83580233Y-43341035D01*
X83508595Y-43412673D01*
X83446283Y-43446699D01*
X83375468Y-43441634D01*
X83318632Y-43399087D01*
X83293821Y-43332567D01*
X83293500Y-43323578D01*
X83293500Y-42937422D01*
X83313502Y-42869301D01*
X83330405Y-42848327D01*
X84166148Y-42012584D01*
X84228460Y-41978558D01*
X84298053Y-41985337D01*
G37*
%TD.AperFunction*%
%TA.AperFunction,Conductor*%
G36*
X80781488Y-31593502D02*
G01*
X80802462Y-31610405D01*
X83423095Y-34231038D01*
X83457121Y-34293350D01*
X83460000Y-34320133D01*
X83460000Y-35356608D01*
X83439998Y-35424729D01*
X83400303Y-35463752D01*
X83337652Y-35502522D01*
X83212695Y-35627697D01*
X83208855Y-35633927D01*
X83208854Y-35633928D01*
X83140066Y-35745523D01*
X83119885Y-35778262D01*
X83104393Y-35824969D01*
X83071840Y-35923115D01*
X83064203Y-35946139D01*
X83053500Y-36050600D01*
X83053500Y-37001400D01*
X83053837Y-37004646D01*
X83053837Y-37004650D01*
X83063699Y-37099693D01*
X83064474Y-37107166D01*
X83066655Y-37113702D01*
X83066655Y-37113704D01*
X83095444Y-37199994D01*
X83120450Y-37274946D01*
X83213522Y-37425348D01*
X83338697Y-37550305D01*
X83344927Y-37554145D01*
X83344928Y-37554146D01*
X83486616Y-37641484D01*
X83534109Y-37694256D01*
X83546500Y-37748744D01*
X83546500Y-38224075D01*
X83544949Y-38243785D01*
X83542826Y-38257190D01*
X83543171Y-38263778D01*
X83543171Y-38263782D01*
X83546327Y-38323999D01*
X83546500Y-38330593D01*
X83546500Y-38350620D01*
X83546844Y-38353891D01*
X83546844Y-38353895D01*
X83548593Y-38370539D01*
X83549110Y-38377113D01*
X83552611Y-38443915D01*
X83554320Y-38450292D01*
X83554320Y-38450293D01*
X83556124Y-38457023D01*
X83559728Y-38476470D01*
X83561145Y-38489956D01*
X83569629Y-38516066D01*
X83571655Y-38587034D01*
X83534992Y-38647831D01*
X83471279Y-38679156D01*
X83447012Y-38680856D01*
X83440121Y-38679765D01*
X83432229Y-38680511D01*
X83432228Y-38680511D01*
X83395944Y-38683941D01*
X83384086Y-38684500D01*
X82046500Y-38684500D01*
X81978379Y-38664498D01*
X81931886Y-38610842D01*
X81920500Y-38558500D01*
X81920500Y-38468498D01*
X81919597Y-38457023D01*
X81918067Y-38437579D01*
X81918066Y-38437574D01*
X81917562Y-38431169D01*
X81871145Y-38271399D01*
X81839251Y-38217469D01*
X81790491Y-38135020D01*
X81790489Y-38135017D01*
X81786453Y-38128193D01*
X81668807Y-38010547D01*
X81661983Y-38006511D01*
X81661980Y-38006509D01*
X81532427Y-37929892D01*
X81532428Y-37929892D01*
X81525601Y-37925855D01*
X81517990Y-37923644D01*
X81517988Y-37923643D01*
X81465769Y-37908472D01*
X81365831Y-37879438D01*
X81359426Y-37878934D01*
X81359421Y-37878933D01*
X81330958Y-37876693D01*
X81330950Y-37876693D01*
X81328502Y-37876500D01*
X81110782Y-37876500D01*
X81042661Y-37856498D01*
X81002330Y-37814641D01*
X80996174Y-37804232D01*
X80996171Y-37804228D01*
X80992134Y-37797402D01*
X80977750Y-37783018D01*
X80964909Y-37767984D01*
X80957602Y-37757927D01*
X80952942Y-37751513D01*
X80918750Y-37723227D01*
X80909969Y-37715237D01*
X80229245Y-37034512D01*
X80221675Y-37026193D01*
X80217553Y-37019697D01*
X80167734Y-36972914D01*
X80164893Y-36970160D01*
X80145094Y-36950361D01*
X80141969Y-36947937D01*
X80141960Y-36947929D01*
X80141874Y-36947863D01*
X80132849Y-36940155D01*
X80106285Y-36915210D01*
X80100506Y-36909783D01*
X80082669Y-36899977D01*
X80066153Y-36889127D01*
X80050067Y-36876650D01*
X80009334Y-36859024D01*
X79998686Y-36853807D01*
X79987058Y-36847415D01*
X79959803Y-36832431D01*
X79952128Y-36830460D01*
X79952122Y-36830458D01*
X79940089Y-36827369D01*
X79921387Y-36820966D01*
X79902708Y-36812883D01*
X79868652Y-36807489D01*
X79858873Y-36805940D01*
X79847260Y-36803535D01*
X79804282Y-36792500D01*
X79783935Y-36792500D01*
X79764224Y-36790949D01*
X79751950Y-36789005D01*
X79744121Y-36787765D01*
X79736229Y-36788511D01*
X79699944Y-36791941D01*
X79688086Y-36792500D01*
X78535865Y-36792500D01*
X78467744Y-36772498D01*
X78421251Y-36718842D01*
X78411147Y-36648568D01*
X78416272Y-36626833D01*
X78440632Y-36553389D01*
X78440632Y-36553387D01*
X78442797Y-36546861D01*
X78453500Y-36442400D01*
X78453500Y-35541600D01*
X78451720Y-35524447D01*
X78443238Y-35442692D01*
X78443237Y-35442688D01*
X78442526Y-35435834D01*
X78439516Y-35426810D01*
X78388868Y-35275002D01*
X78386550Y-35268054D01*
X78293478Y-35117652D01*
X78168303Y-34992695D01*
X78103997Y-34953056D01*
X78024233Y-34903888D01*
X77976739Y-34851115D01*
X77965317Y-34781044D01*
X77993591Y-34715920D01*
X78001254Y-34707533D01*
X78037749Y-34671038D01*
X78100171Y-34581891D01*
X78160899Y-34495162D01*
X78160900Y-34495160D01*
X78164056Y-34490653D01*
X78166379Y-34485671D01*
X78166382Y-34485666D01*
X78237836Y-34332431D01*
X78257120Y-34291076D01*
X78314115Y-34078371D01*
X78333307Y-33859000D01*
X78314115Y-33639629D01*
X78257120Y-33426924D01*
X78189855Y-33282673D01*
X78166382Y-33232334D01*
X78166379Y-33232329D01*
X78164056Y-33227347D01*
X78037749Y-33046962D01*
X77882038Y-32891251D01*
X77701654Y-32764944D01*
X77502076Y-32671880D01*
X77289371Y-32614885D01*
X77070000Y-32595693D01*
X76850629Y-32614885D01*
X76821512Y-32622687D01*
X76750535Y-32620997D01*
X76699809Y-32590077D01*
X75898326Y-31788593D01*
X75864302Y-31726283D01*
X75869367Y-31655467D01*
X75911914Y-31598632D01*
X75978434Y-31573821D01*
X75987423Y-31573500D01*
X80713367Y-31573500D01*
X80781488Y-31593502D01*
G37*
%TD.AperFunction*%
%TA.AperFunction,Conductor*%
G36*
X87928377Y-31699999D02*
G01*
X87974112Y-31754302D01*
X87984775Y-31804991D01*
X87985277Y-33447201D01*
X87986356Y-36972915D01*
X87986361Y-36990189D01*
X87966380Y-37058316D01*
X87912738Y-37104826D01*
X87842467Y-37114951D01*
X87777878Y-37085478D01*
X87771266Y-37079323D01*
X86645489Y-35953546D01*
X86632652Y-35938518D01*
X86624669Y-35927530D01*
X86589913Y-35896235D01*
X86574937Y-35882751D01*
X86570153Y-35878210D01*
X86556006Y-35864063D01*
X86549872Y-35859096D01*
X86540446Y-35851463D01*
X86535425Y-35847175D01*
X86531754Y-35843869D01*
X86513386Y-35827330D01*
X86490619Y-35806830D01*
X86490615Y-35806827D01*
X86485715Y-35802415D01*
X86480005Y-35799119D01*
X86480002Y-35799116D01*
X86473955Y-35795625D01*
X86457670Y-35784432D01*
X86457164Y-35784022D01*
X86447125Y-35775893D01*
X86387520Y-35745523D01*
X86381724Y-35742376D01*
X86375975Y-35739057D01*
X86323785Y-35708925D01*
X86310875Y-35704730D01*
X86292616Y-35697167D01*
X86280524Y-35691006D01*
X86215906Y-35673691D01*
X86209582Y-35671818D01*
X86186453Y-35664303D01*
X86145956Y-35651145D01*
X86139389Y-35650455D01*
X86139385Y-35650454D01*
X86133712Y-35649858D01*
X86132470Y-35649728D01*
X86113028Y-35646125D01*
X86099915Y-35642611D01*
X86093318Y-35642265D01*
X86093316Y-35642265D01*
X86033113Y-35639110D01*
X86026539Y-35638593D01*
X86009895Y-35636844D01*
X86009891Y-35636844D01*
X86006620Y-35636500D01*
X85986593Y-35636500D01*
X85979999Y-35636327D01*
X85919782Y-35633171D01*
X85919778Y-35633171D01*
X85913190Y-35632826D01*
X85906675Y-35633858D01*
X85906673Y-35633858D01*
X85899786Y-35634949D01*
X85880075Y-35636500D01*
X85547470Y-35636500D01*
X85479349Y-35616498D01*
X85458452Y-35599673D01*
X85365483Y-35506866D01*
X85360303Y-35501695D01*
X85354069Y-35497852D01*
X85298883Y-35463834D01*
X85251390Y-35411062D01*
X85239000Y-35356575D01*
X85239000Y-33979425D01*
X85240551Y-33959714D01*
X85241642Y-33952827D01*
X85241642Y-33952825D01*
X85242674Y-33946310D01*
X85239173Y-33879501D01*
X85239000Y-33872907D01*
X85239000Y-33852880D01*
X85236907Y-33832961D01*
X85236390Y-33826387D01*
X85233235Y-33766184D01*
X85233235Y-33766182D01*
X85232889Y-33759585D01*
X85229375Y-33746472D01*
X85225772Y-33727029D01*
X85225046Y-33720115D01*
X85225045Y-33720111D01*
X85224355Y-33713544D01*
X85203682Y-33649918D01*
X85201815Y-33643617D01*
X85189845Y-33598946D01*
X85191535Y-33527969D01*
X85231329Y-33469174D01*
X85296594Y-33441226D01*
X85305935Y-33440461D01*
X85486869Y-33432403D01*
X85549737Y-33421939D01*
X85811220Y-33378417D01*
X85811225Y-33378416D01*
X85814961Y-33377794D01*
X86134116Y-33284164D01*
X86137583Y-33282674D01*
X86137587Y-33282673D01*
X86436228Y-33154366D01*
X86436230Y-33154365D01*
X86439712Y-33152869D01*
X86727321Y-32985813D01*
X86730343Y-32983532D01*
X86730347Y-32983529D01*
X86989753Y-32787697D01*
X86989754Y-32787696D01*
X86992777Y-32785414D01*
X87195410Y-32590075D01*
X87229508Y-32557204D01*
X87229509Y-32557203D01*
X87232235Y-32554575D01*
X87442227Y-32296641D01*
X87619710Y-32015347D01*
X87744910Y-31751081D01*
X87792149Y-31698086D01*
X87860544Y-31679042D01*
X87928377Y-31699999D01*
G37*
%TD.AperFunction*%
%TA.AperFunction,Conductor*%
G36*
X83681206Y-28164502D02*
G01*
X83727699Y-28218158D01*
X83737803Y-28288432D01*
X83708309Y-28353012D01*
X83677508Y-28378785D01*
X83644659Y-28398328D01*
X83381316Y-28601496D01*
X83144288Y-28834829D01*
X82937009Y-29094949D01*
X82762481Y-29378086D01*
X82623232Y-29680140D01*
X82622073Y-29683740D01*
X82622070Y-29683747D01*
X82534038Y-29957116D01*
X82521280Y-29996735D01*
X82520561Y-30000451D01*
X82520559Y-30000459D01*
X82458819Y-30319567D01*
X82458100Y-30323285D01*
X82457833Y-30327061D01*
X82457832Y-30327066D01*
X82449379Y-30446460D01*
X82424616Y-30512998D01*
X82367811Y-30555585D01*
X82296999Y-30560701D01*
X82234599Y-30526656D01*
X81819489Y-30111546D01*
X81806652Y-30096518D01*
X81798669Y-30085530D01*
X81748937Y-30040751D01*
X81744153Y-30036210D01*
X81730006Y-30022063D01*
X81714446Y-30009463D01*
X81709425Y-30005175D01*
X81664619Y-29964830D01*
X81664615Y-29964827D01*
X81659715Y-29960415D01*
X81654005Y-29957119D01*
X81654002Y-29957116D01*
X81647955Y-29953625D01*
X81631670Y-29942432D01*
X81621125Y-29933893D01*
X81561518Y-29903522D01*
X81555724Y-29900376D01*
X81549975Y-29897057D01*
X81497785Y-29866925D01*
X81484875Y-29862730D01*
X81466614Y-29855166D01*
X81454524Y-29849006D01*
X81389906Y-29831691D01*
X81383582Y-29829818D01*
X81374981Y-29827023D01*
X81319956Y-29809145D01*
X81313389Y-29808455D01*
X81313385Y-29808454D01*
X81307712Y-29807858D01*
X81306470Y-29807728D01*
X81287028Y-29804125D01*
X81281761Y-29802714D01*
X81280293Y-29802320D01*
X81280292Y-29802320D01*
X81273915Y-29800611D01*
X81267318Y-29800265D01*
X81267316Y-29800265D01*
X81207113Y-29797110D01*
X81200539Y-29796593D01*
X81183895Y-29794844D01*
X81183891Y-29794844D01*
X81180620Y-29794500D01*
X81160593Y-29794500D01*
X81153999Y-29794327D01*
X81093782Y-29791171D01*
X81093778Y-29791171D01*
X81087190Y-29790826D01*
X81080675Y-29791858D01*
X81080673Y-29791858D01*
X81073786Y-29792949D01*
X81054075Y-29794500D01*
X52511925Y-29794500D01*
X52492214Y-29792949D01*
X52485327Y-29791858D01*
X52485325Y-29791858D01*
X52478810Y-29790826D01*
X52472223Y-29791171D01*
X52472218Y-29791171D01*
X52412008Y-29794327D01*
X52405414Y-29794500D01*
X52385380Y-29794500D01*
X52382106Y-29794844D01*
X52382107Y-29794844D01*
X52365454Y-29796594D01*
X52358880Y-29797111D01*
X52298681Y-29800266D01*
X52298678Y-29800266D01*
X52292085Y-29800612D01*
X52285706Y-29802321D01*
X52285707Y-29802321D01*
X52278977Y-29804124D01*
X52259544Y-29807725D01*
X52252614Y-29808454D01*
X52252610Y-29808455D01*
X52246044Y-29809145D01*
X52182408Y-29829822D01*
X52176101Y-29831690D01*
X52111475Y-29849006D01*
X52105588Y-29852006D01*
X52105587Y-29852006D01*
X52099385Y-29855166D01*
X52081121Y-29862731D01*
X52074504Y-29864881D01*
X52074499Y-29864883D01*
X52068215Y-29866925D01*
X52014436Y-29897974D01*
X52010276Y-29900376D01*
X52004481Y-29903522D01*
X51950762Y-29930894D01*
X51950759Y-29930896D01*
X51944875Y-29933894D01*
X51939743Y-29938050D01*
X51939740Y-29938052D01*
X51934329Y-29942433D01*
X51918044Y-29953626D01*
X51906285Y-29960415D01*
X51901378Y-29964833D01*
X51901377Y-29964834D01*
X51856576Y-30005173D01*
X51851561Y-30009457D01*
X51838559Y-30019986D01*
X51835994Y-30022063D01*
X51821847Y-30036210D01*
X51817063Y-30040751D01*
X51767331Y-30085530D01*
X51759348Y-30096518D01*
X51746511Y-30111546D01*
X50589546Y-31268511D01*
X50574518Y-31281348D01*
X50563530Y-31289331D01*
X50559117Y-31294233D01*
X50559115Y-31294234D01*
X50518751Y-31339063D01*
X50514210Y-31343847D01*
X50500063Y-31357994D01*
X50497986Y-31360559D01*
X50487463Y-31373554D01*
X50483175Y-31378575D01*
X50442830Y-31423381D01*
X50442827Y-31423385D01*
X50438415Y-31428285D01*
X50435119Y-31433995D01*
X50435116Y-31433998D01*
X50431625Y-31440045D01*
X50420432Y-31456330D01*
X50411893Y-31466875D01*
X50381523Y-31526480D01*
X50378376Y-31532276D01*
X50344925Y-31590215D01*
X50342884Y-31596497D01*
X50340731Y-31603123D01*
X50333167Y-31621384D01*
X50327006Y-31633476D01*
X50314796Y-31679042D01*
X50309691Y-31698094D01*
X50307818Y-31704418D01*
X50287145Y-31768044D01*
X50286455Y-31774611D01*
X50286454Y-31774615D01*
X50285728Y-31781529D01*
X50282125Y-31800972D01*
X50278611Y-31814085D01*
X50278265Y-31820682D01*
X50278265Y-31820684D01*
X50275110Y-31880887D01*
X50274593Y-31887461D01*
X50272500Y-31907380D01*
X50272500Y-31927407D01*
X50272327Y-31934001D01*
X50268826Y-32000810D01*
X50269858Y-32007325D01*
X50269858Y-32007327D01*
X50270949Y-32014214D01*
X50272500Y-32033925D01*
X50272500Y-32366530D01*
X50252498Y-32434651D01*
X50235673Y-32455548D01*
X50139870Y-32551518D01*
X50077587Y-32585597D01*
X50050697Y-32588500D01*
X49579621Y-32588500D01*
X49511500Y-32568498D01*
X49465007Y-32514842D01*
X49461639Y-32506730D01*
X49417767Y-32389703D01*
X49414615Y-32381295D01*
X49327261Y-32264739D01*
X49210705Y-32177385D01*
X49074316Y-32126255D01*
X49012134Y-32119500D01*
X47215866Y-32119500D01*
X47153684Y-32126255D01*
X47017295Y-32177385D01*
X46900739Y-32264739D01*
X46813385Y-32381295D01*
X46810233Y-32389703D01*
X46810232Y-32389705D01*
X46767299Y-32504229D01*
X46724658Y-32560994D01*
X46658096Y-32585694D01*
X46643108Y-32585824D01*
X46636809Y-32584826D01*
X46570007Y-32588327D01*
X46563413Y-32588500D01*
X46543380Y-32588500D01*
X46528394Y-32590075D01*
X46523455Y-32590594D01*
X46516881Y-32591111D01*
X46456680Y-32594266D01*
X46456677Y-32594266D01*
X46450084Y-32594612D01*
X46443705Y-32596321D01*
X46443706Y-32596321D01*
X46436976Y-32598124D01*
X46417543Y-32601725D01*
X46410618Y-32602453D01*
X46410609Y-32602455D01*
X46404044Y-32603145D01*
X46340412Y-32623820D01*
X46334111Y-32625687D01*
X46269475Y-32643006D01*
X46263595Y-32646002D01*
X46263590Y-32646004D01*
X46257385Y-32649166D01*
X46239121Y-32656731D01*
X46232504Y-32658881D01*
X46232499Y-32658883D01*
X46226215Y-32660925D01*
X46173838Y-32691165D01*
X46168281Y-32694373D01*
X46162486Y-32697519D01*
X46108759Y-32724895D01*
X46108756Y-32724897D01*
X46102874Y-32727894D01*
X46097746Y-32732047D01*
X46097744Y-32732048D01*
X46092333Y-32736430D01*
X46076038Y-32747629D01*
X46070005Y-32751112D01*
X46070001Y-32751115D01*
X46064285Y-32754415D01*
X46059382Y-32758830D01*
X46059379Y-32758832D01*
X46014564Y-32799185D01*
X46009555Y-32803463D01*
X45993993Y-32816064D01*
X45979847Y-32830210D01*
X45975063Y-32834751D01*
X45925331Y-32879530D01*
X45917348Y-32890518D01*
X45904511Y-32905546D01*
X45509546Y-33300511D01*
X45494518Y-33313348D01*
X45483530Y-33321331D01*
X45479117Y-33326233D01*
X45479115Y-33326234D01*
X45438751Y-33371063D01*
X45434210Y-33375847D01*
X45420063Y-33389994D01*
X45417986Y-33392559D01*
X45407463Y-33405554D01*
X45403175Y-33410575D01*
X45362830Y-33455381D01*
X45362827Y-33455385D01*
X45358415Y-33460285D01*
X45355119Y-33465995D01*
X45355116Y-33465998D01*
X45351625Y-33472045D01*
X45340432Y-33488330D01*
X45331893Y-33498875D01*
X45309769Y-33542297D01*
X45304767Y-33552114D01*
X45256019Y-33603729D01*
X45187104Y-33620795D01*
X45119902Y-33597894D01*
X45075750Y-33542297D01*
X45066500Y-33494911D01*
X45066500Y-28270500D01*
X45086502Y-28202379D01*
X45140158Y-28155886D01*
X45192500Y-28144500D01*
X83613085Y-28144500D01*
X83681206Y-28164502D01*
G37*
%TD.AperFunction*%
%TD*%
M02*
